<svg xmlns:xlink="http://www.w3.org/1999/xlink" xmlns="http://www.w3.org/2000/svg" height="75" width="213" viewBox="0,0,213,75"><path d="M39.395982 37.337412Q35.175119 37.145555 34.599547 40.215273Q34.407689 41.289674 34.599547 42.172218Q34.599547 42.939648 35.060005 44.359393Q36.172777 47.582597 39.511096 47.429111Q41.544784 47.505854 42.887786 45.932623Q44.115673 44.436136 44.115673 42.364076Q44.269159 41.788504 44.115673 40.714102Q44.03893 39.793187 43.616844 39.1025Q42.005242 37.452527 39.395982 37.337412zM44.307531 55.985951Q42.427328 56.523151 34.292575 56.906866Q32.60423 56.983609 30.954256 56.139437Q31.798429 55.18015 33.64026 53.37669Q36.057663 54.41272 38.168094 54.220863Q41.084327 53.952262 41.928499 53.683662Q44.192416 52.992975 44.192416 51.189516Q44.192416 50.959287 44.115673 50.729058L44.03893 49.155827Q44.000559 48.350026 44.000559 47.544225Q42.619186 49.808143 39.204124 49.808143Q35.290233 49.808143 33.64026 47.582597Q32.527487 46.047738 31.721686 41.596646Q31.414714 40.061787 31.414714 38.642042Q31.414714 36.838583 32.33563 35.840925Q34.023975 34.42118 38.705295 34.42118L40.470383 34.613037Q43.693587 34.958381 45.036589 36.915326Q45.228446 36.071153 45.650533 34.42118Q47.492363 34.037465 49.257451 33.308407Q46.571448 39.447843 46.571448 46.738424Q46.571448 49.424428 46.955163 52.07206Q47.14702 52.762746 47.070277 53.453433Q46.87842 54.834806 45.650533 55.602236Q45.151703 55.870836 44.307531 55.985951zM47.300506 58.940554Q48.796994 59.017297 49.564423 58.05801Q49.909767 57.098723 49.794652 56.369665Q49.679538 55.71735 49.48768 54.949921Q48.259793 49.693028 48.605136 44.397764Q48.95048 38.910643 51.099282 34.037465L48.988851 34.996752Q49.21908 34.382808 49.449309 33.807236L49.948138 32.656092Q47.569106 33.615379 45.343561 34.037465Q45.036589 34.920009 44.883103 35.956039Q42.7343 33.999094 38.666923 33.999094H36.901835Q33.64026 33.999094 31.951915 35.418838Q31.030999 36.416497 31.069371 38.335071Q31.146114 40.867588 32.182144 45.165194Q32.642601 47.083768 33.870489 48.503512L34.215832 48.848856Q35.366976 51.189516 37.976237 51.726717Q39.395982 52.033688 40.854098 52.07206Q42.619186 52.110431 43.693587 51.726717Q43.079643 53.299947 40.39364 53.64529Q39.319239 53.798776 38.628552 53.798776H38.244837Q35.405348 53.798776 33.717003 52.839489L31.990286 54.566206Q31.146114 55.410378 30.301941 56.369665Q31.2996 56.906866 32.297258 57.098723L31.414714 57.981267Q34.139089 59.055669 39.818068 59.055669H40.048297Q43.693587 59.055669 47.300506 58.940554zM41.314555 39.678072Q42.619186 39.601329 43.540101 40.023416Q43.731959 40.522245 43.808702 41.212931Q43.847073 41.519903 43.808702 42.440819Q43.731959 44.359393 42.619186 45.664023Q41.42967 47.083768 39.511096 47.045396Q38.05298 46.968653 37.208807 46.546567Q36.825093 45.395423 36.786721 44.359393Q36.671607 39.985044 41.314555 39.678072zM81.995982 37.337412Q77.775119 37.145555 77.199547 40.215273Q77.007689 41.289674 77.199547 42.172218Q77.199547 42.939648 77.660005 44.359393Q78.772777 47.582597 82.111096 47.429111Q84.144784 47.505854 85.487786 45.932623Q86.715673 44.436136 86.715673 42.364076Q86.869159 41.788504 86.715673 40.714102Q86.63893 39.793187 86.216844 39.1025Q84.605242 37.452527 81.995982 37.337412zM86.907531 55.985951Q85.027328 56.523151 76.892575 56.906866Q75.20423 56.983609 73.554256 56.139437Q74.398429 55.18015 76.24026 53.37669Q78.657663 54.41272 80.768094 54.220863Q83.684327 53.952262 84.528499 53.683662Q86.792416 52.992975 86.792416 51.189516Q86.792416 50.959287 86.715673 50.729058L86.63893 49.155827Q86.600559 48.350026 86.600559 47.544225Q85.219186 49.808143 81.804124 49.808143Q77.890233 49.808143 76.24026 47.582597Q75.127487 46.047738 74.321686 41.596646Q74.014714 40.061787 74.014714 38.642042Q74.014714 36.838583 74.93563 35.840925Q76.623975 34.42118 81.305295 34.42118L83.070383 34.613037Q86.293587 34.958381 87.636589 36.915326Q87.828446 36.071153 88.250533 34.42118Q90.092363 34.037465 91.857451 33.308407Q89.171448 39.447843 89.171448 46.738424Q89.171448 49.424428 89.555163 52.07206Q89.74702 52.762746 89.670277 53.453433Q89.47842 54.834806 88.250533 55.602236Q87.751703 55.870836 86.907531 55.985951zM89.900506 58.940554Q91.396994 59.017297 92.164423 58.05801Q92.509767 57.098723 92.394652 56.369665Q92.279538 55.71735 92.08768 54.949921Q90.859793 49.693028 91.205136 44.397764Q91.55048 38.910643 93.699282 34.037465L91.588851 34.996752Q91.81908 34.382808 92.049309 33.807236L92.548138 32.656092Q90.169106 33.615379 87.943561 34.037465Q87.636589 34.920009 87.483103 35.956039Q85.3343 33.999094 81.266923 33.999094H79.501835Q76.24026 33.999094 74.551915 35.418838Q73.630999 36.416497 73.669371 38.335071Q73.746114 40.867588 74.782144 45.165194Q75.242601 47.083768 76.470489 48.503512L76.815832 48.848856Q77.966976 51.189516 80.576237 51.726717Q81.995982 52.033688 83.454098 52.07206Q85.219186 52.110431 86.293587 51.726717Q85.679643 53.299947 82.99364 53.64529Q81.919239 53.798776 81.228552 53.798776H80.844837Q78.005348 53.798776 76.317003 52.839489L74.590286 54.566206Q73.746114 55.410378 72.901941 56.369665Q73.8996 56.906866 74.897258 57.098723L74.014714 57.981267Q76.739089 59.055669 82.418068 59.055669H82.648297Q86.293587 59.055669 89.900506 58.940554zM83.914555 39.678072Q85.219186 39.601329 86.140101 40.023416Q86.331959 40.522245 86.408702 41.212931Q86.447073 41.519903 86.408702 42.440819Q86.331959 44.359393 85.219186 45.664023Q84.02967 47.083768 82.111096 47.045396Q80.65298 46.968653 79.808807 46.546567Q79.425093 45.395423 79.386721 44.359393Q79.271607 39.985044 83.914555 39.678072zM133.63246 37.951356Q133.78595 37.606013 133.74758 37.183926Q133.63246 36.76184 133.32549 36.569983Q132.59643 35.99441 131.71389 36.147896Q130.63949 36.147896 128.98952 37.260669Q127.56977 38.181585 127.56977 39.371101V43.975678Q127.5314 46.546567 127.68489 48.580255H125.95817Q124.96051 48.541884 124.23145 48.618627Q124.65354 46.086109 124.73028 43.822192Q124.88377 39.140872 124.23145 37.836241Q123.96285 37.260669 123.38728 36.953697Q122.54311 36.224639 120.96988 36.109525Q118.93619 35.879296 118.39899 37.490898Q118.2455 37.989727 118.36062 38.488557Q119.01293 41.251303 118.66759 44.052421Q118.36062 46.89191 116.94087 49.347685Q115.94321 49.539542 113.83278 49.961629Q116.32693 46.661681 116.32693 42.325704Q116.32693 36.416497 112.25955 32.157263Q113.02698 32.464234 113.98627 32.694463L115.71298 33.078178Q116.21181 33.730493 117.09436 35.418838Q117.24784 33.500264 119.70362 33.461893Q119.8571 33.423521 120.85476 33.500264Q125.9198 33.845608 127.07094 36.685097Q128.75929 33.960722 133.82432 33.423521Q134.59175 33.308407 135.4743 33.423521Q137.69984 33.615379 137.54636 35.188609Q137.46961 35.840925 137.20101 36.608354Q135.78127 39.639701 136.0115 43.208248Q136.20335 46.700053 138.12193 49.539542Q136.43358 49.194199 134.59175 48.96397Q133.36386 46.393081 133.17201 43.591963Q132.98015 40.714102 133.63246 37.951356zM134.36152 49.347685Q135.09058 49.424428 136.43358 49.616285Q136.97078 50.345343 138.12193 51.765088Q141.07653 52.34066 143.18696 52.992975Q138.12193 49.040713 137.85333 42.47919Q137.77658 40.368759 138.39053 38.450185Q138.58239 37.52927 138.58239 36.800211Q138.62076 35.917667 138.00681 35.342095L137.96844 35.265352Q138.04518 34.766523 137.96844 34.267694Q137.85333 33.730493 137.39287 33.461893Q136.70218 32.963064 135.81964 32.924692Q132.98015 32.847949 130.29415 33.807236Q128.29883 34.497923 127.10931 35.917667Q125.53608 33.423521 120.66291 33.078178Q119.97222 33.039807 119.55013 33.039807Q117.47807 33.039807 116.86413 34.306065Q116.55716 33.807236 115.86647 32.732835Q113.37232 32.195634 111.37701 31.543319Q116.05833 35.956039 116.05833 42.287333Q116.05833 47.045396 113.18047 50.537201Q113.64092 50.383715 114.13975 50.306972L115.09904 50.115114Q114.40835 51.189516 113.29558 52.417403Q114.94555 52.110431 118.09202 51.496488Q120.77802 47.352368 120.77802 42.402447Q120.77802 41.596646 120.70128 40.752474Q120.62453 39.985044 121.62219 39.179243V39.217615Q122.19776 38.718785 123.38728 38.603671Q123.88611 38.680414 124.19308 38.680414L124.23145 38.910643Q124.50005 41.635018 124.38494 44.014049Q124.26982 46.316338 123.77099 49.002342H124.80702Q126.22677 48.96397 125.88143 48.96397Q125.9198 49.501171 125.88143 49.961629Q125.84305 50.422086 125.84305 50.920915H128.3372Q129.60346 50.920915 130.86972 50.997658Q129.33486 47.275625 129.52672 41.289674Q129.56509 40.176902 130.7546 39.409472Q131.67552 38.603671 132.94178 38.411814H133.24875Q132.82666 40.368759 132.82666 42.364076Q132.82666 46.162852 134.36152 49.347685zM128.98952 37.682755L128.83603 37.874613V37.759498zM176.90397 49.270942Q174.75516 48.848856 172.56799 48.69537Q171.14824 47.275625 168.46224 43.400106Q166.23669 46.508195 163.81929 48.96397L161.70886 49.347685Q160.63446 49.539542 159.6368 49.808143Q163.85766 45.664023 166.88901 41.519903Q163.58906 37.299041 158.14031 32.464234Q160.40423 33.231664 163.1286 33.65375Q166.58204 36.76184 168.50061 39.486215Q170.64941 36.416497 173.41216 33.883979Q176.48188 33.538636 178.32371 33.039807Q173.7575 36.723469 170.03547 41.328046Q173.41216 46.009366 176.90397 49.270942zM179.78183 32.272377Q176.86559 33.11655 173.29705 33.461893Q170.38081 36.147896 168.6541 38.642042Q167.77155 37.606013 166.12158 35.610696H165.92972Q165.77624 35.572324 165.66112 35.572324Q164.89369 34.728152 163.24372 33.270036Q159.6368 32.732835 156.75894 31.504948Q162.3228 36.339754 166.39018 41.519903Q163.01349 46.201224 158.5624 50.537201Q158.79263 50.422086 162.3228 49.577914Q160.78794 50.920915 159.13797 52.263917Q162.36118 51.343002 165.54601 51.151144Q167.96341 48.887227 169.88199 46.124481Q171.30173 47.889569 172.52962 49.079085Q172.64473 49.079085 172.72147 49.155827H172.91333Q174.17959 50.2686 175.52259 51.343002Q179.12951 51.880202 182.04574 52.916232Q175.82956 48.426769 172.10753 43.208248Q175.79119 38.143213 180.39577 34.037465Q179.43648 34.382808 178.43882 34.613037L176.40514 35.073495Q177.59465 34.152579 179.78183 32.272377z" /></svg>