<svg width="136" height="80" viewBox="0 0 136 80" fill="none" xmlns="http://www.w3.org/2000/svg">
    <g clip-path="url(#d5rleric3a)" fill-rule="evenodd" clip-rule="evenodd">
        <path d="M52.663 14.754c.99.58 1.6 1.63 1.6 2.78l.07 27.8-25.57-14.83-.06-24.58c-.01-2.25 2.42-3.65 4.36-2.53l4.09 2.37c-.82 1.62.63 4.24 3.27 5.88 2.66 1.65 5.51 1.69 6.37.08.04-.074.075-.16.108-.245l.022-.055 5.74 3.33zm47.6 25.01c0 .42.12.75.35.97.24.23.56.34.96.34.51 0 .85-.15 1.01-.45.08-.15.15-.29.2-.44.09-.27.34-.46.63-.46h1.43c.4 0 .73.36.67.75-.12.83-.47 1.53-1.02 2.08-.35.37-.77.66-1.26.87-.49.21-1.04.32-1.66.32-.84 0-1.56-.17-2.14-.53-.59-.35-1.04-.81-1.35-1.39-.19-.35-.32-.75-.39-1.21-.07-.46-.1-.95-.1-1.5v-4.39c0-.54.03-1.04.1-1.5.07-.46.2-.86.39-1.21.32-.58.77-1.04 1.35-1.39.59-.35 1.3-.53 2.14-.53.61 0 1.17.11 1.67.32.5.21.92.5 1.27.87.56.63.89 1.4 1.01 2.33.05.4-.27.75-.67.75h-1.36c-.33 0-.59-.25-.66-.57-.06-.26-.16-.47-.3-.63-.24-.25-.56-.38-.96-.38-.4 0-.72.13-.96.38s-.35.64-.35 1.14v5.46zm-14.11-6.46v9.78c0 .37.3.67.67.67h1.34c.37 0 .67-.3.67-.67v-9.78c0-.37.3-.67.67-.67h1.76c.37 0 .67-.3.67-.67v-1.18c0-.37-.3-.67-.67-.67h-7.54c-.37 0-.67.3-.67.67v1.18c0 .37.3.67.67.67h1.76c.37 0 .67.3.67.67zm6.99-2.52v1.34c0 .37.3.67.67.67h1.34c.37 0 .67-.3.67-.67v-1.34c0-.37-.3-.67-.67-.67h-1.34c-.37 0-.67.3-.67.67zm0 4.8v7.35c0 .37.3.67.67.67h1.34c.37 0 .67-.3.67-.67v-7.35c0-.37-.3-.67-.67-.67h-1.34c-.37 0-.67.3-.67.67zm13.77-4.64v11.99c0 .37.3.67.67.67h1.34c.37 0 .67-.3.67-.67v-2.87c0-.13.03-.25.1-.36l.5-.78c.29-.46.97-.4 1.18.1l1.75 4.17c.11.25.35.41.62.41h1.4c.49 0 .82-.51.6-.96l-3.21-6.63a.7.7 0 0 1 .03-.63l2.41-4.1a.671.671 0 0 0-.58-1.01h-1.12c-.25 0-.47.13-.59.34l-3.04 5.47h-.05v-5.14c0-.37-.3-.67-.67-.67h-1.34c-.37 0-.67.3-.67.67zm16.86 7h-3.97c-.37 0-.67.3-.67.67v1.15c0 .42.12.75.35.97.24.23.56.34.96.34.51 0 .85-.15 1.01-.45.08-.15.15-.29.2-.44.09-.27.34-.46.63-.46h1.43c.4 0 .73.36.67.75-.12.83-.47 1.53-1.02 2.08-.35.37-.77.66-1.26.87-.49.21-1.04.32-1.66.32-.84 0-1.56-.17-2.14-.53-.59-.35-1.04-.81-1.35-1.39-.19-.35-.32-.75-.39-1.21-.07-.46-.11-.95-.11-1.5v-4.39c0-.54.03-1.04.11-1.5.07-.46.2-.86.39-1.21.32-.58.77-1.04 1.35-1.39.59-.35 1.3-.53 2.14-.53.61 0 1.17.11 1.67.32.5.21.92.5 1.28.87.7.79 1.05 1.78 1.05 2.97v3.01c0 .38-.3.68-.67.68zm-3.97-2.1h1.29c.37 0 .67-.3.67-.67v-.85c0-.51-.12-.89-.35-1.14-.24-.25-.56-.38-.96-.38-.4 0-.72.13-.96.38s-.35.64-.35 1.14v.85c-.01.37.29.67.66.67zm7.06-5.06v2.71c0 .37-.3.67-.68.66-.37 0-.67.3-.67.67v.76c0 .37.3.67.67.67.37 0 .67.3.67.67v3.69c0 .35.06.71.17 1.09.11.37.29.71.54 1.01.25.3.58.55.99.74.41.19.93.29 1.54.29h.43c.37 0 .67-.3.67-.67v-1.08c0-.41-.32-.75-.74-.79h-.01c-.2-.02-.37-.07-.51-.16a.67.67 0 0 1-.3-.39c-.06-.18-.09-.42-.09-.74v-2.98c0-.37.3-.67.67-.67h.32c.37 0 .67-.3.67-.67v-.76c0-.37-.3-.67-.67-.67h-.32a.67.67 0 0 1-.67-.67v-2.71c0-.37-.3-.67-.67-.67h-1.34c-.37 0-.67.3-.67.67zm-99.92 26.217v4.533c0 1.15.61 2.2 1.6 2.78l4.07 2.36c.13-.77.83-1.22 1.77-1.36 1.99-.31 5.04 1.29 6.82 3.59 1.01 1.3 1.4 2.55 1.2 3.45l6.56 3.8c1.65.95 3.71-.24 3.7-2.14l-.05-25.347-25.67 8.334zm.421-22.914-.421-.243.421.243z" fill="#FED925"/>
        <path d="m54.274 22.213.059 23.12 21.42-6.94c2.4-.78 2.74-4.03.56-5.29l-5.21-3.01c-1.3 1-4.09 1.12-6.78.2-3.13-1.08-4.93-3.16-4.02-4.66.26-.44.73-.77 1.34-1l-4.22-2.43a2.93 2.93 0 0 0-2.35-.25l-.799.26zm-27.331 11.63-22.2 7.21c-2.08.67-2.37 3.49-.48 4.58l4.12 2.38c1.88-1 5.17-1.04 7.87 0 3.07 1.18 4.19 3.31 2.48 4.73l-.88.73 6.14 3.54c.67.39 1.47.47 2.2.23l26.43-8.58-25.68-14.82zm101.83 22.82h3.1c.49 0 .89-.4.88-.88v-1.05c0-1.6-.73-3.02-2.2-4.26a8.96 8.96 0 0 0-2.61-1.43c-1.01-.36-2.12-.54-3.33-.54-1.44 0-2.67.2-3.71.6-1.04.4-1.89.94-2.56 1.61-.7.67-1.23 1.47-1.58 2.4a8.28 8.28 0 0 0-.53 2.94c0 1.73.36 3.17 1.08 4.32.72 1.15 2.13 2.07 4.24 2.77l3.49 1.16c.61.21 1.09.4 1.46.58.34.17.61.38.83.63.04.05.07.09.1.14.17.27.28.62.34 1.05.07.46.1 1.06.1 1.78 0 .62-.02 1.18-.07 1.68-.04.51-.2.94-.45 1.3-.26.36-.62.64-1.08.83-.46.19-1.11.29-1.94.29-1.25 0-2.13-.29-2.66-.87-.53-.58-.79-1.23-.79-1.95v-.35c0-.49-.4-.89-.89-.89h-3.1c-.49 0-.89.4-.89.89v.58c0 .93.22 1.78.65 2.57.43.79 1.02 1.48 1.75 2.07.73.59 1.61 1.05 2.63 1.39 1.02.33 2.12.5 3.3.5 1.56 0 2.88-.21 3.97-.62 1.08-.41 1.96-.98 2.63-1.7.64-.7 1.1-1.55 1.39-2.54.29-.99.43-2.07.43-3.23 0-1.01-.06-1.9-.19-2.69a6.34 6.34 0 0 0-.72-2.11c-.38-.6-.91-1.12-1.58-1.57-.67-.45-1.55-.84-2.63-1.18l-3.73-1.2c-.64-.21-1.14-.41-1.51-.62-.37-.21-.65-.46-.84-.74-.19-.29-.31-.61-.36-.97-.05-.36-.07-.81-.07-1.35 0-.47.04-.91.14-1.34.1-.42.27-.8.53-1.14.26-.31.6-.56 1.01-.77.42-.21.96-.31 1.63-.31 1.25 0 2.13.33 2.66.99.53.66.79 1.44.79 2.34 0 .49.4.89.89.89zm-64.51-7.04v25.78c0 .49.4.89.9.88h3.1c.49 0 .89-.4.89-.89v-8.98c0-.49.4-.89.89-.89h1.6c1.82 0 3.28-.25 4.4-.75 1.12-.5 2.01-1.21 2.68-2.11.57-.75.94-1.55 1.12-2.4.17-.85.26-1.89.26-3.13 0-1.65-.16-2.96-.48-3.93-.32-.96-.89-1.81-1.72-2.53a7.078 7.078 0 0 0-2.78-1.51c-1.02-.29-2.2-.43-3.54-.43h-6.43c-.49 0-.89.4-.89.89zm4.89 11.3v-7.59a.9.9 0 0 1 .89-.9h1.65c.96 0 1.69.12 2.2.35.51.24.89.57 1.15 1.01.25.44.4.95.43 1.53.03.58.05 1.2.05 1.84 0 .7-.02 1.33-.07 1.9-.04.57-.19 1.04-.45 1.43-.26.42-.66.74-1.2.97-.55.23-1.31.35-2.3.35h-1.46c-.49 0-.89-.4-.89-.89zm12.77-11.3v25.78c0 .49.39.89.89.89h12.77c.49 0 .89-.4.89-.89v-2.17c0-.49-.4-.89-.89-.89h-7.89c-.49 0-.89-.4-.89-.89v-21.83c0-.49-.4-.89-.89-.89h-3.1c-.49 0-.89.4-.89.89zm31.16-.89c.49 0 .89.4.89.89v20.47c0 .9-.2 1.74-.6 2.5-.4.76-.97 1.44-1.7 2.03-.73.59-1.58 1.06-2.54 1.39-.96.33-1.98.5-3.06.5s-2.1-.17-3.04-.5c-.94-.34-1.78-.8-2.51-1.39-.73-.59-1.31-1.27-1.72-2.03-.41-.76-.62-1.59-.62-2.5v-20.47c0-.49.4-.89.89-.89h3.1c.49 0 .89.4.89.89v20.09c0 .98.29 1.7.86 2.17.57.46 1.29.7 2.15.7.86 0 1.58-.23 2.15-.7.57-.46.86-1.19.86-2.17v-20.09c0-.49.4-.89.89-.89h3.11z" fill="#3CB4E5"/>
    </g>
    <defs>
        <clipPath id="d5rleric3a">
            <path fill="#fff" transform="translate(3 3)" d="M0 0h129.753v73.524H0z"/>
        </clipPath>
    </defs>
</svg>
