<svg width="136" height="80" viewBox="0 0 136 80" fill="none" xmlns="http://www.w3.org/2000/svg">
    <path fill-rule="evenodd" clip-rule="evenodd" d="m71.379 29.036 5.596 3.232c1.263.728 1.948 2.076 1.798 3.531a3.608 3.608 0 0 1-2.493 3.072l-21.606 6.998-25.297-15.517-.033-.021-.064-24.42c0-2.237 2.419-3.639 4.345-2.515L37.68 5.75c-.824 1.595.62 4.206 3.242 5.843 2.643 1.648 5.48 1.69 6.335.086.054-.097.096-.193.129-.3l5.703 3.307a3.195 3.195 0 0 1 1.595 2.76l.01 3.885.568-.203a3.654 3.654 0 0 1 2.932.31l5.532 3.19-1.444.556c-.471.17-.803.417-.963.685-.14.246-.161.524-.043.845.364 1.006 1.798 2.065 3.66 2.707 2.664.91 5.104.642 6.046-.085l.396-.3zM54.856 44.253l20.974-6.795c.835-.268 1.38-.952 1.488-1.82.085-.877-.31-1.658-1.07-2.097l-4.784-2.76c-1.616.898-4.398.93-6.998.032-2.333-.803-4.035-2.151-4.559-3.596-.267-.75-.214-1.477.171-2.108.129-.225.3-.428.503-.61l-3.103-1.787a2.164 2.164 0 0 0-1.745-.182l-1.016.364.053 21.306.086.053zm38.47-12.317v-1.338c0-.363.3-.663.664-.663h1.338c.363 0 .663.3.663.663v1.338c0 .364-.3.663-.663.663H93.99a.667.667 0 0 1-.663-.663zm0 10.733v-7.298c0-.364.3-.663.664-.663h1.338c.363 0 .663.3.663.663v7.298c0 .364-.3.664-.663.664H93.99a.667.667 0 0 1-.663-.664zm-6.944.16v-9.716c0-.364-.3-.664-.664-.664h-1.755a.667.667 0 0 1-.663-.663v-1.177c0-.364.3-.664.663-.664h7.502c.364 0 .663.3.663.664v1.177c0 .364-.3.663-.663.663H89.71c-.364 0-.664.3-.664.664v9.717c0 .363-.3.663-.663.663h-1.338a.667.667 0 0 1-.663-.663zm14.382-2.343c-.235-.225-.353-.546-.353-.963v-5.404c0-.503.118-.878.353-1.135.236-.246.557-.374.953-.374.396 0 .717.118.952.374.139.15.246.364.3.621.064.321.321.567.652.567h1.349a.66.66 0 0 0 .663-.738c-.117-.92-.449-1.69-1.006-2.312-.342-.374-.77-.652-1.262-.866a4.326 4.326 0 0 0-1.659-.31c-.835 0-1.552.17-2.13.524a3.482 3.482 0 0 0-1.348 1.38 3.44 3.44 0 0 0-.396 1.199c-.075.45-.107.952-.107 1.487v4.366c0 .535.032 1.038.107 1.488.075.45.203.845.396 1.198.321.567.76 1.027 1.348 1.38.589.354 1.295.525 2.13.525.61 0 1.156-.096 1.648-.31a3.978 3.978 0 0 0 1.252-.867c.556-.557.888-1.252 1.017-2.076.064-.396-.268-.75-.664-.75h-1.423a.666.666 0 0 0-.621.45c-.043.15-.107.29-.192.439-.172.3-.503.45-1.006.45-.396 0-.717-.118-.953-.343zm6.249 2.183V30.76c0-.364.3-.663.664-.663h1.337c.364 0 .664.3.664.663v5.105h.053l3.018-5.437a.663.663 0 0 1 .578-.342h1.113a.67.67 0 0 1 .578 1.006l-2.387 4.066a.664.664 0 0 0-.021.632l3.2 6.58a.664.664 0 0 1-.6.953h-1.391a.655.655 0 0 1-.61-.406l-1.744-4.142a.665.665 0 0 0-1.177-.096l-.492.77a.707.707 0 0 0-.107.353v2.847c0 .364-.3.663-.664.663h-1.337a.639.639 0 0 1-.675-.642zm12.81-4.955h3.949c.364 0 .663-.288.653-.642v-2.996c0-1.188-.354-2.172-1.049-2.954-.343-.374-.771-.652-1.263-.866a4.323 4.323 0 0 0-1.659-.31c-.834 0-1.551.17-2.129.524a3.476 3.476 0 0 0-1.348 1.38c-.193.343-.332.75-.396 1.199-.075.45-.107.952-.107 1.487v4.366c0 .535.032 1.038.107 1.488.074.45.203.845.396 1.198a3.7 3.7 0 0 0 1.348 1.38c.588.354 1.295.525 2.129.525.61 0 1.156-.096 1.648-.31a3.967 3.967 0 0 0 1.252-.867c.557-.557.889-1.252 1.017-2.076.064-.396-.267-.75-.663-.75h-1.424a.665.665 0 0 0-.62.45 1.95 1.95 0 0 1-.193.439c-.171.3-.503.45-1.006.45-.396 0-.717-.118-.952-.343-.236-.225-.353-.546-.353-.963v-1.145c0-.364.299-.664.663-.664zm1.948-2.75c0 .364-.3.664-.664.664h-1.284a.666.666 0 0 1-.663-.664v-.845c0-.503.117-.878.353-1.135.235-.246.556-.374.952-.374.396 0 .717.118.953.374.235.247.353.632.353 1.135v.845zm5.072-1.67V30.61c0-.364.3-.664.663-.664h1.338c.364 0 .664.3.664.664v2.686c0 .364.299.663.663.663h.31c.364 0 .664.3.664.664v.76c0 .363-.3.663-.664.663h-.31c-.364 0-.663.3-.663.663v2.965c0 .31.032.556.096.727.064.172.16.31.3.396.139.086.31.14.513.16h.011a.794.794 0 0 1 .738.793v1.08a.666.666 0 0 1-.663.664h-.428c-.61 0-1.124-.096-1.53-.289a2.913 2.913 0 0 1-.985-.728 2.947 2.947 0 0 1-.535-1.005 3.595 3.595 0 0 1-.171-1.081v-3.67c0-.365-.3-.664-.664-.664a.666.666 0 0 1-.663-.664v-.76c0-.363.299-.663.663-.663a.682.682 0 0 0 .653-.674zM64.637 49.327v25.618a.9.9 0 0 0 .888.888h3.082a.886.886 0 0 0 .888-.888V66.02c0-.492.396-.888.888-.888h1.584c1.809 0 3.264-.246 4.377-.749s2.001-1.198 2.665-2.097c.567-.75.941-1.541 1.113-2.387.17-.845.257-1.883.257-3.114 0-1.637-.15-2.943-.471-3.906-.321-.952-.889-1.797-1.713-2.514a6.978 6.978 0 0 0-2.76-1.499c-1.017-.289-2.194-.428-3.521-.428h-6.389a.886.886 0 0 0-.888.889zm4.848 11.236v-7.545c0-.492.396-.888.888-.866h1.637c.942 0 1.68.107 2.183.342.514.225.888.556 1.145.995.257.439.396.942.428 1.52.022.578.043 1.188.043 1.83 0 .695-.032 1.316-.075 1.883s-.192 1.038-.45 1.423c-.256.418-.652.728-1.187.964-.535.224-1.295.342-2.28.342h-1.444a.886.886 0 0 1-.888-.888zm12.69 14.382V49.325c0-.492.397-.888.89-.888h3.081c.492 0 .888.396.888.889v21.69c0 .493.396.89.888.89h7.844c.493 0 .889.395.889.887v2.151a.886.886 0 0 1-.889.888H83.064a.9.9 0 0 1-.888-.888zm31.859-25.619a.886.886 0 0 0-.888-.888h-3.082a.886.886 0 0 0-.889.889v19.957c0 .974-.289 1.691-.856 2.151-.567.46-1.284.696-2.14.696-.856 0-1.573-.236-2.14-.696-.567-.46-.856-1.177-.856-2.15V49.324a.886.886 0 0 0-.888-.888h-3.082a.886.886 0 0 0-.889.889v20.342c0 .9.204 1.723.621 2.483.407.76.985 1.434 1.712 2.023a8.445 8.445 0 0 0 2.494 1.38 8.928 8.928 0 0 0 3.017.503 9.208 9.208 0 0 0 3.05-.503 8.348 8.348 0 0 0 2.526-1.38c.727-.589 1.295-1.263 1.69-2.023.396-.76.6-1.584.6-2.483V49.325zm17.785 7h-3.082a.886.886 0 0 1-.888-.89c0-.898-.257-1.668-.781-2.321-.525-.653-1.402-.985-2.644-.985-.663 0-1.209.107-1.615.31-.418.204-.75.46-.996.771a2.907 2.907 0 0 0-.524 1.134 6.023 6.023 0 0 0-.139 1.327c0 .535.021.985.075 1.349.043.364.171.685.353.963.193.278.471.524.835.728.363.203.866.406 1.498.62l3.713 1.188c1.081.332 1.948.728 2.611 1.177.664.45 1.188.963 1.573 1.563a6.23 6.23 0 0 1 .717 2.097c.129.781.193 1.67.193 2.675 0 1.156-.139 2.226-.428 3.21-.289.985-.749 1.83-1.381 2.515-.663.717-1.541 1.285-2.611 1.691-1.081.407-2.397.62-3.948.62-1.178 0-2.269-.17-3.286-.502-1.016-.332-1.883-.792-2.611-1.38a6.893 6.893 0 0 1-1.733-2.055 5.246 5.246 0 0 1-.642-2.558v-.578c0-.492.395-.888.888-.888h3.082c.492 0 .888.396.888.888v.343c0 .717.257 1.37.781 1.947.524.578 1.402.867 2.643.867.824 0 1.466-.096 1.926-.289.461-.192.814-.47 1.071-.824.256-.364.406-.792.449-1.284.043-.503.075-1.06.075-1.67 0-.716-.032-1.305-.096-1.765a2.769 2.769 0 0 0-.332-1.049 1.568 1.568 0 0 0-.096-.139 2.434 2.434 0 0 0-.824-.62 11.409 11.409 0 0 0-1.456-.578l-3.467-1.156c-2.097-.696-3.499-1.605-4.206-2.75-.717-1.145-1.07-2.569-1.07-4.291 0-1.028.172-2.002.525-2.922.353-.92.867-1.723 1.573-2.386.663-.664 1.509-1.199 2.547-1.595 1.027-.396 2.258-.599 3.692-.599 1.209 0 2.311.182 3.306.535.995.364 1.862.835 2.59 1.423 1.455 1.231 2.183 2.644 2.183 4.227v1.038c-.043.471-.439.867-.931.867zm-78.772-7.952-25.512 9.043v3.745c0 1.134.61 2.194 1.595 2.76l4.045 2.345c.128-.771.835-1.21 1.755-1.36 1.98-.3 5.008 1.284 6.785 3.575 1.005 1.294 1.39 2.536 1.198 3.424l6.517 3.778c1.637.952 3.681-.236 3.681-2.13l-.064-25.18zm-1.722-1.049-.054.022-.267.085L49.43 48l-21.906 7.843V34.493l-.085-.053-21.745 7.063A1.723 1.723 0 0 0 4.485 43c-.075.706.257 1.348.878 1.712l3.745 2.172c2.13-.941 5.362-.898 8.048.14 2.13.824 3.478 2.086 3.702 3.477.16.92-.214 1.798-1.027 2.483l-.064.054 5.18 2.985c.48.279 1.07.343 1.594.172l.984-.354v1.563l-.524.182a3.275 3.275 0 0 1-1.06.171c-.599 0-1.198-.16-1.723-.46l-7.009-4.045 1.69-1.402c.418-.343.59-.706.525-1.113-.128-.824-1.22-1.744-2.771-2.344-2.408-.92-5.511-.941-7.213-.032l-.364.193-4.452-2.568c-1.123-.653-1.744-1.852-1.605-3.147a3.215 3.215 0 0 1 2.226-2.739l22.376-7.266 23.704 14.49z" fill="#41B6E6"/>
</svg>
