<svg xmlns:xlink="http://www.w3.org/1999/xlink" xmlns="http://www.w3.org/2000/svg" height="75" width="213" viewBox="0,0,213,75"><path d="M43.90463 38.526928Q43.789516 37.299041 41.83257 36.569983Q41.333741 36.378125 40.796541 36.378125Q39.415167 36.378125 38.340766 36.953697Q36.959393 37.682755 37.074507 38.910643Q37.41985 41.750132 37.266365 44.014049Q37.112879 46.469824 36.383821 49.002342Q34.235018 49.501171 33.045502 49.923257Q34.657104 46.277967 34.657104 42.248961Q34.657104 36.76184 32.047843 32.272377Q33.275731 32.771206 35.693134 33.500264Q36.000106 34.229322 36.383821 35.764182Q37.726822 33.65375 41.640713 33.730493Q43.137201 33.768865 43.943002 33.883979Q46.935977 34.267694 47.01272 36.301382Q47.051091 37.222298 46.859234 38.258328Q46.398776 40.790845 46.590634 43.822192Q46.74412 46.700053 47.741778 49.270942Q46.015062 48.848856 44.288345 48.69537Q43.827887 46.316338 43.751144 43.630335Q43.674401 40.867588 43.90463 38.526928zM43.90463 49.040713Q44.710431 49.040713 46.015062 49.270942L46.398776 50.345343Q46.590634 50.844173 46.820863 51.381373Q49.123151 51.803459 51.847526 52.992975Q49.468495 49.846514 48.777808 46.009366Q48.432465 43.860563 48.547579 40.13853Q48.547579 39.831558 48.585951 39.025757Q48.662694 38.411814 48.585951 37.912984Q48.470836 36.224639 47.358063 35.72581Q47.204577 34.881638 46.437148 34.267694Q44.710431 33.231664 41.640713 33.308407Q39.760511 33.346778 38.916338 33.538636Q37.458222 33.883979 36.498935 34.804895Q36.383821 34.267694 36.000106 33.231664Q33.160616 32.540977 31.318785 31.543319Q34.388504 36.454868 34.388504 42.248961Q34.388504 46.661681 32.46993 50.537201Q33.160616 50.230229 34.465247 49.846514Q33.966417 51.112773 33.429217 52.110431Q34.848961 51.649974 38.417509 51.074401Q39.415167 45.894252 39.300053 41.021074Q39.261681 40.176902 40.451197 39.447843Q41.487227 38.795528 42.6 38.680414Q43.060458 38.642042 43.482544 38.8339Q43.329058 41.404789 43.36743 43.975678Q43.405801 46.508195 43.90463 49.040713zM83.108754 49.079085Q80.192522 49.23257 78.926263 48.69537Q76.969318 47.889569 77.046061 45.395423Q77.199547 41.980361 77.199547 42.555933Q77.199547 37.183926 74.321686 32.310749Q76.317003 33.270036 78.31232 33.65375Q80.039036 38.296699 79.923922 42.824534Q79.770436 44.321021 80.614608 45.548909Q81.535524 46.89191 83.070383 46.700053L83.454098 46.584938Q84.797099 46.508195 85.622086 45.740766Q86.447073 44.973336 86.447073 44.014049Q86.447073 43.783821 86.408702 43.591963Q86.331959 38.296699 87.483103 33.922351Q88.519133 33.845608 89.516791 33.615379L91.55048 33.11655Q88.979591 38.181585 89.286562 43.783821Q89.47842 46.89191 87.751703 48.043055Q86.447073 48.925599 83.108754 49.079085zM85.449415 51.496488Q88.941219 51.649974 90.78305 50.882544Q91.703966 50.115114 91.703966 48.69537Q91.703966 47.774454 91.435365 46.201224Q90.974907 43.054762 91.358622 40.023416Q91.742337 36.838583 93.162082 34.075837Q92.509767 34.382808 91.166765 34.804895Q91.396994 34.190951 91.703966 33.615379L92.279538 32.464234Q90.322592 33.11655 87.13776 33.615379Q85.909872 38.450185 86.063358 43.591963Q86.140101 45.702394 83.454098 46.201224L83.108754 46.316338H82.955269L81.995982 46.162852Q81.880867 45.241937 81.919239 44.743107Q82.111096 40.176902 81.420409 35.72581L80.384379 35.610696Q79.847179 35.572324 79.309978 35.45721Q78.926263 34.037465 78.657663 33.270036Q75.856545 32.847949 73.592628 31.543319Q75.741431 35.073495 76.470489 38.488557Q76.969318 40.714102 76.815832 44.244278Q76.854203 44.397764 76.777461 45.510537Q76.623975 47.889569 78.005348 48.848856Q78.389063 51.112773 85.449415 51.496488zM126.0541 25.979455Q125.32504 26.363169 125.17155 27.16897V32.34912Q126.3227 32.34912 128.54824 32.08052Q128.50987 32.502606 128.4715 33.346778V34.613037L126.8599 34.68978Q126.0541 34.766523 125.17155 34.766523Q125.17155 38.987386 125.09481 47.429111Q122.86927 47.505854 121.37278 48.196541Q122.44718 41.980361 122.33206 34.68978Q121.67975 34.651409 120.37512 34.382808Q120.37512 33.38515 120.18326 31.428205Q121.29603 31.927034 122.25532 32.118891Q122.21695 31.466576 121.90998 28.97243Q121.67975 26.90037 121.67975 25.941083Q121.67975 24.252738 123.09949 23.677166Q123.94367 23.331823 128.81684 22.48765Q129.62265 22.334164 130.46682 22.21905Q130.23659 22.986479 130.0831 23.869023L129.77613 25.442254Q129.12382 25.288768 128.62499 25.403882Q127.97267 25.365511 126.0541 25.979455zM131.54122 27.130599Q131.88656 24.905053 132.50051 22.334164Q131.88656 22.679508 130.58193 23.293451L130.96565 21.566735Q129.73776 21.758592 127.24361 22.295793Q126.0541 22.372536 122.83089 23.293451Q121.25766 23.715537 121.25766 25.59574Q121.25766 25.902712 121.33441 26.248055Q121.56463 27.591057 121.67975 28.934058L121.87161 31.620062Q120.49023 31.236347 119.83792 30.775889Q119.95303 31.735176 119.9914 32.771206L120.10652 34.766523Q120.83558 34.958381 121.64138 35.035123V37.145555H122.02509Q121.90998 43.323363 120.91232 48.810484Q121.90998 48.311655 123.09949 48.043055L122.90764 50.115114Q124.1739 49.846514 125.47853 49.808143Q126.70641 49.769771 127.97267 50.038371Q127.1285 45.011708 127.1285 36.992069Q128.24127 36.992069 130.3517 37.068812V35.188609Q130.3517 34.229322 130.39007 33.270036Q129.89125 33.346778 128.81684 33.615379Q128.81684 32.924692 128.93196 31.58169Q128.08779 31.811919 127.28199 31.888662Q127.28199 30.468918 127.3971 29.049173Q127.55059 28.396858 128.08779 28.051514Q129.04707 27.360828 129.87206 27.284085Q130.69705 27.207342 131.54122 27.130599zM176.90397 49.270942Q174.75516 48.848856 172.56799 48.69537Q171.14824 47.275625 168.46224 43.400106Q166.23669 46.508195 163.81929 48.96397L161.70886 49.347685Q160.63446 49.539542 159.6368 49.808143Q163.85766 45.664023 166.88901 41.519903Q163.58906 37.299041 158.14031 32.464234Q160.40423 33.231664 163.1286 33.65375Q166.58204 36.76184 168.50061 39.486215Q170.64941 36.416497 173.41216 33.883979Q176.48188 33.538636 178.32371 33.039807Q173.7575 36.723469 170.03547 41.328046Q173.41216 46.009366 176.90397 49.270942zM179.78183 32.272377Q176.86559 33.11655 173.29705 33.461893Q170.38081 36.147896 168.6541 38.642042Q167.77155 37.606013 166.12158 35.610696H165.92972Q165.77624 35.572324 165.66112 35.572324Q164.89369 34.728152 163.24372 33.270036Q159.6368 32.732835 156.75894 31.504948Q162.3228 36.339754 166.39018 41.519903Q163.01349 46.201224 158.5624 50.537201Q158.79263 50.422086 162.3228 49.577914Q160.78794 50.920915 159.13797 52.263917Q162.36118 51.343002 165.54601 51.151144Q167.96341 48.887227 169.88199 46.124481Q171.30173 47.889569 172.52962 49.079085Q172.64473 49.079085 172.72147 49.155827H172.91333Q174.17959 50.2686 175.52259 51.343002Q179.12951 51.880202 182.04574 52.916232Q175.82956 48.426769 172.10753 43.208248Q175.79119 38.143213 180.39577 34.037465Q179.43648 34.382808 178.43882 34.613037L176.40514 35.073495Q177.59465 34.152579 179.78183 32.272377z" /></svg>