<svg xmlns:xlink="http://www.w3.org/1999/xlink" xmlns="http://www.w3.org/2000/svg" height="75" width="213" viewBox="0,0,213,75"><path d="M48.432465 37.951356Q48.585951 37.606013 48.547579 37.183926Q48.432465 36.76184 48.125493 36.569983Q47.396435 35.99441 46.513891 36.147896Q45.439489 36.147896 43.789516 37.260669Q42.369771 38.181585 42.369771 39.371101V43.975678Q42.3314 46.546567 42.484886 48.580255H40.758169Q39.760511 48.541884 39.031453 48.618627Q39.453539 46.086109 39.530282 43.822192Q39.683768 39.140872 39.031453 37.836241Q38.762852 37.260669 38.18728 36.953697Q37.343107 36.224639 35.769877 36.109525Q33.736189 35.879296 33.198988 37.490898Q33.045502 37.989727 33.160616 38.488557Q33.812931 41.251303 33.467588 44.052421Q33.160616 46.89191 31.740872 49.347685Q30.743213 49.539542 28.632782 49.961629Q31.126928 46.661681 31.126928 42.325704Q31.126928 36.416497 27.059551 32.157263Q27.826981 32.464234 28.786268 32.694463L30.512984 33.078178Q31.011814 33.730493 31.894358 35.418838Q32.047843 33.500264 34.503618 33.461893Q34.657104 33.423521 35.654762 33.500264Q40.719798 33.845608 41.870942 36.685097Q43.559287 33.960722 48.624322 33.423521Q49.391752 33.308407 50.274296 33.423521Q52.499841 33.615379 52.346355 35.188609Q52.269613 35.840925 52.001012 36.608354Q50.581267 39.639701 50.811496 43.208248Q51.003354 46.700053 52.921928 49.539542Q51.233583 49.194199 49.391752 48.96397Q48.163864 46.393081 47.972007 43.591963Q47.78015 40.714102 48.432465 37.951356zM49.161523 49.347685Q49.890581 49.424428 51.233583 49.616285Q51.770783 50.345343 52.921928 51.765088Q55.876531 52.34066 57.986963 52.992975Q52.921928 49.040713 52.653327 42.47919Q52.576584 40.368759 53.190528 38.450185Q53.382385 37.52927 53.382385 36.800211Q53.420757 35.917667 52.806813 35.342095L52.768442 35.265352Q52.845185 34.766523 52.768442 34.267694Q52.653327 33.730493 52.19287 33.461893Q51.502183 32.963064 50.619639 32.924692Q47.78015 32.847949 45.094146 33.807236Q43.098829 34.497923 41.909313 35.917667Q40.336083 33.423521 35.462905 33.078178Q34.772218 33.039807 34.350132 33.039807Q32.278072 33.039807 31.664129 34.306065Q31.357157 33.807236 30.66647 32.732835Q28.172324 32.195634 26.177007 31.543319Q30.858328 35.956039 30.858328 42.287333Q30.858328 47.045396 27.980467 50.537201Q28.440925 50.383715 28.939754 50.306972L29.899041 50.115114Q29.208354 51.189516 28.095581 52.417403Q29.745555 52.110431 32.892016 51.496488Q35.578019 47.352368 35.578019 42.402447Q35.578019 41.596646 35.501277 40.752474Q35.424534 39.985044 36.422192 39.179243V39.217615Q36.997764 38.718785 38.18728 38.603671Q38.686109 38.680414 38.993081 38.680414L39.031453 38.910643Q39.300053 41.635018 39.184938 44.014049Q39.069824 46.316338 38.570995 49.002342H39.607025Q41.026769 48.96397 40.681426 48.96397Q40.719798 49.501171 40.681426 49.961629Q40.643055 50.422086 40.643055 50.920915H43.137201Q44.403459 50.920915 45.669718 50.997658Q44.134859 47.275625 44.326717 41.289674Q44.365088 40.176902 45.554604 39.409472Q46.475519 38.603671 47.741778 38.411814H48.04875Q47.626664 40.368759 47.626664 42.364076Q47.626664 46.162852 49.161523 49.347685zM43.789516 37.682755L43.63603 37.874613V37.759498zM81.401224 36.531611Q78.830335 36.531611 77.794305 37.721127Q76.758275 38.910643 76.758275 41.558275Q76.758275 46.700053 81.401224 46.508195Q83.511655 46.700053 84.873842 45.126822Q86.23603 43.553592 86.005801 41.481532Q86.005801 38.910643 85.123257 37.874613Q83.626769 36.531611 81.401224 36.531611zM86.466259 46.393081Q85.276743 48.887227 80.557051 48.887227H79.098935Q76.719903 48.887227 75.60713 47.736083Q74.571101 46.700053 74.3025 44.28265Q74.149014 42.786162 74.072271 40.982703Q74.0339 39.985044 73.880414 38.028099Q73.765299 33.692122 78.983821 33.692122H80.557051Q83.473283 33.692122 85.583715 34.996752Q86.389516 35.495581 86.888345 36.186268Q87.156945 35.380467 87.694146 33.730493Q88.922033 33.538636 91.262694 32.924692Q88.653433 37.183926 88.653433 42.47919Q88.653433 46.239595 90.034806 49.347685Q88.883662 49.040713 86.965088 48.810484Q86.773231 47.966312 86.466259 46.393081zM89.804577 51.649974L92.030123 52.225546Q93.25801 52.532518 94.255669 52.992975Q90.572007 48.618627 90.572007 42.47919Q90.572007 37.912984 92.72081 34.075837Q92.068495 34.306065 90.725493 34.68978Q91.070836 33.922351 91.95338 32.387492Q91.377808 32.579349 87.348803 33.423521L86.773231 35.265352Q84.969771 33.500264 80.51868 33.270036Q79.405907 33.308407 77.14199 33.461893Q73.419956 33.807236 73.535071 37.874613Q73.650185 41.212931 74.225757 45.702394L74.264129 46.162852Q74.379243 47.007025 75.185044 48.119798Q75.33853 48.273283 75.530387 48.388398Q75.798988 48.887227 76.182703 49.462799Q77.602447 50.997658 81.017509 51.189516Q82.667482 51.30463 82.820968 51.30463H84.394199Q87.617403 51.30463 88.84529 49.7314Q89.190634 50.345343 89.804577 51.649974zM83.204683 38.795528Q84.547685 38.795528 85.391857 39.255986Q85.698829 40.061787 85.698829 41.519903Q85.890687 43.438477 84.605242 44.877408Q83.319798 46.316338 81.401224 46.124481Q79.943107 46.124481 78.907078 45.702394Q78.71522 44.858222 78.71522 43.630335Q78.830335 40.061787 81.477967 39.1025Q82.398882 38.795528 83.204683 38.795528zM129.143 37.107183Q127.95349 36.339754 127.30117 36.378125Q125.9198 36.454868 124.86458 37.471712Q123.80937 38.488557 123.92448 39.86993Q124.23145 44.244278 123.34891 48.810484Q121.12336 49.270942 120.01059 49.808143Q121.50708 45.58728 121.27685 41.097817Q121.04662 36.569983 119.3199 32.464234Q120.47105 33.154921 122.77334 33.807236L123.34891 36.531611Q124.0396 33.615379 128.3372 33.615379Q128.72092 33.538636 129.02789 33.538636Q130.33252 33.538636 131.59878 34.229322Q130.29415 35.610696 129.143 37.107183zM130.86972 39.064129Q131.75226 37.874613 133.44061 35.418838Q132.98015 35.073495 131.44529 34.804895Q131.79063 34.497923 132.25109 33.883979Q130.33252 32.963064 128.37557 33.154921Q126.41863 33.346778 125.68957 33.615379Q124.26982 34.037465 123.46402 35.150238L123.08031 33.461893Q120.66291 33.039807 118.66759 31.696805Q120.81639 36.109525 121.04662 41.021074Q121.27685 45.970995 119.51176 50.537201Q120.58616 50.038371 121.46871 49.7314Q121.20011 50.844173 120.70128 51.918574Q123.57914 51.074401 125.72794 50.959287L125.9198 46.393081Q126.03491 44.129164 126.03491 41.865247Q126.03491 40.675731 126.95583 39.697258Q127.87674 38.718785 129.02789 38.642042Q129.64183 38.488557 130.37089 39.179243L130.7546 39.1025zM125.76631 37.260669L125.72794 37.337412V37.299041zM171.80056 38.526928Q171.8773 37.068812 171.05232 36.147896Q170.22733 35.226981 168.76921 35.265352Q166.42855 35.342095 165.58438 37.490898Q165.31578 38.296699 165.27741 38.987386Q165.04718 43.860563 164.12626 48.234912Q162.43792 48.772113 160.55772 49.769771Q162.86 42.747791 162.5914 35.380467Q162.28443 27.9364 159.71354 21.067905Q161.517 22.410907 163.55069 23.101594Q165.00881 28.934058 165.20066 34.843266Q166.62041 32.771206 169.34478 32.847949Q174.44819 32.924692 174.56331 38.335071Q174.71679 44.090792 176.09816 48.772113Q174.21796 47.92794 172.45287 47.736083Q171.91567 44.436136 171.80056 38.526928zM172.10753 48.043055Q173.18193 48.196541 174.29471 48.465141Q174.33308 48.618627 174.87028 50.613944Q177.86325 51.573231 179.89694 53.031347Q177.17257 47.198882 176.63537 40.829217Q176.32839 37.107183 174.90865 35.533953Q174.87028 35.418838 174.21796 34.958381Q173.98773 34.459551 173.33542 33.692122L173.37379 33.65375Q172.49125 32.771206 169.34478 32.502606Q168.61573 32.502606 167.19598 32.847949Q166.96575 27.9364 166.62041 25.403882Q165.85298 25.288768 164.35649 24.981796Q164.20301 24.252738 163.93441 22.75625Q160.94143 21.758592 159.06123 20.185361Q162.01583 27.360828 162.28443 35.226981Q162.5914 43.093134 160.02052 50.498829Q160.94143 49.884886 162.09257 49.386056L161.36352 51.688345Q164.50998 50.345343 166.50529 50.153486Q167.08087 44.704736 167.27272 40.714102Q167.38784 38.872271 169.34478 37.759498Q169.84361 37.490898 170.38081 37.52927Q170.5343 37.52927 170.87964 37.567641L171.3401 37.682755Q171.3401 38.06647 171.45522 38.526928Q171.6087 44.589622 172.10753 48.043055z" /></svg>