<svg xmlns:xlink="http://www.w3.org/1999/xlink" xmlns="http://www.w3.org/2000/svg" height="75" width="213" viewBox="0,0,213,75"><path d="M38.935524 35.226981Q36.709978 35.265352 35.424534 36.781026Q34.139089 38.296699 34.023975 40.598988Q33.90886 43.284991 34.753033 44.244278Q35.865806 45.510537 38.206466 45.357051Q42.849415 45.011708 43.233129 41.980361Q43.348244 41.17456 43.348244 40.368759Q43.309872 38.335071 42.158728 36.800211Q40.892469 35.188609 38.935524 35.226981zM43.808702 45.395423Q42.350585 47.582597 37.937865 47.812826Q33.717003 47.966312 32.067029 46.853539Q31.107742 45.932623 30.954256 44.205907Q30.915885 43.093134 31.107742 41.212931Q31.606571 36.876954 32.834459 35.035123Q34.484432 32.540977 38.359952 32.579349Q40.892469 32.61772 43.194758 34.958381Q43.309872 29.087544 44.921474 22.526022Q46.840048 22.103935 48.720251 21.259763Q46.072619 27.898029 45.804018 34.958381Q45.497047 42.172218 47.645849 48.810484Q46.034247 48.234912 44.307531 47.851197Q43.962187 46.508195 43.808702 45.395423zM46.87842 50.920915Q48.988851 51.496488 51.55974 53.031347Q47.799335 45.894252 47.645849 37.52927Q47.530735 29.279402 50.638825 21.835335Q49.948138 22.295793 48.490022 22.948108Q48.835365 21.796964 49.449309 20.569076Q47.031906 21.643478 44.576131 22.21905Q43.118015 28.051514 42.849415 34.190951Q40.892469 32.310749 38.359952 32.195634Q34.906519 32.08052 32.987945 34.190951Q31.261228 36.569983 30.839142 41.289674Q30.570542 44.052421 30.570542 44.474507Q30.647285 46.239595 31.798429 47.313997Q32.028658 47.544225 32.220515 47.620968L32.680973 48.273283Q33.678631 49.654657 36.671607 49.923257Q38.897152 50.076743 40.278526 50.153486Q44.499388 50.345343 46.226105 49.002342Q46.417962 49.769771 46.87842 50.920915zM40.547126 37.52927Q41.621527 37.567641 42.4657 38.06647Q42.926158 39.332729 43.002901 40.368759Q43.309872 44.627993 38.244837 44.973336Q37.362293 45.011708 36.24952 44.743107Q36.019291 44.129164 35.942549 43.591963Q35.904177 42.939648 35.942549 42.325704Q36.24952 38.872271 38.897152 37.874613Q39.856439 37.490898 40.547126 37.52927zM86.773231 48.96397L83.741884 48.810484Q81.324481 48.69537 80.51868 48.580255Q78.676849 48.234912 77.487333 47.352368Q76.182703 45.932623 75.952474 42.555933Q75.914102 42.057104 75.837359 40.829217Q75.837359 40.40713 75.760616 39.294358Q75.722245 38.450185 75.760616 37.721127Q75.952474 35.764182 76.988504 34.996752Q78.945449 33.845608 83.818627 33.615379Q85.852315 33.500264 86.658116 33.500264Q88.154604 33.500264 89.535977 33.807236Q88.960405 35.073495 88.423204 36.915326Q87.924375 36.992069 87.425546 36.953697Q87.310431 36.915326 86.773231 36.800211L85.813944 36.569983Q84.739542 36.301382 84.125599 36.339754Q79.367535 36.416497 78.753592 39.255986Q78.484991 40.40713 78.561734 41.366417Q78.71522 43.975678 79.962293 45.069265Q81.209366 46.162852 83.818627 46.201224Q85.315114 46.239595 86.044173 45.932623L87.080202 45.433794Q87.617403 45.203565 88.192975 45.126822Q88.423204 46.930282 88.806919 48.234912Q88.57669 48.618627 86.773231 48.96397zM90.034806 51.918574Q90.418521 51.956945 91.262694 52.033688Q91.915009 52.07206 92.260352 51.496488Q91.032465 49.386056 90.533635 47.275625Q90.188292 47.237254 89.727834 47.237254Q89.305748 47.237254 88.922033 47.429111Q88.57669 46.162852 88.423204 44.743107Q87.809261 44.666365 86.581373 45.241937Q85.353486 45.817509 84.854657 45.817509Q84.394199 45.85588 83.780255 45.817509Q82.85934 45.779137 80.864023 45.203565Q80.51868 44.474507 80.557051 43.323363Q80.748909 39.064129 85.737201 38.526928Q86.427887 38.526928 87.809261 38.872271Q89.190634 39.217615 89.919692 39.179243Q90.341778 36.915326 91.032465 35.073495Q90.64875 34.958381 90.265035 34.881638L89.497606 34.804895Q89.689463 34.306065 90.073178 33.423521Q88.538319 33.078178 86.965088 33.078178Q84.547685 33.078178 80.134965 33.461893Q78.178019 33.615379 76.604789 34.613037Q75.376902 35.572324 75.376902 37.490898Q75.376902 37.912984 75.492016 39.140872Q75.568759 40.176902 75.530387 40.790845Q75.568759 42.709419 76.297817 46.469824Q76.681532 47.313997 77.180361 47.812826L77.41059 48.043055H77.448961Q78.484991 50.191857 82.437254 50.805801Q85.622086 51.30463 88.30809 51.573231Q89.113891 51.649974 90.034806 51.918574zM118.66759 54.834806Q117.7083 55.026664 115.78973 55.333635Q117.09436 53.146461 118.13039 51.841831Q119.89548 52.148803 120.04896 52.148803Q120.35593 52.225546 120.89313 52.110431Q121.58382 52.033688 121.77568 52.033688Q124.34657 51.765088 124.26982 49.577914Q124.23145 48.081426 124.11634 41.788504Q124.07797 38.219956 124.15471 34.037465L125.57445 33.845608Q126.22677 33.730493 126.91746 33.500264Q126.68723 37.951356 126.7256 42.364076Q126.76397 46.776796 127.30117 51.189516Q127.37791 51.496488 127.37791 51.765088Q127.37791 53.415062 125.68957 53.798776Q122.54311 54.182491 118.66759 54.834806zM123.34891 27.284085Q124.38494 25.86434 126.22677 23.063222Q126.91746 23.984138 128.26046 25.825969L125.49771 30.430546zM128.52906 57.252209Q129.06626 57.290581 129.83369 56.945238Q130.17903 56.254551 130.17903 55.794093Q130.14066 55.410378 130.02555 54.796435Q128.68254 48.350026 128.68254 40.368759Q128.68254 37.490898 128.83603 34.574666Q128.29883 34.766523 127.14768 35.073495Q127.14768 34.574666 127.18606 34.037465L127.30117 32.963064Q125.57445 33.615379 123.77099 33.65375Q123.69425 37.989727 123.73262 41.596646L123.88611 49.539542Q123.96285 51.534859 121.77568 51.649974Q121.54545 51.649974 121.02743 51.707531Q120.50942 51.765088 120.24082 51.765088Q119.74199 51.726717 118.16876 51.30463Q117.7083 51.918574 116.59553 53.606919L115.06067 55.947579Q115.94321 55.755722 117.59319 55.372007L117.13273 56.101065L116.59553 56.75338Q118.89782 56.599894 120.24082 56.676637Q122.54311 56.830123 128.52906 57.252209zM125.45934 31.159604L125.80468 30.622404Q126.1884 31.082861 127.14768 32.694463Q128.68254 29.548002 130.25577 26.439912Q129.25812 24.82831 128.29883 23.52368Q128.10697 23.753909 127.76163 24.29111Q127.33954 23.638794 126.34188 22.334164Q125.15237 23.945766 122.81171 27.322456Q123.73262 28.550344 125.45934 31.159604zM167.48377 48.69537Q163.30128 37.375784 158.12113 32.34912Q159.57924 32.963064 162.57222 33.615379Q166.14077 37.567641 168.71165 44.28265Q171.39766 36.876954 174.04529 33.807236Q176.00224 33.65375 178.45801 32.963064Q175.27318 35.72581 173.086 40.330387Q172.74066 41.021074 169.3256 48.69537Q168.71165 48.772113 167.48377 48.69537zM172.16509 51.151144Q175.54178 38.757157 180.14636 34.037465L178.6115 34.497923Q177.84407 34.766523 176.99989 34.881638Q177.46035 34.459551 178.28534 33.577007Q179.11033 32.694463 179.57078 32.272377Q177.34524 32.924692 173.8918 33.423521Q171.16743 36.646726 169.09537 42.287333Q167.4454 38.06647 165.60357 35.572324H165.06636Q164.75939 35.533953 164.52916 35.533953Q164.33731 35.226981 162.61059 33.154921Q159.2339 32.656092 156.96998 31.504948Q163.14779 37.260669 167.1768 49.079085H168.17445Q168.55817 49.769771 169.40234 51.074401H170.78371Q171.51277 51.074401 172.16509 51.151144z" /></svg>