<svg xmlns:xlink="http://www.w3.org/1999/xlink" xmlns="http://www.w3.org/2000/svg" height="75" width="213" viewBox="0,0,213,75"><path d="M38.340766 32.656092Q39.184938 32.963064 41.180255 32.963064L41.218627 40.215273Q41.256998 44.512879 41.372113 47.429111Q41.026769 47.313997 40.643055 47.313997Q39.184938 47.313997 37.726822 48.656998Q38.532623 40.982703 38.340766 32.656092zM37.227993 24.636453Q38.762852 23.562052 39.49191 22.602765Q40.566312 24.482967 41.986056 26.171312Q41.180255 27.706171 39.798882 29.854974Q38.95471 28.665458 38.379137 27.322456zM37.189622 49.539542Q38.18728 48.426769 39.453539 47.92794Q39.453539 48.618627 39.338424 50Q40.029111 49.769771 40.681426 49.769771Q42.906972 49.769771 44.326717 51.765088Q43.060458 44.359393 43.137201 34.114208Q42.369771 34.306065 41.525599 34.42118V32.540977Q40.489569 32.656092 39.683768 32.579349Q38.839595 32.502606 37.957051 32.003777Q38.072166 34.037465 38.072166 36.109525Q38.072166 43.208248 37.189622 49.539542zM39.798882 30.468918L39.913997 30.200317L40.067482 30.046831Q40.489569 30.852632 41.525599 32.34912Q42.8686 29.970088 44.211602 26.401541Q43.329058 25.634111 41.755827 24.022509Q41.602342 24.175995 41.333741 24.636453Q40.374454 23.370194 39.453539 21.912078Q38.033794 23.600423 36.844278 23.945766Q37.957051 27.437571 39.798882 30.468918zM83.856998 47.889569Q81.976796 47.812826 80.288451 48.388398Q80.825651 44.743107 80.940766 41.596646Q81.05588 38.526928 80.825651 34.843266Q79.405907 34.459551 78.638477 34.075837L78.254762 31.04449Q79.022192 31.696805 80.633794 32.272377Q80.403565 30.123574 79.981479 27.360828Q82.283768 28.051514 83.933741 27.898029L83.818627 32.540977Q85.238371 32.464234 86.581373 31.965405Q86.543002 32.886321 86.312773 34.651409Q84.777914 34.996752 83.741884 34.996752V41.481532Q83.780255 45.702394 83.856998 47.889569zM87.003459 31.389833Q86.734859 31.504948 86.120915 31.735176L86.50463 28.934058Q85.698829 29.24103 84.279085 29.471259Q84.279085 28.780573 84.43257 27.399199Q83.818627 27.475942 83.243055 27.475942Q81.094252 27.475942 79.444278 26.746884Q79.943107 29.24103 80.211708 31.735176Q79.329164 31.389833 77.794305 30.353803Q78.139648 31.658433 78.369877 34.382808Q78.830335 34.613037 80.01985 35.035123Q80.058222 35.687439 80.096593 37.107183L80.480308 37.145555L80.595423 37.183926Q80.633794 38.411814 80.633794 39.601329Q80.633794 44.589622 79.827993 48.96397Q80.01985 48.848856 81.976796 48.311655Q82.015167 49.002342 81.900053 50.383715Q82.705854 50.306972 83.511655 50.306972Q85.238371 50.306972 86.888345 50.882544Q85.545343 45.126822 85.737201 37.145555L88.154604 36.76184Q88.231347 35.840925 88.30809 34.804895L88.499947 32.771206Q87.924375 33.039807 86.734859 33.500264Q87.041831 32.157263 86.965088 31.811919Q86.926717 31.58169 87.003459 31.389833zM126.0541 25.979455Q125.32504 26.363169 125.17155 27.16897V32.34912Q126.3227 32.34912 128.54824 32.08052Q128.50987 32.502606 128.4715 33.346778V34.613037L126.8599 34.68978Q126.0541 34.766523 125.17155 34.766523Q125.17155 38.987386 125.09481 47.429111Q122.86927 47.505854 121.37278 48.196541Q122.44718 41.980361 122.33206 34.68978Q121.67975 34.651409 120.37512 34.382808Q120.37512 33.38515 120.18326 31.428205Q121.29603 31.927034 122.25532 32.118891Q122.21695 31.466576 121.90998 28.97243Q121.67975 26.90037 121.67975 25.941083Q121.67975 24.252738 123.09949 23.677166Q123.94367 23.331823 128.81684 22.48765Q129.62265 22.334164 130.46682 22.21905Q130.23659 22.986479 130.0831 23.869023L129.77613 25.442254Q129.12382 25.288768 128.62499 25.403882Q127.97267 25.365511 126.0541 25.979455zM131.54122 27.130599Q131.88656 24.905053 132.50051 22.334164Q131.88656 22.679508 130.58193 23.293451L130.96565 21.566735Q129.73776 21.758592 127.24361 22.295793Q126.0541 22.372536 122.83089 23.293451Q121.25766 23.715537 121.25766 25.59574Q121.25766 25.902712 121.33441 26.248055Q121.56463 27.591057 121.67975 28.934058L121.87161 31.620062Q120.49023 31.236347 119.83792 30.775889Q119.95303 31.735176 119.9914 32.771206L120.10652 34.766523Q120.83558 34.958381 121.64138 35.035123V37.145555H122.02509Q121.90998 43.323363 120.91232 48.810484Q121.90998 48.311655 123.09949 48.043055L122.90764 50.115114Q124.1739 49.846514 125.47853 49.808143Q126.70641 49.769771 127.97267 50.038371Q127.1285 45.011708 127.1285 36.992069Q128.24127 36.992069 130.3517 37.068812V35.188609Q130.3517 34.229322 130.39007 33.270036Q129.89125 33.346778 128.81684 33.615379Q128.81684 32.924692 128.93196 31.58169Q128.08779 31.811919 127.28199 31.888662Q127.28199 30.468918 127.3971 29.049173Q127.55059 28.396858 128.08779 28.051514Q129.04707 27.360828 129.87206 27.284085Q130.69705 27.207342 131.54122 27.130599zM169.4599 35.342095Q165.89135 35.226981 164.77858 38.603671Q164.43324 39.716444 164.31812 40.790845Q164.08789 42.824534 165.08555 44.167535Q166.42855 45.357051 168.9227 45.395423Q170.76453 45.433794 172.18427 44.28265Q173.60402 43.131505 173.60402 41.328046Q173.60402 40.982703 173.52728 40.598988Q173.29705 35.418838 169.4599 35.342095zM169.34478 47.889569Q165.50764 48.119798 163.70418 46.086109Q163.47395 47.122139 163.01349 48.503512Q161.01817 49.23257 159.75191 49.808143Q161.97746 43.822192 161.97746 37.260669Q161.97746 28.895687 158.52403 20.991162Q160.86469 22.334164 162.20769 22.794622Q164.31812 29.471259 164.47161 35.342095Q165.96809 32.694463 169.7285 32.732835Q172.99007 32.771206 174.48656 34.651409Q176.29002 36.915326 176.44351 40.522245Q176.52025 41.711761 176.44351 43.323363Q176.40514 44.781479 175.52259 45.932623Q173.71913 47.620968 169.34478 47.889569zM174.87028 50.422086Q176.40514 50.460458 177.90162 49.769771Q179.0144 48.465141 179.05277 46.508195Q179.05277 46.009366 178.89928 44.81985Q178.82254 44.129164 178.70743 43.208248Q177.86325 38.373442 176.29002 36.301382Q176.29002 36.263011 175.48422 35.380467Q175.25399 35.111866 174.71679 34.306065Q173.10519 32.34912 169.7285 32.387492Q167.65644 32.425863 166.39018 33.039807Q166.04484 28.473601 165.43089 25.250397Q164.70184 25.096911 163.20535 24.713196Q163.05186 23.945766 162.5914 22.48765Q160.13563 21.681849 157.87171 20.108618Q161.67049 28.358486 161.67049 37.222298Q161.67049 44.244278 159.17634 50.498829Q159.86703 50.153486 161.21003 49.577914Q160.9798 50.345343 160.36586 51.880202Q162.36118 50.959287 165.16229 50.422086L165.54601 48.580255Q167.88667 50.306972 174.87028 50.422086zM171.0715 37.644384Q172.10753 37.644384 172.64473 38.028099Q172.9517 38.526928 173.18193 40.560616Q173.41216 42.47919 172.1459 43.803006Q170.87964 45.126822 168.9227 45.011708Q168.00178 45.165194 166.50529 44.666365Q166.27507 44.167535 166.27507 43.630335Q166.27507 40.522245 167.8483 38.910643H167.80993Q169.30641 37.567641 171.0715 37.644384z" /></svg>