<svg xmlns:xlink="http://www.w3.org/1999/xlink" xmlns="http://www.w3.org/2000/svg" height="75" width="213" viewBox="0,0,213,75"><path d="M37.496593 21.605106Q38.379137 23.562052 40.067482 23.907395Q40.604683 24.022509 41.29537 23.830652Q41.103512 29.816602 41.026769 35.72581Q40.988398 41.558275 41.218627 47.544225Q40.950026 47.505854 40.643055 47.505854Q39.069824 47.505854 37.765194 49.347685Q38.45588 42.364076 38.417509 35.45721Q38.340766 28.511972 37.496593 21.605106zM37.343107 50.498829Q38.417509 48.656998 39.49191 48.196541Q39.415167 49.23257 39.415167 50.230229Q40.144225 49.846514 40.950026 49.961629Q42.983715 50.2686 44.211602 52.992975Q43.022086 45.395423 43.022086 37.874613Q43.022086 30.085203 43.866259 22.717879Q42.8686 24.636453 41.717456 25.250397Q41.717456 24.214367 41.794199 23.139965Q40.988398 23.638794 40.220968 23.485309Q37.995423 23.063222 36.997764 20.185361Q38.033794 27.744543 38.110537 35.342095Q38.225651 42.901277 37.343107 50.498829zM79.098935 40.944331Q78.945449 43.783821 77.755933 48.465141Q75.952474 49.002342 74.340872 49.808143Q76.988504 42.747791 76.719903 35.265352Q76.412931 27.782914 73.304842 20.991162Q75.300159 22.295793 77.180361 22.871365Q79.329164 29.893345 79.329164 36.608354Q79.329164 38.06647 79.252421 39.562958Q80.403565 38.335071 85.660458 33.346778Q86.773231 33.346778 87.770889 33.270036L89.842949 33.078178Q86.696488 36.147896 82.360511 39.946673Q85.737201 42.709419 92.260352 48.580255Q89.535977 47.697711 86.543002 47.505854Q84.010484 45.395423 79.098935 40.944331zM89.075519 50.191857Q93.833583 51.03603 96.980044 52.992975Q95.790528 51.688345 93.142896 49.270942Q93.373125 49.347685 93.641725 49.462799Q91.531294 47.429111 89.267377 45.510537L84.816285 41.596646Q89.804577 37.337412 92.260352 34.42118Q91.032465 34.497923 88.538319 34.766523Q90.149921 33.308407 90.840607 32.464234Q88.039489 32.963064 85.545343 32.963064Q84.125599 34.267694 81.362852 36.953697Q81.362852 31.121233 80.365194 25.250397Q79.636136 25.058539 78.139648 24.789939Q77.986162 24.060881 77.525704 22.564393Q74.878072 21.758592 72.614155 20.185361Q76.067588 27.053856 76.412931 35.226981Q76.758275 43.208248 73.726928 50.498829Q74.417615 50.191857 75.760616 49.539542Q75.530387 50.383715 74.878072 51.841831Q77.717562 50.729058 79.866365 50.345343Q80.441937 47.812826 80.940766 43.51522Q83.588398 45.817509 89.075519 50.191857zM129.10463 38.526928Q128.98952 37.299041 127.03257 36.569983Q126.53374 36.378125 125.99654 36.378125Q124.61517 36.378125 123.54077 36.953697Q122.15939 37.682755 122.27451 38.910643Q122.61985 41.750132 122.46636 44.014049Q122.31288 46.469824 121.58382 49.002342Q119.43502 49.501171 118.2455 49.923257Q119.8571 46.277967 119.8571 42.248961Q119.8571 36.76184 117.24784 32.272377Q118.47573 32.771206 120.89313 33.500264Q121.20011 34.229322 121.58382 35.764182Q122.92682 33.65375 126.84071 33.730493Q128.3372 33.768865 129.143 33.883979Q132.13598 34.267694 132.21272 36.301382Q132.25109 37.222298 132.05923 38.258328Q131.59878 40.790845 131.79063 43.822192Q131.94412 46.700053 132.94178 49.270942Q131.21506 48.848856 129.48835 48.69537Q129.02789 46.316338 128.95114 43.630335Q128.8744 40.867588 129.10463 38.526928zM129.10463 49.040713Q129.91043 49.040713 131.21506 49.270942L131.59878 50.345343Q131.79063 50.844173 132.02086 51.381373Q134.32315 51.803459 137.04753 52.992975Q134.66849 49.846514 133.97781 46.009366Q133.63246 43.860563 133.74758 40.13853Q133.74758 39.831558 133.78595 39.025757Q133.86269 38.411814 133.78595 37.912984Q133.67084 36.224639 132.55806 35.72581Q132.40458 34.881638 131.63715 34.267694Q129.91043 33.231664 126.84071 33.308407Q124.96051 33.346778 124.11634 33.538636Q122.65822 33.883979 121.69893 34.804895Q121.58382 34.267694 121.20011 33.231664Q118.36062 32.540977 116.51879 31.543319Q119.5885 36.454868 119.5885 42.248961Q119.5885 46.661681 117.66993 50.537201Q118.36062 50.230229 119.66525 49.846514Q119.16642 51.112773 118.62922 52.110431Q120.04896 51.649974 123.61751 51.074401Q124.61517 45.894252 124.50005 41.021074Q124.46168 40.176902 125.6512 39.447843Q126.68723 38.795528 127.8 38.680414Q128.26046 38.642042 128.68254 38.8339Q128.52906 41.404789 128.56743 43.975678Q128.6058 46.508195 129.10463 49.040713zM168.67328 36.416497Q166.10239 36.378125 164.79776 37.52927Q163.33965 38.757157 163.53151 41.289674Q163.80011 44.244278 164.98962 45.31868Q166.48611 46.62331 168.59654 46.469824Q170.74534 46.469824 172.16509 45.203565Q173.50809 44.052421 173.69995 41.481532Q174.08366 36.531611 168.67328 36.416497zM168.5198 49.040713H166.94657Q164.06871 49.040713 162.57222 47.620968Q161.57456 46.584938 161.30596 44.627993Q161.15247 43.51522 160.99899 41.289674Q160.92224 40.292016 160.80713 38.028099Q160.73039 36.147896 161.68967 34.996752Q163.45476 33.500264 168.21283 33.65375Q173.16275 33.807236 175.00458 35.342095Q176.50107 36.569983 176.30921 39.793187Q176.07898 43.361734 176.00224 43.783821Q175.69526 46.086109 174.35226 47.275625Q172.35695 49.040713 168.5198 49.040713zM173.23949 51.458116Q174.73598 51.496488 176.65455 51.343002Q177.15338 51.266259 177.15338 51.112773Q177.15338 51.03603 177.11501 50.882544Q177.07664 50.729058 177.07664 50.613944Q177.07664 50.345343 177.42198 50.038371Q178.30452 48.887227 178.30452 46.968653Q178.30452 46.009366 178.2086 43.572777Q178.11267 41.136189 177.95918 40.023416Q177.57547 37.874613 176.65455 36.723469L176.34758 36.531611Q176.19409 35.879296 175.38829 34.958381Q173.086 33.231664 168.13608 33.231664H166.37099Q163.03268 33.231664 161.30596 34.613037Q160.42342 35.72581 160.46179 37.759498Q160.50016 38.219956 160.63446 39.486215Q160.76876 40.752474 160.73039 41.212931Q160.96062 44.28265 161.03736 44.743107Q161.3827 46.853539 162.30362 48.004683L162.4571 48.234912Q163.30128 50.729058 167.06168 51.151144Q167.94423 51.266259 173.23949 51.458116zM170.51511 38.718785Q171.39766 38.757157 173.086 39.294358Q173.43135 40.023416 173.39298 41.519903Q173.27786 45.011708 170.36163 45.779137Q169.63257 45.970995 168.59654 46.086109Q167.56051 46.162852 165.83379 45.548909Q165.56519 44.81985 165.60357 43.323363Q165.68031 40.982703 167.06168 39.946673Q167.94423 39.025757 170.51511 38.718785z" /></svg>