<svg xmlns:xlink="http://www.w3.org/1999/xlink" xmlns="http://www.w3.org/2000/svg" height="75" width="213" viewBox="0,0,213,75"><path d="M38.993081 37.490898Q38.724481 37.452527 38.417509 37.452527Q37.074507 37.452527 35.616391 38.296699Q34.273389 39.409472 34.273389 41.328046Q34.273389 44.781479 35.808248 46.124481Q36.767535 47.313997 39.069824 47.313997Q39.338424 47.352368 39.645396 47.352368Q41.372113 47.352368 42.523257 45.702394Q43.559287 44.167535 43.482544 42.364076Q43.559287 41.903618 43.559287 41.481532Q43.559287 39.678072 42.177914 38.507742Q40.796541 37.337412 38.993081 37.490898zM43.520915 47.736083Q42.523257 49.693028 38.762852 49.808143Q35.309419 49.884886 33.697817 48.273283Q32.239701 46.508195 31.4339 41.673389Q31.126928 39.908301 31.126928 38.642042Q31.126928 36.838583 31.855986 35.764182Q33.237359 34.382808 36.230335 34.382808Q42.6 34.382808 44.518574 36.992069Q44.710431 36.186268 45.132518 34.574666Q46.398776 34.267694 48.854551 33.461893Q46.398776 39.140872 46.168547 45.510537Q45.938319 51.726717 48.087121 57.597553Q46.360405 56.983609 44.556945 56.715009Q43.63603 52.724375 43.520915 47.736083zM44.288345 57.021981Q45.017403 57.175466 46.437148 57.482438Q46.667377 58.211496 47.242949 59.631241Q49.852209 60.360299 52.154498 61.664929Q48.087121 55.026664 48.087121 46.431453Q48.087121 40.023416 50.581267 34.190951Q49.890581 34.497923 48.509208 35.150238Q48.816179 34.344437 49.468495 32.771206Q47.933635 33.346778 44.710431 34.229322Q44.595317 34.804895 44.288345 35.99441Q42.254657 34.075837 36.076849 33.922351Q32.853645 33.845608 31.472271 35.342095Q30.704842 36.49324 30.743213 38.411814Q30.858328 41.44316 31.855986 45.241937Q32.508301 47.65934 33.429217 48.618627L33.812931 49.002342Q35.002447 51.803459 40.489569 52.033688Q41.525599 52.07206 43.36743 51.765088Q43.674401 54.719692 44.288345 57.021981zM40.873283 39.793187Q41.986056 39.831558 42.830229 40.13853Q43.022086 40.675731 43.137201 41.289674Q43.213944 41.826875 43.137201 42.440819Q43.137201 44.359393 42.101171 45.664023Q40.950026 47.122139 39.069824 46.930282Q37.765194 46.930282 36.805907 46.508195Q36.460563 45.702394 36.460563 44.474507Q36.422192 44.129164 36.422192 43.822192Q36.422192 42.057104 37.765194 40.886774Q39.108195 39.716444 40.873283 39.793187zM86.600559 38.526928Q86.677302 37.068812 85.852315 36.147896Q85.027328 35.226981 83.569212 35.265352Q81.228552 35.342095 80.384379 37.490898Q80.115779 38.296699 80.077408 38.987386Q79.847179 43.860563 78.926263 48.234912Q77.237918 48.772113 75.357716 49.769771Q77.660005 42.747791 77.391404 35.380467Q77.084432 27.9364 74.513543 21.067905Q76.317003 22.410907 78.350691 23.101594Q79.808807 28.934058 80.000665 34.843266Q81.420409 32.771206 84.144784 32.847949Q89.248191 32.924692 89.363305 38.335071Q89.516791 44.090792 90.898165 48.772113Q89.017962 47.92794 87.252874 47.736083Q86.715673 44.436136 86.600559 38.526928zM86.907531 48.043055Q87.981932 48.196541 89.094705 48.465141Q89.133077 48.618627 89.670277 50.613944Q92.663253 51.573231 94.696941 53.031347Q91.972566 47.198882 91.435365 40.829217Q91.128393 37.107183 89.708649 35.533953Q89.670277 35.418838 89.017962 34.958381Q88.787733 34.459551 88.135418 33.692122L88.17379 33.65375Q87.291246 32.771206 84.144784 32.502606Q83.415726 32.502606 81.995982 32.847949Q81.765753 27.9364 81.420409 25.403882Q80.65298 25.288768 79.156492 24.981796Q79.003006 24.252738 78.734406 22.75625Q75.741431 21.758592 73.861228 20.185361Q76.815832 27.360828 77.084432 35.226981Q77.391404 43.093134 74.820515 50.498829Q75.741431 49.884886 76.892575 49.386056L76.163517 51.688345Q79.309978 50.345343 81.305295 50.153486Q81.880867 44.704736 82.072725 40.714102Q82.187839 38.872271 84.144784 37.759498Q84.643614 37.490898 85.180814 37.52927Q85.3343 37.52927 85.679643 37.567641L86.140101 37.682755Q86.140101 38.06647 86.255216 38.526928Q86.408702 44.589622 86.907531 48.043055zM119.0513 57.405695Q121.96754 53.491805 124.88377 47.237254Q121.73731 40.637359 115.59787 32.502606Q117.51644 33.65375 120.31756 34.306065Q123.88611 39.025757 126.34188 44.28265Q128.52906 38.949014 131.63715 34.497923Q133.86269 34.152579 135.97312 33.346778Q132.51969 37.183926 129.02789 44.666365L126.1884 50.729058Q124.73028 53.875519 122.96519 56.523151Q120.50942 56.868495 119.0513 57.405695zM125.26748 58.748697Q126.9942 55.832465 128.45232 52.532518L131.21506 46.162852Q134.74524 38.06647 138.08356 34.037465Q136.74055 34.728152 134.82198 35.418838L135.85801 33.999094Q136.39521 33.270036 137.00915 32.579349Q134.32315 33.65375 131.44529 34.114208Q128.68254 38.06647 126.7256 42.555933Q125.07563 39.217615 123.27217 36.378125Q123.08031 36.378125 122.71578 36.339754Q122.35125 36.301382 122.15939 36.301382Q121.39196 35.035123 120.43268 33.883979Q117.24784 33.231664 114.4851 31.504948Q120.77802 39.562958 124.50005 47.237254Q122.31288 52.34066 118.20713 58.019639Q119.0513 57.751039 119.8571 57.597553L121.46871 57.213838Q120.85476 57.942896 119.66525 59.59287Q121.96754 58.978926 125.26748 58.748697zM166.14077 32.656092Q166.98494 32.963064 168.98026 32.963064L169.01863 40.215273Q169.057 44.512879 169.17211 47.429111Q168.82677 47.313997 168.44305 47.313997Q166.98494 47.313997 165.52682 48.656998Q166.33262 40.982703 166.14077 32.656092zM165.02799 24.636453Q166.56285 23.562052 167.29191 22.602765Q168.36631 24.482967 169.78606 26.171312Q168.98026 27.706171 167.59888 29.854974Q166.75471 28.665458 166.17914 27.322456zM164.98962 49.539542Q165.98728 48.426769 167.25354 47.92794Q167.25354 48.618627 167.13842 50Q167.82911 49.769771 168.48143 49.769771Q170.70697 49.769771 172.12672 51.765088Q170.86046 44.359393 170.9372 34.114208Q170.16977 34.306065 169.3256 34.42118V32.540977Q168.28957 32.656092 167.48377 32.579349Q166.6396 32.502606 165.75705 32.003777Q165.87217 34.037465 165.87217 36.109525Q165.87217 43.208248 164.98962 49.539542zM167.59888 30.468918L167.714 30.200317L167.86748 30.046831Q168.28957 30.852632 169.3256 32.34912Q170.6686 29.970088 172.0116 26.401541Q171.12906 25.634111 169.55583 24.022509Q169.40234 24.175995 169.13374 24.636453Q168.17445 23.370194 167.25354 21.912078Q165.83379 23.600423 164.64428 23.945766Q165.75705 27.437571 167.59888 30.468918z" /></svg>