<svg xmlns:xlink="http://www.w3.org/1999/xlink" xmlns="http://www.w3.org/2000/svg" height="75" width="213" viewBox="0,0,213,75"><path d="M37.496593 21.605106Q38.379137 23.562052 40.067482 23.907395Q40.604683 24.022509 41.29537 23.830652Q41.103512 29.816602 41.026769 35.72581Q40.988398 41.558275 41.218627 47.544225Q40.950026 47.505854 40.643055 47.505854Q39.069824 47.505854 37.765194 49.347685Q38.45588 42.364076 38.417509 35.45721Q38.340766 28.511972 37.496593 21.605106zM37.343107 50.498829Q38.417509 48.656998 39.49191 48.196541Q39.415167 49.23257 39.415167 50.230229Q40.144225 49.846514 40.950026 49.961629Q42.983715 50.2686 44.211602 52.992975Q43.022086 45.395423 43.022086 37.874613Q43.022086 30.085203 43.866259 22.717879Q42.8686 24.636453 41.717456 25.250397Q41.717456 24.214367 41.794199 23.139965Q40.988398 23.638794 40.220968 23.485309Q37.995423 23.063222 36.997764 20.185361Q38.033794 27.744543 38.110537 35.342095Q38.225651 42.901277 37.343107 50.498829zM82.398882 48.848856H80.672166Q77.257104 48.848856 76.297817 46.700053Q77.487333 45.664023 78.945449 44.55125Q79.521021 46.738424 82.398882 46.584938Q83.204683 46.546567 84.240713 46.316338Q85.161629 45.779137 85.084886 44.81985Q85.008143 43.707078 83.204683 43.016391L79.367535 41.481532Q77.026875 40.13853 76.681532 36.569983Q76.489674 34.42118 78.676849 33.845608Q79.636136 33.615379 82.629111 33.615379Q87.54066 33.615379 88.461576 36.147896Q87.809261 36.685097 87.080202 37.145555L85.660458 38.104842Q85.161629 36.186268 81.900053 35.956039Q81.324481 35.99441 80.288451 36.416497Q79.712879 36.76184 79.712879 37.874613Q80.058222 38.949014 81.900053 39.639701Q82.974454 40.023416 85.660458 41.136189Q87.502289 41.980361 87.694146 44.55125Q87.770889 45.203565 87.694146 46.201224Q87.655775 47.083768 87.080202 47.736083Q85.4686 48.848856 82.398882 48.848856zM87.195317 51.458116Q88.116232 51.496488 89.497606 51.189516Q90.572007 50.498829 90.38015 49.270942Q90.303407 48.69537 89.996435 47.083768Q89.459234 44.129164 87.655775 42.901277Q87.118574 41.481532 85.852315 40.752474Q84.586056 40.330387 82.09191 39.371101Q82.245396 38.910643 82.513997 38.795528Q83.12794 38.335071 83.780255 38.296699Q84.586056 38.258328 85.353486 38.526928L85.391857 38.642042L85.4686 38.603671L85.737201 38.680414H85.698829Q86.811602 39.179243 87.003459 40.445502Q88.269718 39.601329 90.188292 37.912984Q89.919692 37.183926 88.922033 35.99441Q87.770889 33.270036 82.629111 33.154921Q79.444278 33.11655 77.448961 33.692122Q76.029217 34.267694 76.259446 36.378125Q76.37456 37.644384 77.295475 39.754815Q77.832676 40.867588 78.868706 41.596646Q79.559393 43.093134 80.864023 43.783821Q81.82331 44.052421 82.782597 44.436136L84.701171 45.203565Q84.355827 46.316338 82.398882 46.201224Q81.976796 46.277967 80.748909 45.970995L80.710537 45.779137L80.595423 45.894252Q79.712879 45.510537 79.060563 44.014049Q76.911761 45.58728 75.798988 46.738424Q76.067588 47.620968 77.103618 48.426769L76.950132 48.580255Q78.408248 50.729058 82.667482 51.112773Q83.933741 51.227887 87.195317 51.458116zM119.0513 57.405695Q121.96754 53.491805 124.88377 47.237254Q121.73731 40.637359 115.59787 32.502606Q117.51644 33.65375 120.31756 34.306065Q123.88611 39.025757 126.34188 44.28265Q128.52906 38.949014 131.63715 34.497923Q133.86269 34.152579 135.97312 33.346778Q132.51969 37.183926 129.02789 44.666365L126.1884 50.729058Q124.73028 53.875519 122.96519 56.523151Q120.50942 56.868495 119.0513 57.405695zM125.26748 58.748697Q126.9942 55.832465 128.45232 52.532518L131.21506 46.162852Q134.74524 38.06647 138.08356 34.037465Q136.74055 34.728152 134.82198 35.418838L135.85801 33.999094Q136.39521 33.270036 137.00915 32.579349Q134.32315 33.65375 131.44529 34.114208Q128.68254 38.06647 126.7256 42.555933Q125.07563 39.217615 123.27217 36.378125Q123.08031 36.378125 122.71578 36.339754Q122.35125 36.301382 122.15939 36.301382Q121.39196 35.035123 120.43268 33.883979Q117.24784 33.231664 114.4851 31.504948Q120.77802 39.562958 124.50005 47.237254Q122.31288 52.34066 118.20713 58.019639Q119.0513 57.751039 119.8571 57.597553L121.46871 57.213838Q120.85476 57.942896 119.66525 59.59287Q121.96754 58.978926 125.26748 58.748697zM169.057 47.889569Q167.1768 47.812826 165.48845 48.388398Q166.02565 44.743107 166.14077 41.596646Q166.25588 38.526928 166.02565 34.843266Q164.60591 34.459551 163.83848 34.075837L163.45476 31.04449Q164.22219 31.696805 165.83379 32.272377Q165.60357 30.123574 165.18148 27.360828Q167.48377 28.051514 169.13374 27.898029L169.01863 32.540977Q170.43837 32.464234 171.78137 31.965405Q171.743 32.886321 171.51277 34.651409Q169.97791 34.996752 168.94188 34.996752V41.481532Q168.98026 45.702394 169.057 47.889569zM172.20346 31.389833Q171.93486 31.504948 171.32092 31.735176L171.70463 28.934058Q170.89883 29.24103 169.47908 29.471259Q169.47908 28.780573 169.63257 27.399199Q169.01863 27.475942 168.44305 27.475942Q166.29425 27.475942 164.64428 26.746884Q165.14311 29.24103 165.41171 31.735176Q164.52916 31.389833 162.9943 30.353803Q163.33965 31.658433 163.56988 34.382808Q164.03033 34.613037 165.21985 35.035123Q165.25822 35.687439 165.29659 37.107183L165.68031 37.145555L165.79542 37.183926Q165.83379 38.411814 165.83379 39.601329Q165.83379 44.589622 165.02799 48.96397Q165.21985 48.848856 167.1768 48.311655Q167.21517 49.002342 167.10005 50.383715Q167.90585 50.306972 168.71165 50.306972Q170.43837 50.306972 172.08835 50.882544Q170.74534 45.126822 170.9372 37.145555L173.3546 36.76184Q173.43135 35.840925 173.50809 34.804895L173.69995 32.771206Q173.12437 33.039807 171.93486 33.500264Q172.24183 32.157263 172.16509 31.811919Q172.12672 31.58169 172.20346 31.389833z" /></svg>