<svg xmlns:xlink="http://www.w3.org/1999/xlink" xmlns="http://www.w3.org/2000/svg" height="75" width="213" viewBox="0,0,213,75"><path d="M38.801224 36.531611Q36.230335 36.531611 35.194305 37.721127Q34.158275 38.910643 34.158275 41.558275Q34.158275 46.700053 38.801224 46.508195Q40.911655 46.700053 42.273842 45.126822Q43.63603 43.553592 43.405801 41.481532Q43.405801 38.910643 42.523257 37.874613Q41.026769 36.531611 38.801224 36.531611zM43.866259 46.393081Q42.676743 48.887227 37.957051 48.887227H36.498935Q34.119903 48.887227 33.00713 47.736083Q31.971101 46.700053 31.7025 44.28265Q31.549014 42.786162 31.472271 40.982703Q31.4339 39.985044 31.280414 38.028099Q31.165299 33.692122 36.383821 33.692122H37.957051Q40.873283 33.692122 42.983715 34.996752Q43.789516 35.495581 44.288345 36.186268Q44.556945 35.380467 45.094146 33.730493Q46.322033 33.538636 48.662694 32.924692Q46.053433 37.183926 46.053433 42.47919Q46.053433 46.239595 47.434806 49.347685Q46.283662 49.040713 44.365088 48.810484Q44.173231 47.966312 43.866259 46.393081zM47.204577 51.649974L49.430123 52.225546Q50.65801 52.532518 51.655669 52.992975Q47.972007 48.618627 47.972007 42.47919Q47.972007 37.912984 50.12081 34.075837Q49.468495 34.306065 48.125493 34.68978Q48.470836 33.922351 49.35338 32.387492Q48.777808 32.579349 44.748803 33.423521L44.173231 35.265352Q42.369771 33.500264 37.91868 33.270036Q36.805907 33.308407 34.54199 33.461893Q30.819956 33.807236 30.935071 37.874613Q31.050185 41.212931 31.625757 45.702394L31.664129 46.162852Q31.779243 47.007025 32.585044 48.119798Q32.73853 48.273283 32.930387 48.388398Q33.198988 48.887227 33.582703 49.462799Q35.002447 50.997658 38.417509 51.189516Q40.067482 51.30463 40.220968 51.30463H41.794199Q45.017403 51.30463 46.24529 49.7314Q46.590634 50.345343 47.204577 51.649974zM40.604683 38.795528Q41.947685 38.795528 42.791857 39.255986Q43.098829 40.061787 43.098829 41.519903Q43.290687 43.438477 42.005242 44.877408Q40.719798 46.316338 38.801224 46.124481Q37.343107 46.124481 36.307078 45.702394Q36.11522 44.858222 36.11522 43.630335Q36.230335 40.061787 38.877967 39.1025Q39.798882 38.795528 40.604683 38.795528zM82.398882 48.848856H80.672166Q77.257104 48.848856 76.297817 46.700053Q77.487333 45.664023 78.945449 44.55125Q79.521021 46.738424 82.398882 46.584938Q83.204683 46.546567 84.240713 46.316338Q85.161629 45.779137 85.084886 44.81985Q85.008143 43.707078 83.204683 43.016391L79.367535 41.481532Q77.026875 40.13853 76.681532 36.569983Q76.489674 34.42118 78.676849 33.845608Q79.636136 33.615379 82.629111 33.615379Q87.54066 33.615379 88.461576 36.147896Q87.809261 36.685097 87.080202 37.145555L85.660458 38.104842Q85.161629 36.186268 81.900053 35.956039Q81.324481 35.99441 80.288451 36.416497Q79.712879 36.76184 79.712879 37.874613Q80.058222 38.949014 81.900053 39.639701Q82.974454 40.023416 85.660458 41.136189Q87.502289 41.980361 87.694146 44.55125Q87.770889 45.203565 87.694146 46.201224Q87.655775 47.083768 87.080202 47.736083Q85.4686 48.848856 82.398882 48.848856zM87.195317 51.458116Q88.116232 51.496488 89.497606 51.189516Q90.572007 50.498829 90.38015 49.270942Q90.303407 48.69537 89.996435 47.083768Q89.459234 44.129164 87.655775 42.901277Q87.118574 41.481532 85.852315 40.752474Q84.586056 40.330387 82.09191 39.371101Q82.245396 38.910643 82.513997 38.795528Q83.12794 38.335071 83.780255 38.296699Q84.586056 38.258328 85.353486 38.526928L85.391857 38.642042L85.4686 38.603671L85.737201 38.680414H85.698829Q86.811602 39.179243 87.003459 40.445502Q88.269718 39.601329 90.188292 37.912984Q89.919692 37.183926 88.922033 35.99441Q87.770889 33.270036 82.629111 33.154921Q79.444278 33.11655 77.448961 33.692122Q76.029217 34.267694 76.259446 36.378125Q76.37456 37.644384 77.295475 39.754815Q77.832676 40.867588 78.868706 41.596646Q79.559393 43.093134 80.864023 43.783821Q81.82331 44.052421 82.782597 44.436136L84.701171 45.203565Q84.355827 46.316338 82.398882 46.201224Q81.976796 46.277967 80.748909 45.970995L80.710537 45.779137L80.595423 45.894252Q79.712879 45.510537 79.060563 44.014049Q76.911761 45.58728 75.798988 46.738424Q76.067588 47.620968 77.103618 48.426769L76.950132 48.580255Q78.408248 50.729058 82.667482 51.112773Q83.933741 51.227887 87.195317 51.458116zM123.54077 32.656092Q124.38494 32.963064 126.38026 32.963064L126.41863 40.215273Q126.457 44.512879 126.57211 47.429111Q126.22677 47.313997 125.84305 47.313997Q124.38494 47.313997 122.92682 48.656998Q123.73262 40.982703 123.54077 32.656092zM122.42799 24.636453Q123.96285 23.562052 124.69191 22.602765Q125.76631 24.482967 127.18606 26.171312Q126.38026 27.706171 124.99888 29.854974Q124.15471 28.665458 123.57914 27.322456zM122.38962 49.539542Q123.38728 48.426769 124.65354 47.92794Q124.65354 48.618627 124.53842 50Q125.22911 49.769771 125.88143 49.769771Q128.10697 49.769771 129.52672 51.765088Q128.26046 44.359393 128.3372 34.114208Q127.56977 34.306065 126.7256 34.42118V32.540977Q125.68957 32.656092 124.88377 32.579349Q124.0396 32.502606 123.15705 32.003777Q123.27217 34.037465 123.27217 36.109525Q123.27217 43.208248 122.38962 49.539542zM124.99888 30.468918L125.114 30.200317L125.26748 30.046831Q125.68957 30.852632 126.7256 32.34912Q128.0686 29.970088 129.4116 26.401541Q128.52906 25.634111 126.95583 24.022509Q126.80234 24.175995 126.53374 24.636453Q125.57445 23.370194 124.65354 21.912078Q123.23379 23.600423 122.04428 23.945766Q123.15705 27.437571 124.99888 30.468918zM169.057 47.889569Q167.1768 47.812826 165.48845 48.388398Q166.02565 44.743107 166.14077 41.596646Q166.25588 38.526928 166.02565 34.843266Q164.60591 34.459551 163.83848 34.075837L163.45476 31.04449Q164.22219 31.696805 165.83379 32.272377Q165.60357 30.123574 165.18148 27.360828Q167.48377 28.051514 169.13374 27.898029L169.01863 32.540977Q170.43837 32.464234 171.78137 31.965405Q171.743 32.886321 171.51277 34.651409Q169.97791 34.996752 168.94188 34.996752V41.481532Q168.98026 45.702394 169.057 47.889569zM172.20346 31.389833Q171.93486 31.504948 171.32092 31.735176L171.70463 28.934058Q170.89883 29.24103 169.47908 29.471259Q169.47908 28.780573 169.63257 27.399199Q169.01863 27.475942 168.44305 27.475942Q166.29425 27.475942 164.64428 26.746884Q165.14311 29.24103 165.41171 31.735176Q164.52916 31.389833 162.9943 30.353803Q163.33965 31.658433 163.56988 34.382808Q164.03033 34.613037 165.21985 35.035123Q165.25822 35.687439 165.29659 37.107183L165.68031 37.145555L165.79542 37.183926Q165.83379 38.411814 165.83379 39.601329Q165.83379 44.589622 165.02799 48.96397Q165.21985 48.848856 167.1768 48.311655Q167.21517 49.002342 167.10005 50.383715Q167.90585 50.306972 168.71165 50.306972Q170.43837 50.306972 172.08835 50.882544Q170.74534 45.126822 170.9372 37.145555L173.3546 36.76184Q173.43135 35.840925 173.50809 34.804895L173.69995 32.771206Q173.12437 33.039807 171.93486 33.500264Q172.24183 32.157263 172.16509 31.811919Q172.12672 31.58169 172.20346 31.389833z" /></svg>