<svg xmlns:xlink="http://www.w3.org/1999/xlink" xmlns="http://www.w3.org/2000/svg" height="75" width="213" viewBox="0,0,213,75"><path d="M39.683768 48.69537Q35.501277 37.375784 30.321127 32.34912Q31.779243 32.963064 34.772218 33.615379Q38.340766 37.567641 40.911655 44.28265Q43.597658 36.876954 46.24529 33.807236Q48.202236 33.65375 50.65801 32.963064Q47.473178 35.72581 45.286003 40.330387Q44.94066 41.021074 41.525599 48.69537Q40.911655 48.772113 39.683768 48.69537zM44.365088 51.151144Q47.741778 38.757157 52.346355 34.037465L50.811496 34.497923Q50.044067 34.766523 49.199894 34.881638Q49.660352 34.459551 50.485339 33.577007Q51.310326 32.694463 51.770783 32.272377Q49.545238 32.924692 46.091805 33.423521Q43.36743 36.646726 41.29537 42.287333Q39.645396 38.06647 37.803565 35.572324H37.266365Q36.959393 35.533953 36.729164 35.533953Q36.537306 35.226981 34.81059 33.154921Q31.4339 32.656092 29.169983 31.504948Q35.347791 37.260669 39.376796 49.079085H40.374454Q40.758169 49.769771 41.602342 51.074401H42.983715Q43.712773 51.074401 44.365088 51.151144zM83.454098 25.979455Q82.72504 26.363169 82.571554 27.16897V32.34912Q83.722698 32.34912 85.948244 32.08052Q85.909872 32.502606 85.871501 33.346778V34.613037L84.259899 34.68978Q83.454098 34.766523 82.571554 34.766523Q82.571554 38.987386 82.494811 47.429111Q80.269265 47.505854 78.772777 48.196541Q79.847179 41.980361 79.732064 34.68978Q79.079749 34.651409 77.775119 34.382808Q77.775119 33.38515 77.583262 31.428205Q78.696034 31.927034 79.655321 32.118891Q79.61695 31.466576 79.309978 28.97243Q79.079749 26.90037 79.079749 25.941083Q79.079749 24.252738 80.499494 23.677166Q81.343666 23.331823 86.216844 22.48765Q87.022645 22.334164 87.866818 22.21905Q87.636589 22.986479 87.483103 23.869023L87.176131 25.442254Q86.523816 25.288768 86.024987 25.403882Q85.372672 25.365511 83.454098 25.979455zM88.941219 27.130599Q89.286562 24.905053 89.900506 22.334164Q89.286562 22.679508 87.981932 23.293451L88.365647 21.566735Q87.13776 21.758592 84.643614 22.295793Q83.454098 22.372536 80.230894 23.293451Q78.657663 23.715537 78.657663 25.59574Q78.657663 25.902712 78.734406 26.248055Q78.964635 27.591057 79.079749 28.934058L79.271607 31.620062Q77.890233 31.236347 77.237918 30.775889Q77.353033 31.735176 77.391404 32.771206L77.506519 34.766523Q78.235577 34.958381 79.041378 35.035123V37.145555H79.425093Q79.309978 43.323363 78.31232 48.810484Q79.309978 48.311655 80.499494 48.043055L80.307637 50.115114Q81.573895 49.846514 82.878526 49.808143Q84.106413 49.769771 85.372672 50.038371Q84.528499 45.011708 84.528499 36.992069Q85.641272 36.992069 87.751703 37.068812V35.188609Q87.751703 34.229322 87.790075 33.270036Q87.291246 33.346778 86.216844 33.615379Q86.216844 32.924692 86.331959 31.58169Q85.487786 31.811919 84.681985 31.888662Q84.681985 30.468918 84.797099 29.049173Q84.950585 28.396858 85.487786 28.051514Q86.447073 27.360828 87.27206 27.284085Q88.097047 27.207342 88.941219 27.130599zM133.63246 37.951356Q133.78595 37.606013 133.74758 37.183926Q133.63246 36.76184 133.32549 36.569983Q132.59643 35.99441 131.71389 36.147896Q130.63949 36.147896 128.98952 37.260669Q127.56977 38.181585 127.56977 39.371101V43.975678Q127.5314 46.546567 127.68489 48.580255H125.95817Q124.96051 48.541884 124.23145 48.618627Q124.65354 46.086109 124.73028 43.822192Q124.88377 39.140872 124.23145 37.836241Q123.96285 37.260669 123.38728 36.953697Q122.54311 36.224639 120.96988 36.109525Q118.93619 35.879296 118.39899 37.490898Q118.2455 37.989727 118.36062 38.488557Q119.01293 41.251303 118.66759 44.052421Q118.36062 46.89191 116.94087 49.347685Q115.94321 49.539542 113.83278 49.961629Q116.32693 46.661681 116.32693 42.325704Q116.32693 36.416497 112.25955 32.157263Q113.02698 32.464234 113.98627 32.694463L115.71298 33.078178Q116.21181 33.730493 117.09436 35.418838Q117.24784 33.500264 119.70362 33.461893Q119.8571 33.423521 120.85476 33.500264Q125.9198 33.845608 127.07094 36.685097Q128.75929 33.960722 133.82432 33.423521Q134.59175 33.308407 135.4743 33.423521Q137.69984 33.615379 137.54636 35.188609Q137.46961 35.840925 137.20101 36.608354Q135.78127 39.639701 136.0115 43.208248Q136.20335 46.700053 138.12193 49.539542Q136.43358 49.194199 134.59175 48.96397Q133.36386 46.393081 133.17201 43.591963Q132.98015 40.714102 133.63246 37.951356zM134.36152 49.347685Q135.09058 49.424428 136.43358 49.616285Q136.97078 50.345343 138.12193 51.765088Q141.07653 52.34066 143.18696 52.992975Q138.12193 49.040713 137.85333 42.47919Q137.77658 40.368759 138.39053 38.450185Q138.58239 37.52927 138.58239 36.800211Q138.62076 35.917667 138.00681 35.342095L137.96844 35.265352Q138.04518 34.766523 137.96844 34.267694Q137.85333 33.730493 137.39287 33.461893Q136.70218 32.963064 135.81964 32.924692Q132.98015 32.847949 130.29415 33.807236Q128.29883 34.497923 127.10931 35.917667Q125.53608 33.423521 120.66291 33.078178Q119.97222 33.039807 119.55013 33.039807Q117.47807 33.039807 116.86413 34.306065Q116.55716 33.807236 115.86647 32.732835Q113.37232 32.195634 111.37701 31.543319Q116.05833 35.956039 116.05833 42.287333Q116.05833 47.045396 113.18047 50.537201Q113.64092 50.383715 114.13975 50.306972L115.09904 50.115114Q114.40835 51.189516 113.29558 52.417403Q114.94555 52.110431 118.09202 51.496488Q120.77802 47.352368 120.77802 42.402447Q120.77802 41.596646 120.70128 40.752474Q120.62453 39.985044 121.62219 39.179243V39.217615Q122.19776 38.718785 123.38728 38.603671Q123.88611 38.680414 124.19308 38.680414L124.23145 38.910643Q124.50005 41.635018 124.38494 44.014049Q124.26982 46.316338 123.77099 49.002342H124.80702Q126.22677 48.96397 125.88143 48.96397Q125.9198 49.501171 125.88143 49.961629Q125.84305 50.422086 125.84305 50.920915H128.3372Q129.60346 50.920915 130.86972 50.997658Q129.33486 47.275625 129.52672 41.289674Q129.56509 40.176902 130.7546 39.409472Q131.67552 38.603671 132.94178 38.411814H133.24875Q132.82666 40.368759 132.82666 42.364076Q132.82666 46.162852 134.36152 49.347685zM128.98952 37.682755L128.83603 37.874613V37.759498zM171.743 37.107183Q170.55349 36.339754 169.90117 36.378125Q168.5198 36.454868 167.46458 37.471712Q166.40937 38.488557 166.52448 39.86993Q166.83145 44.244278 165.94891 48.810484Q163.72336 49.270942 162.61059 49.808143Q164.10708 45.58728 163.87685 41.097817Q163.64662 36.569983 161.9199 32.464234Q163.07105 33.154921 165.37334 33.807236L165.94891 36.531611Q166.6396 33.615379 170.9372 33.615379Q171.32092 33.538636 171.62789 33.538636Q172.93252 33.538636 174.19878 34.229322Q172.89415 35.610696 171.743 37.107183zM173.46972 39.064129Q174.35226 37.874613 176.04061 35.418838Q175.58015 35.073495 174.04529 34.804895Q174.39063 34.497923 174.85109 33.883979Q172.93252 32.963064 170.97557 33.154921Q169.01863 33.346778 168.28957 33.615379Q166.86982 34.037465 166.06402 35.150238L165.68031 33.461893Q163.26291 33.039807 161.26759 31.696805Q163.41639 36.109525 163.64662 41.021074Q163.87685 45.970995 162.11176 50.537201Q163.18616 50.038371 164.06871 49.7314Q163.80011 50.844173 163.30128 51.918574Q166.17914 51.074401 168.32794 50.959287L168.5198 46.393081Q168.63491 44.129164 168.63491 41.865247Q168.63491 40.675731 169.55583 39.697258Q170.47674 38.718785 171.62789 38.642042Q172.24183 38.488557 172.97089 39.179243L173.3546 39.1025zM168.36631 37.260669L168.32794 37.337412V37.299041z" /></svg>