<svg xmlns:xlink="http://www.w3.org/1999/xlink" xmlns="http://www.w3.org/2000/svg" height="75" width="213" viewBox="0,0,213,75"><path d="M44.000559 38.526928Q44.077302 37.068812 43.252315 36.147896Q42.427328 35.226981 40.969212 35.265352Q38.628552 35.342095 37.784379 37.490898Q37.515779 38.296699 37.477408 38.987386Q37.247179 43.860563 36.326263 48.234912Q34.637918 48.772113 32.757716 49.769771Q35.060005 42.747791 34.791404 35.380467Q34.484432 27.9364 31.913543 21.067905Q33.717003 22.410907 35.750691 23.101594Q37.208807 28.934058 37.400665 34.843266Q38.820409 32.771206 41.544784 32.847949Q46.648191 32.924692 46.763305 38.335071Q46.916791 44.090792 48.298165 48.772113Q46.417962 47.92794 44.652874 47.736083Q44.115673 44.436136 44.000559 38.526928zM44.307531 48.043055Q45.381932 48.196541 46.494705 48.465141Q46.533077 48.618627 47.070277 50.613944Q50.063253 51.573231 52.096941 53.031347Q49.372566 47.198882 48.835365 40.829217Q48.528393 37.107183 47.108649 35.533953Q47.070277 35.418838 46.417962 34.958381Q46.187733 34.459551 45.535418 33.692122L45.57379 33.65375Q44.691246 32.771206 41.544784 32.502606Q40.815726 32.502606 39.395982 32.847949Q39.165753 27.9364 38.820409 25.403882Q38.05298 25.288768 36.556492 24.981796Q36.403006 24.252738 36.134406 22.75625Q33.141431 21.758592 31.261228 20.185361Q34.215832 27.360828 34.484432 35.226981Q34.791404 43.093134 32.220515 50.498829Q33.141431 49.884886 34.292575 49.386056L33.563517 51.688345Q36.709978 50.345343 38.705295 50.153486Q39.280867 44.704736 39.472725 40.714102Q39.587839 38.872271 41.544784 37.759498Q42.043614 37.490898 42.580814 37.52927Q42.7343 37.52927 43.079643 37.567641L43.540101 37.682755Q43.540101 38.06647 43.655216 38.526928Q43.808702 44.589622 44.307531 48.043055zM81.535524 35.226981Q79.309978 35.265352 78.024534 36.781026Q76.739089 38.296699 76.623975 40.598988Q76.50886 43.284991 77.353033 44.244278Q78.465806 45.510537 80.806466 45.357051Q85.449415 45.011708 85.833129 41.980361Q85.948244 41.17456 85.948244 40.368759Q85.909872 38.335071 84.758728 36.800211Q83.492469 35.188609 81.535524 35.226981zM86.408702 45.395423Q84.950585 47.582597 80.537865 47.812826Q76.317003 47.966312 74.667029 46.853539Q73.707742 45.932623 73.554256 44.205907Q73.515885 43.093134 73.707742 41.212931Q74.206571 36.876954 75.434459 35.035123Q77.084432 32.540977 80.959952 32.579349Q83.492469 32.61772 85.794758 34.958381Q85.909872 29.087544 87.521474 22.526022Q89.440048 22.103935 91.320251 21.259763Q88.672619 27.898029 88.404018 34.958381Q88.097047 42.172218 90.245849 48.810484Q88.634247 48.234912 86.907531 47.851197Q86.562187 46.508195 86.408702 45.395423zM89.47842 50.920915Q91.588851 51.496488 94.15974 53.031347Q90.399335 45.894252 90.245849 37.52927Q90.130735 29.279402 93.238825 21.835335Q92.548138 22.295793 91.090022 22.948108Q91.435365 21.796964 92.049309 20.569076Q89.631906 21.643478 87.176131 22.21905Q85.718015 28.051514 85.449415 34.190951Q83.492469 32.310749 80.959952 32.195634Q77.506519 32.08052 75.587945 34.190951Q73.861228 36.569983 73.439142 41.289674Q73.170542 44.052421 73.170542 44.474507Q73.247285 46.239595 74.398429 47.313997Q74.628658 47.544225 74.820515 47.620968L75.280973 48.273283Q76.278631 49.654657 79.271607 49.923257Q81.497152 50.076743 82.878526 50.153486Q87.099388 50.345343 88.826105 49.002342Q89.017962 49.769771 89.47842 50.920915zM83.147126 37.52927Q84.221527 37.567641 85.0657 38.06647Q85.526158 39.332729 85.602901 40.368759Q85.909872 44.627993 80.844837 44.973336Q79.962293 45.011708 78.84952 44.743107Q78.619291 44.129164 78.542549 43.591963Q78.504177 42.939648 78.542549 42.325704Q78.84952 38.872271 81.497152 37.874613Q82.456439 37.490898 83.147126 37.52927zM118.1112 48.810484Q121.29603 44.512879 128.04941 36.531611Q122.10184 36.76184 118.30306 35.380467Q117.61237 33.922351 116.84494 32.502606Q120.98906 34.037465 125.47853 34.075837Q129.96799 34.114208 134.18885 33.039807Q133.76676 33.692122 133.49816 34.229322Q130.96565 36.49324 128.12616 40.13853L123.17624 46.393081Q125.44015 46.201224 127.70407 46.277967Q129.89125 46.316338 132.15516 46.700053Q132.30865 47.313997 133.03771 49.347685Q129.2773 48.503512 125.2483 48.618627Q121.25766 48.733741 117.574 49.923257Q117.65074 49.769771 118.1112 48.810484zM116.99843 50.537201Q117.80423 50.230229 119.41583 49.808143Q119.14723 50 118.72515 50.422086Q118.49492 50.997658 117.88097 52.148803Q122.63904 50.805801 127.6657 50.959287Q132.65399 51.112773 137.25857 52.992975Q135.80045 51.112773 134.87954 49.040713Q134.11211 48.733741 133.03771 48.503512L132.46213 46.316338Q130.92728 46.009366 127.32036 45.894252Q129.69939 42.517562 134.76442 36.109525Q135.03302 35.380467 135.72371 34.037465L133.42142 34.804895Q133.49816 34.728152 133.65165 34.613037L133.84351 34.42118Q134.30397 33.346778 134.87954 32.387492Q130.19822 33.768865 125.44015 33.692122Q120.60535 33.615379 116.07751 31.773548Q117.26703 33.65375 118.07283 35.72581Q118.917 36.032782 119.9914 36.301382Q120.18326 36.992069 120.49023 38.450185Q122.10184 38.718785 125.44015 38.872271Q123.02275 42.21059 117.80423 48.69537Q117.574 49.309313 116.99843 50.537201zM176.90397 49.270942Q174.75516 48.848856 172.56799 48.69537Q171.14824 47.275625 168.46224 43.400106Q166.23669 46.508195 163.81929 48.96397L161.70886 49.347685Q160.63446 49.539542 159.6368 49.808143Q163.85766 45.664023 166.88901 41.519903Q163.58906 37.299041 158.14031 32.464234Q160.40423 33.231664 163.1286 33.65375Q166.58204 36.76184 168.50061 39.486215Q170.64941 36.416497 173.41216 33.883979Q176.48188 33.538636 178.32371 33.039807Q173.7575 36.723469 170.03547 41.328046Q173.41216 46.009366 176.90397 49.270942zM179.78183 32.272377Q176.86559 33.11655 173.29705 33.461893Q170.38081 36.147896 168.6541 38.642042Q167.77155 37.606013 166.12158 35.610696H165.92972Q165.77624 35.572324 165.66112 35.572324Q164.89369 34.728152 163.24372 33.270036Q159.6368 32.732835 156.75894 31.504948Q162.3228 36.339754 166.39018 41.519903Q163.01349 46.201224 158.5624 50.537201Q158.79263 50.422086 162.3228 49.577914Q160.78794 50.920915 159.13797 52.263917Q162.36118 51.343002 165.54601 51.151144Q167.96341 48.887227 169.88199 46.124481Q171.30173 47.889569 172.52962 49.079085Q172.64473 49.079085 172.72147 49.155827H172.91333Q174.17959 50.2686 175.52259 51.343002Q179.12951 51.880202 182.04574 52.916232Q175.82956 48.426769 172.10753 43.208248Q175.79119 38.143213 180.39577 34.037465Q179.43648 34.382808 178.43882 34.613037L176.40514 35.073495Q177.59465 34.152579 179.78183 32.272377z" /></svg>