<svg xmlns:xlink="http://www.w3.org/1999/xlink" xmlns="http://www.w3.org/2000/svg" height="75" width="213" viewBox="0,0,213,75"><path d="M43.90463 38.526928Q43.789516 37.299041 41.83257 36.569983Q41.333741 36.378125 40.796541 36.378125Q39.415167 36.378125 38.340766 36.953697Q36.959393 37.682755 37.074507 38.910643Q37.41985 41.750132 37.266365 44.014049Q37.112879 46.469824 36.383821 49.002342Q34.235018 49.501171 33.045502 49.923257Q34.657104 46.277967 34.657104 42.248961Q34.657104 36.76184 32.047843 32.272377Q33.275731 32.771206 35.693134 33.500264Q36.000106 34.229322 36.383821 35.764182Q37.726822 33.65375 41.640713 33.730493Q43.137201 33.768865 43.943002 33.883979Q46.935977 34.267694 47.01272 36.301382Q47.051091 37.222298 46.859234 38.258328Q46.398776 40.790845 46.590634 43.822192Q46.74412 46.700053 47.741778 49.270942Q46.015062 48.848856 44.288345 48.69537Q43.827887 46.316338 43.751144 43.630335Q43.674401 40.867588 43.90463 38.526928zM43.90463 49.040713Q44.710431 49.040713 46.015062 49.270942L46.398776 50.345343Q46.590634 50.844173 46.820863 51.381373Q49.123151 51.803459 51.847526 52.992975Q49.468495 49.846514 48.777808 46.009366Q48.432465 43.860563 48.547579 40.13853Q48.547579 39.831558 48.585951 39.025757Q48.662694 38.411814 48.585951 37.912984Q48.470836 36.224639 47.358063 35.72581Q47.204577 34.881638 46.437148 34.267694Q44.710431 33.231664 41.640713 33.308407Q39.760511 33.346778 38.916338 33.538636Q37.458222 33.883979 36.498935 34.804895Q36.383821 34.267694 36.000106 33.231664Q33.160616 32.540977 31.318785 31.543319Q34.388504 36.454868 34.388504 42.248961Q34.388504 46.661681 32.46993 50.537201Q33.160616 50.230229 34.465247 49.846514Q33.966417 51.112773 33.429217 52.110431Q34.848961 51.649974 38.417509 51.074401Q39.415167 45.894252 39.300053 41.021074Q39.261681 40.176902 40.451197 39.447843Q41.487227 38.795528 42.6 38.680414Q43.060458 38.642042 43.482544 38.8339Q43.329058 41.404789 43.36743 43.975678Q43.405801 46.508195 43.90463 49.040713zM81.439595 36.224639Q78.600106 36.224639 77.832676 38.488557Q77.602447 39.217615 77.487333 39.86993Q80.096593 40.061787 81.746567 40.061787Q83.434912 40.100159 86.044173 39.985044Q85.929058 38.258328 84.509313 37.183926Q83.243055 36.224639 81.439595 36.224639zM81.516338 48.887227Q77.257104 48.887227 75.952474 47.467482Q74.993187 46.009366 74.839701 42.709419Q74.839701 42.47919 74.762958 41.097817Q74.609472 38.757157 74.609472 38.028099Q74.609472 36.147896 75.33853 35.035123Q76.758275 33.615379 79.75125 33.615379H81.324481Q83.396541 33.615379 84.9314 33.922351Q87.003459 34.382808 88.001118 35.610696Q88.653433 36.723469 88.730176 38.8339Q88.691805 39.946673 88.730176 42.133847Q85.852315 42.172218 83.051197 42.172218H77.41059Q77.564076 46.62331 81.669824 46.393081Q85.4686 46.201224 86.696488 44.359393Q87.579032 44.896593 89.190634 46.086109Q87.809261 48.503512 83.626769 48.772113Q82.897711 48.810484 81.516338 48.887227zM83.856998 51.266259Q84.9314 51.189516 86.159287 51.266259Q91.185951 51.458116 92.106866 48.656998Q90.495264 47.429111 89.382491 46.661681Q89.535977 46.239595 89.727834 46.009366Q88.998776 45.548909 87.617403 44.589622Q88.691805 44.627993 90.763864 44.934965Q90.610378 43.591963 90.533635 42.901277L90.38015 40.944331Q90.226664 38.565299 89.574349 37.068812Q89.305748 36.723469 88.730176 36.109525Q88.57669 35.802553 88.346461 35.226981Q86.427887 33.154921 81.324481 33.154921H79.636136Q76.37456 33.154921 74.916444 34.651409Q74.225757 35.764182 74.264129 37.836241Q74.340872 38.8339 74.455986 41.097817Q74.532729 42.709419 74.647843 44.781479Q74.916444 47.045396 75.798988 48.119798Q75.952474 48.273283 76.144331 48.388398L76.451303 49.040713Q77.218733 50.882544 83.856998 51.266259zM81.708195 46.009366Q80.51868 46.086109 79.597764 45.625651Q79.559393 45.241937 79.367535 44.55125Q81.05588 44.436136 82.667482 44.436136Q84.355827 44.436136 86.044173 44.55125Q84.739542 45.894252 81.708195 46.009366zM83.358169 38.603671Q84.010484 38.642042 85.353486 39.025757L85.506972 39.371101L85.545343 39.601329Q84.16397 39.716444 83.243055 39.678072Q80.940766 39.639701 80.902394 39.639701Q81.669824 38.718785 83.358169 38.603671zM133.63246 37.951356Q133.78595 37.606013 133.74758 37.183926Q133.63246 36.76184 133.32549 36.569983Q132.59643 35.99441 131.71389 36.147896Q130.63949 36.147896 128.98952 37.260669Q127.56977 38.181585 127.56977 39.371101V43.975678Q127.5314 46.546567 127.68489 48.580255H125.95817Q124.96051 48.541884 124.23145 48.618627Q124.65354 46.086109 124.73028 43.822192Q124.88377 39.140872 124.23145 37.836241Q123.96285 37.260669 123.38728 36.953697Q122.54311 36.224639 120.96988 36.109525Q118.93619 35.879296 118.39899 37.490898Q118.2455 37.989727 118.36062 38.488557Q119.01293 41.251303 118.66759 44.052421Q118.36062 46.89191 116.94087 49.347685Q115.94321 49.539542 113.83278 49.961629Q116.32693 46.661681 116.32693 42.325704Q116.32693 36.416497 112.25955 32.157263Q113.02698 32.464234 113.98627 32.694463L115.71298 33.078178Q116.21181 33.730493 117.09436 35.418838Q117.24784 33.500264 119.70362 33.461893Q119.8571 33.423521 120.85476 33.500264Q125.9198 33.845608 127.07094 36.685097Q128.75929 33.960722 133.82432 33.423521Q134.59175 33.308407 135.4743 33.423521Q137.69984 33.615379 137.54636 35.188609Q137.46961 35.840925 137.20101 36.608354Q135.78127 39.639701 136.0115 43.208248Q136.20335 46.700053 138.12193 49.539542Q136.43358 49.194199 134.59175 48.96397Q133.36386 46.393081 133.17201 43.591963Q132.98015 40.714102 133.63246 37.951356zM134.36152 49.347685Q135.09058 49.424428 136.43358 49.616285Q136.97078 50.345343 138.12193 51.765088Q141.07653 52.34066 143.18696 52.992975Q138.12193 49.040713 137.85333 42.47919Q137.77658 40.368759 138.39053 38.450185Q138.58239 37.52927 138.58239 36.800211Q138.62076 35.917667 138.00681 35.342095L137.96844 35.265352Q138.04518 34.766523 137.96844 34.267694Q137.85333 33.730493 137.39287 33.461893Q136.70218 32.963064 135.81964 32.924692Q132.98015 32.847949 130.29415 33.807236Q128.29883 34.497923 127.10931 35.917667Q125.53608 33.423521 120.66291 33.078178Q119.97222 33.039807 119.55013 33.039807Q117.47807 33.039807 116.86413 34.306065Q116.55716 33.807236 115.86647 32.732835Q113.37232 32.195634 111.37701 31.543319Q116.05833 35.956039 116.05833 42.287333Q116.05833 47.045396 113.18047 50.537201Q113.64092 50.383715 114.13975 50.306972L115.09904 50.115114Q114.40835 51.189516 113.29558 52.417403Q114.94555 52.110431 118.09202 51.496488Q120.77802 47.352368 120.77802 42.402447Q120.77802 41.596646 120.70128 40.752474Q120.62453 39.985044 121.62219 39.179243V39.217615Q122.19776 38.718785 123.38728 38.603671Q123.88611 38.680414 124.19308 38.680414L124.23145 38.910643Q124.50005 41.635018 124.38494 44.014049Q124.26982 46.316338 123.77099 49.002342H124.80702Q126.22677 48.96397 125.88143 48.96397Q125.9198 49.501171 125.88143 49.961629Q125.84305 50.422086 125.84305 50.920915H128.3372Q129.60346 50.920915 130.86972 50.997658Q129.33486 47.275625 129.52672 41.289674Q129.56509 40.176902 130.7546 39.409472Q131.67552 38.603671 132.94178 38.411814H133.24875Q132.82666 40.368759 132.82666 42.364076Q132.82666 46.162852 134.36152 49.347685zM128.98952 37.682755L128.83603 37.874613V37.759498zM165.29659 21.605106Q166.17914 23.562052 167.86748 23.907395Q168.40468 24.022509 169.09537 23.830652Q168.90351 29.816602 168.82677 35.72581Q168.7884 41.558275 169.01863 47.544225Q168.75003 47.505854 168.44305 47.505854Q166.86982 47.505854 165.56519 49.347685Q166.25588 42.364076 166.21751 35.45721Q166.14077 28.511972 165.29659 21.605106zM165.14311 50.498829Q166.21751 48.656998 167.29191 48.196541Q167.21517 49.23257 167.21517 50.230229Q167.94423 49.846514 168.75003 49.961629Q170.78371 50.2686 172.0116 52.992975Q170.82209 45.395423 170.82209 37.874613Q170.82209 30.085203 171.66626 22.717879Q170.6686 24.636453 169.51746 25.250397Q169.51746 24.214367 169.5942 23.139965Q168.7884 23.638794 168.02097 23.485309Q165.79542 23.063222 164.79776 20.185361Q165.83379 27.744543 165.91054 35.342095Q166.02565 42.901277 165.14311 50.498829z" /></svg>