<svg xmlns:xlink="http://www.w3.org/1999/xlink" xmlns="http://www.w3.org/2000/svg" height="75" width="213" viewBox="0,0,213,75"><path d="M41.640713 37.52927Q39.069824 37.375784 37.726822 38.603671Q36.383821 39.831558 36.690792 42.364076Q36.997764 44.896593 38.225651 46.162852Q39.338424 47.544225 41.487227 47.467482Q42.024428 47.429111 42.216285 47.429111Q45.784833 46.815167 45.899947 42.172218Q45.97669 39.793187 45.286003 38.987386Q44.211602 37.682755 41.640713 37.52927zM44.979032 49.347685Q43.63603 49.923257 42.062799 49.846514Q38.225651 50.076743 36.921021 47.467482Q36.729164 52.839489 35.386162 57.137095Q33.582703 57.635924 31.932729 58.364982Q34.503618 52.34066 34.235018 45.31868Q34.004789 38.450185 31.088557 32.34912Q33.045502 33.538636 34.772218 33.999094L35.271048 35.45721Q35.386162 35.802553 35.654762 36.915326Q36.690792 34.843266 40.297711 34.651409Q41.180255 34.613037 42.062799 34.613037H42.561629Q42.676743 34.613037 42.8686 34.651409H43.175572Q45.286003 34.958381 46.015062 35.188609Q47.511549 35.649067 48.394093 36.608354Q49.238266 37.79787 49.199894 39.217615Q49.199894 42.095475 48.394093 44.781479Q47.358063 48.311655 44.979032 49.347685zM49.276637 49.923257Q50.38941 47.92794 50.696382 43.783821Q50.849868 42.018733 50.849868 40.752474Q50.888239 39.255986 50.12081 37.836241Q49.660352 37.337412 49.161523 36.953697L49.008037 36.685097L48.816179 36.378125L48.777808 36.224639Q47.051091 34.190951 42.676743 34.190951H42.062799Q37.381479 34.190951 35.731505 35.802553Q35.539648 35.265352 35.386162 34.766523L35.117562 33.692122Q32.623416 33.078178 30.39787 31.58169Q33.659446 37.912984 33.966417 45.203565Q34.235018 52.494146 31.357157 59.017297L33.390845 58.173125Q33.122245 58.902183 32.431558 60.475414Q35.155933 59.401012 37.496593 59.055669Q38.609366 54.182491 38.762852 50.422086Q40.182597 51.918574 43.827887 52.148803Q47.818521 52.417403 49.276637 49.961629zM43.559287 39.793187Q44.211602 39.716444 45.324375 40.061787Q45.592975 41.059446 45.554604 42.248961Q45.554604 43.169877 45.362746 43.822192Q44.633688 46.738424 42.101171 47.045396H42.216285Q42.139542 47.045396 42.024428 47.083768H41.487227Q40.297711 47.083768 39.300053 46.584938L38.916338 44.474507Q38.801224 42.172218 40.105854 41.136189Q41.141884 40.061787 43.559287 39.793187zM76.067588 54.834806Q75.108301 55.026664 73.189727 55.333635Q74.494358 53.146461 75.530387 51.841831Q77.295475 52.148803 77.448961 52.148803Q77.755933 52.225546 78.293134 52.110431Q78.983821 52.033688 79.175678 52.033688Q81.746567 51.765088 81.669824 49.577914Q81.631453 48.081426 81.516338 41.788504Q81.477967 38.219956 81.55471 34.037465L82.974454 33.845608Q83.626769 33.730493 84.317456 33.500264Q84.087227 37.951356 84.125599 42.364076Q84.16397 46.776796 84.701171 51.189516Q84.777914 51.496488 84.777914 51.765088Q84.777914 53.415062 83.089569 53.798776Q79.943107 54.182491 76.067588 54.834806zM80.748909 27.284085Q81.784938 25.86434 83.626769 23.063222Q84.317456 23.984138 85.660458 25.825969L82.897711 30.430546zM85.929058 57.252209Q86.466259 57.290581 87.233688 56.945238Q87.579032 56.254551 87.579032 55.794093Q87.54066 55.410378 87.425546 54.796435Q86.082544 48.350026 86.082544 40.368759Q86.082544 37.490898 86.23603 34.574666Q85.698829 34.766523 84.547685 35.073495Q84.547685 34.574666 84.586056 34.037465L84.701171 32.963064Q82.974454 33.615379 81.170995 33.65375Q81.094252 37.989727 81.132623 41.596646L81.286109 49.539542Q81.362852 51.534859 79.175678 51.649974Q78.945449 51.649974 78.427434 51.707531Q77.909419 51.765088 77.640819 51.765088Q77.14199 51.726717 75.568759 51.30463Q75.108301 51.918574 73.995528 53.606919L72.460669 55.947579Q73.343213 55.755722 74.993187 55.372007L74.532729 56.101065L73.995528 56.75338Q76.297817 56.599894 77.640819 56.676637Q79.943107 56.830123 85.929058 57.252209zM82.85934 31.159604L83.204683 30.622404Q83.588398 31.082861 84.547685 32.694463Q86.082544 29.548002 87.655775 26.439912Q86.658116 24.82831 85.698829 23.52368Q85.506972 23.753909 85.161629 24.29111Q84.739542 23.638794 83.741884 22.334164Q82.552368 23.945766 80.211708 27.322456Q81.132623 28.550344 82.85934 31.159604zM124.99888 48.848856H123.27217Q119.8571 48.848856 118.89782 46.700053Q120.08733 45.664023 121.54545 44.55125Q122.12102 46.738424 124.99888 46.584938Q125.80468 46.546567 126.84071 46.316338Q127.76163 45.779137 127.68489 44.81985Q127.60814 43.707078 125.80468 43.016391L121.96754 41.481532Q119.62688 40.13853 119.28153 36.569983Q119.08967 34.42118 121.27685 33.845608Q122.23614 33.615379 125.22911 33.615379Q130.14066 33.615379 131.06158 36.147896Q130.40926 36.685097 129.6802 37.145555L128.26046 38.104842Q127.76163 36.186268 124.50005 35.956039Q123.92448 35.99441 122.88845 36.416497Q122.31288 36.76184 122.31288 37.874613Q122.65822 38.949014 124.50005 39.639701Q125.57445 40.023416 128.26046 41.136189Q130.10229 41.980361 130.29415 44.55125Q130.37089 45.203565 130.29415 46.201224Q130.25577 47.083768 129.6802 47.736083Q128.0686 48.848856 124.99888 48.848856zM129.79532 51.458116Q130.71623 51.496488 132.09761 51.189516Q133.17201 50.498829 132.98015 49.270942Q132.90341 48.69537 132.59643 47.083768Q132.05923 44.129164 130.25577 42.901277Q129.71857 41.481532 128.45232 40.752474Q127.18606 40.330387 124.69191 39.371101Q124.8454 38.910643 125.114 38.795528Q125.72794 38.335071 126.38026 38.296699Q127.18606 38.258328 127.95349 38.526928L127.99186 38.642042L128.0686 38.603671L128.3372 38.680414H128.29883Q129.4116 39.179243 129.60346 40.445502Q130.86972 39.601329 132.78829 37.912984Q132.51969 37.183926 131.52203 35.99441Q130.37089 33.270036 125.22911 33.154921Q122.04428 33.11655 120.04896 33.692122Q118.62922 34.267694 118.85945 36.378125Q118.97456 37.644384 119.89548 39.754815Q120.43268 40.867588 121.46871 41.596646Q122.15939 43.093134 123.46402 43.783821Q124.42331 44.052421 125.3826 44.436136L127.30117 45.203565Q126.95583 46.316338 124.99888 46.201224Q124.5768 46.277967 123.34891 45.970995L123.31054 45.779137L123.19542 45.894252Q122.31288 45.510537 121.66056 44.014049Q119.51176 45.58728 118.39899 46.738424Q118.66759 47.620968 119.70362 48.426769L119.55013 48.580255Q121.00825 50.729058 125.26748 51.112773Q126.53374 51.227887 129.79532 51.458116zM173.27786 48.656998Q171.93486 46.930282 170.63023 43.822192L168.5198 38.680414Q166.9082 42.709419 166.29425 44.014049Q164.83614 46.968653 163.22453 48.887227Q162.84082 48.887227 162.07339 49.002342Q162.07339 41.519903 156.20255 35.533953Q154.43747 33.692122 152.40378 32.195634Q154.28398 32.771206 156.16418 33.078178Q162.26525 38.06647 163.72336 44.359393Q164.64428 42.517562 165.83379 39.294358Q167.1768 35.495581 167.75237 34.190951H169.17211Q170.05466 35.917667 171.24417 39.217615Q172.5488 42.862905 173.20112 44.28265Q175.04295 37.951356 180.56844 33.346778Q181.79633 33.270036 184.55908 32.694463Q175.81038 38.718785 174.62086 48.772113L173.96855 48.656998Q173.6232 48.618627 173.27786 48.656998zM178.38127 51.343002Q178.03592 49.769771 178.03592 48.234912Q178.03592 44.973336 179.45567 41.711761Q181.45099 37.145555 185.59511 34.037465Q184.36722 34.306065 182.48702 34.651409Q184.48233 33.001435 185.78696 32.08052L183.25445 32.540977Q182.02656 32.771206 180.68356 32.924692Q175.46504 37.183926 173.50809 42.248961Q172.85577 40.061787 171.4744 35.764182Q171.16743 35.802553 170.89883 35.802553H170.36163Q170.24651 35.495581 169.44071 33.730493H167.36865Q166.40937 36.569983 164.29893 42.248961Q162.95593 38.526928 159.84784 35.226981Q159.57924 35.226981 159.27227 35.188609L158.6967 35.073495Q157.85253 34.267694 156.04907 32.656092Q152.86423 32.003777 151.17589 31.504948Q161.99665 39.025757 161.61293 49.424428Q161.80479 49.424428 162.16932 49.386056Q162.53385 49.347685 162.7257 49.347685Q162.7257 49.194199 162.91756 51.30463L164.87451 51.151144Q167.48377 48.311655 169.74768 42.517562Q171.24417 46.393081 173.12437 49.079085Q173.43135 49.040713 173.69995 49.059899Q173.96855 49.079085 174.23715 49.079085L176.30921 51.151144z" /></svg>