<svg xmlns:xlink="http://www.w3.org/1999/xlink" xmlns="http://www.w3.org/2000/svg" height="75" width="213" viewBox="0,0,213,75"><path d="M37.496593 21.605106Q38.379137 23.562052 40.067482 23.907395Q40.604683 24.022509 41.29537 23.830652Q41.103512 29.816602 41.026769 35.72581Q40.988398 41.558275 41.218627 47.544225Q40.950026 47.505854 40.643055 47.505854Q39.069824 47.505854 37.765194 49.347685Q38.45588 42.364076 38.417509 35.45721Q38.340766 28.511972 37.496593 21.605106zM37.343107 50.498829Q38.417509 48.656998 39.49191 48.196541Q39.415167 49.23257 39.415167 50.230229Q40.144225 49.846514 40.950026 49.961629Q42.983715 50.2686 44.211602 52.992975Q43.022086 45.395423 43.022086 37.874613Q43.022086 30.085203 43.866259 22.717879Q42.8686 24.636453 41.717456 25.250397Q41.717456 24.214367 41.794199 23.139965Q40.988398 23.638794 40.220968 23.485309Q37.995423 23.063222 36.997764 20.185361Q38.033794 27.744543 38.110537 35.342095Q38.225651 42.901277 37.343107 50.498829zM83.473283 36.416497Q80.902394 36.378125 79.597764 37.52927Q78.139648 38.757157 78.331505 41.289674Q78.600106 44.244278 79.789622 45.31868Q81.286109 46.62331 83.396541 46.469824Q85.545343 46.469824 86.965088 45.203565Q88.30809 44.052421 88.499947 41.481532Q88.883662 36.531611 83.473283 36.416497zM83.319798 49.040713H81.746567Q78.868706 49.040713 77.372218 47.620968Q76.37456 46.584938 76.10596 44.627993Q75.952474 43.51522 75.798988 41.289674Q75.722245 40.292016 75.60713 38.028099Q75.530387 36.147896 76.489674 34.996752Q78.254762 33.500264 83.012826 33.65375Q87.962746 33.807236 89.804577 35.342095Q91.301065 36.569983 91.109208 39.793187Q90.878979 43.361734 90.802236 43.783821Q90.495264 46.086109 89.152262 47.275625Q87.156945 49.040713 83.319798 49.040713zM88.039489 51.458116Q89.535977 51.496488 91.454551 51.343002Q91.95338 51.266259 91.95338 51.112773Q91.95338 51.03603 91.915009 50.882544Q91.876637 50.729058 91.876637 50.613944Q91.876637 50.345343 92.221981 50.038371Q93.104525 48.887227 93.104525 46.968653Q93.104525 46.009366 93.008596 43.572777Q92.912667 41.136189 92.759181 40.023416Q92.375466 37.874613 91.454551 36.723469L91.147579 36.531611Q90.994093 35.879296 90.188292 34.958381Q87.886003 33.231664 82.936083 33.231664H81.170995Q77.832676 33.231664 76.10596 34.613037Q75.223416 35.72581 75.261787 37.759498Q75.300159 38.219956 75.434459 39.486215Q75.568759 40.752474 75.530387 41.212931Q75.760616 44.28265 75.837359 44.743107Q76.182703 46.853539 77.103618 48.004683L77.257104 48.234912Q78.101277 50.729058 81.861681 51.151144Q82.744225 51.266259 88.039489 51.458116zM85.315114 38.718785Q86.197658 38.757157 87.886003 39.294358Q88.231347 40.023416 88.192975 41.519903Q88.077861 45.011708 85.161629 45.779137Q84.43257 45.970995 83.396541 46.086109Q82.360511 46.162852 80.633794 45.548909Q80.365194 44.81985 80.403565 43.323363Q80.480308 40.982703 81.861681 39.946673Q82.744225 39.025757 85.315114 38.718785zM129.10463 38.526928Q128.98952 37.299041 127.03257 36.569983Q126.53374 36.378125 125.99654 36.378125Q124.61517 36.378125 123.54077 36.953697Q122.15939 37.682755 122.27451 38.910643Q122.61985 41.750132 122.46636 44.014049Q122.31288 46.469824 121.58382 49.002342Q119.43502 49.501171 118.2455 49.923257Q119.8571 46.277967 119.8571 42.248961Q119.8571 36.76184 117.24784 32.272377Q118.47573 32.771206 120.89313 33.500264Q121.20011 34.229322 121.58382 35.764182Q122.92682 33.65375 126.84071 33.730493Q128.3372 33.768865 129.143 33.883979Q132.13598 34.267694 132.21272 36.301382Q132.25109 37.222298 132.05923 38.258328Q131.59878 40.790845 131.79063 43.822192Q131.94412 46.700053 132.94178 49.270942Q131.21506 48.848856 129.48835 48.69537Q129.02789 46.316338 128.95114 43.630335Q128.8744 40.867588 129.10463 38.526928zM129.10463 49.040713Q129.91043 49.040713 131.21506 49.270942L131.59878 50.345343Q131.79063 50.844173 132.02086 51.381373Q134.32315 51.803459 137.04753 52.992975Q134.66849 49.846514 133.97781 46.009366Q133.63246 43.860563 133.74758 40.13853Q133.74758 39.831558 133.78595 39.025757Q133.86269 38.411814 133.78595 37.912984Q133.67084 36.224639 132.55806 35.72581Q132.40458 34.881638 131.63715 34.267694Q129.91043 33.231664 126.84071 33.308407Q124.96051 33.346778 124.11634 33.538636Q122.65822 33.883979 121.69893 34.804895Q121.58382 34.267694 121.20011 33.231664Q118.36062 32.540977 116.51879 31.543319Q119.5885 36.454868 119.5885 42.248961Q119.5885 46.661681 117.66993 50.537201Q118.36062 50.230229 119.66525 49.846514Q119.16642 51.112773 118.62922 52.110431Q120.04896 51.649974 123.61751 51.074401Q124.61517 45.894252 124.50005 41.021074Q124.46168 40.176902 125.6512 39.447843Q126.68723 38.795528 127.8 38.680414Q128.26046 38.642042 128.68254 38.8339Q128.52906 41.404789 128.56743 43.975678Q128.6058 46.508195 129.10463 49.040713zM166.73552 35.226981Q164.50998 35.265352 163.22453 36.781026Q161.93909 38.296699 161.82397 40.598988Q161.70886 43.284991 162.55303 44.244278Q163.66581 45.510537 166.00647 45.357051Q170.64941 45.011708 171.03313 41.980361Q171.14824 41.17456 171.14824 40.368759Q171.10987 38.335071 169.95873 36.800211Q168.69247 35.188609 166.73552 35.226981zM171.6087 45.395423Q170.15059 47.582597 165.73787 47.812826Q161.517 47.966312 159.86703 46.853539Q158.90774 45.932623 158.75426 44.205907Q158.71588 43.093134 158.90774 41.212931Q159.40657 36.876954 160.63446 35.035123Q162.28443 32.540977 166.15995 32.579349Q168.69247 32.61772 170.99476 34.958381Q171.10987 29.087544 172.72147 22.526022Q174.64005 22.103935 176.52025 21.259763Q173.87262 27.898029 173.60402 34.958381Q173.29705 42.172218 175.44585 48.810484Q173.83425 48.234912 172.10753 47.851197Q171.76219 46.508195 171.6087 45.395423zM174.67842 50.920915Q176.78885 51.496488 179.35974 53.031347Q175.59934 45.894252 175.44585 37.52927Q175.33073 29.279402 178.43882 21.835335Q177.74814 22.295793 176.29002 22.948108Q176.63537 21.796964 177.24931 20.569076Q174.83191 21.643478 172.37613 22.21905Q170.91801 28.051514 170.64941 34.190951Q168.69247 32.310749 166.15995 32.195634Q162.70652 32.08052 160.78794 34.190951Q159.06123 36.569983 158.63914 41.289674Q158.37054 44.052421 158.37054 44.474507Q158.44728 46.239595 159.59843 47.313997Q159.82866 47.544225 160.02052 47.620968L160.48097 48.273283Q161.47863 49.654657 164.47161 49.923257Q166.69715 50.076743 168.07853 50.153486Q172.29939 50.345343 174.0261 49.002342Q174.21796 49.769771 174.67842 50.920915zM168.34713 37.52927Q169.42153 37.567641 170.2657 38.06647Q170.72616 39.332729 170.8029 40.368759Q171.10987 44.627993 166.04484 44.973336Q165.16229 45.011708 164.04952 44.743107Q163.81929 44.129164 163.74255 43.591963Q163.70418 42.939648 163.74255 42.325704Q164.04952 38.872271 166.69715 37.874613Q167.65644 37.490898 168.34713 37.52927z" /></svg>