<svg xmlns:xlink="http://www.w3.org/1999/xlink" xmlns="http://www.w3.org/2000/svg" height="75" width="213" viewBox="0,0,213,75"><path d="M38.935524 35.226981Q36.709978 35.265352 35.424534 36.781026Q34.139089 38.296699 34.023975 40.598988Q33.90886 43.284991 34.753033 44.244278Q35.865806 45.510537 38.206466 45.357051Q42.849415 45.011708 43.233129 41.980361Q43.348244 41.17456 43.348244 40.368759Q43.309872 38.335071 42.158728 36.800211Q40.892469 35.188609 38.935524 35.226981zM43.808702 45.395423Q42.350585 47.582597 37.937865 47.812826Q33.717003 47.966312 32.067029 46.853539Q31.107742 45.932623 30.954256 44.205907Q30.915885 43.093134 31.107742 41.212931Q31.606571 36.876954 32.834459 35.035123Q34.484432 32.540977 38.359952 32.579349Q40.892469 32.61772 43.194758 34.958381Q43.309872 29.087544 44.921474 22.526022Q46.840048 22.103935 48.720251 21.259763Q46.072619 27.898029 45.804018 34.958381Q45.497047 42.172218 47.645849 48.810484Q46.034247 48.234912 44.307531 47.851197Q43.962187 46.508195 43.808702 45.395423zM46.87842 50.920915Q48.988851 51.496488 51.55974 53.031347Q47.799335 45.894252 47.645849 37.52927Q47.530735 29.279402 50.638825 21.835335Q49.948138 22.295793 48.490022 22.948108Q48.835365 21.796964 49.449309 20.569076Q47.031906 21.643478 44.576131 22.21905Q43.118015 28.051514 42.849415 34.190951Q40.892469 32.310749 38.359952 32.195634Q34.906519 32.08052 32.987945 34.190951Q31.261228 36.569983 30.839142 41.289674Q30.570542 44.052421 30.570542 44.474507Q30.647285 46.239595 31.798429 47.313997Q32.028658 47.544225 32.220515 47.620968L32.680973 48.273283Q33.678631 49.654657 36.671607 49.923257Q38.897152 50.076743 40.278526 50.153486Q44.499388 50.345343 46.226105 49.002342Q46.417962 49.769771 46.87842 50.920915zM40.547126 37.52927Q41.621527 37.567641 42.4657 38.06647Q42.926158 39.332729 43.002901 40.368759Q43.309872 44.627993 38.244837 44.973336Q37.362293 45.011708 36.24952 44.743107Q36.019291 44.129164 35.942549 43.591963Q35.904177 42.939648 35.942549 42.325704Q36.24952 38.872271 38.897152 37.874613Q39.856439 37.490898 40.547126 37.52927zM86.50463 38.526928Q86.389516 37.299041 84.43257 36.569983Q83.933741 36.378125 83.396541 36.378125Q82.015167 36.378125 80.940766 36.953697Q79.559393 37.682755 79.674507 38.910643Q80.01985 41.750132 79.866365 44.014049Q79.712879 46.469824 78.983821 49.002342Q76.835018 49.501171 75.645502 49.923257Q77.257104 46.277967 77.257104 42.248961Q77.257104 36.76184 74.647843 32.272377Q75.875731 32.771206 78.293134 33.500264Q78.600106 34.229322 78.983821 35.764182Q80.326822 33.65375 84.240713 33.730493Q85.737201 33.768865 86.543002 33.883979Q89.535977 34.267694 89.61272 36.301382Q89.651091 37.222298 89.459234 38.258328Q88.998776 40.790845 89.190634 43.822192Q89.34412 46.700053 90.341778 49.270942Q88.615062 48.848856 86.888345 48.69537Q86.427887 46.316338 86.351144 43.630335Q86.274401 40.867588 86.50463 38.526928zM86.50463 49.040713Q87.310431 49.040713 88.615062 49.270942L88.998776 50.345343Q89.190634 50.844173 89.420863 51.381373Q91.723151 51.803459 94.447526 52.992975Q92.068495 49.846514 91.377808 46.009366Q91.032465 43.860563 91.147579 40.13853Q91.147579 39.831558 91.185951 39.025757Q91.262694 38.411814 91.185951 37.912984Q91.070836 36.224639 89.958063 35.72581Q89.804577 34.881638 89.037148 34.267694Q87.310431 33.231664 84.240713 33.308407Q82.360511 33.346778 81.516338 33.538636Q80.058222 33.883979 79.098935 34.804895Q78.983821 34.267694 78.600106 33.231664Q75.760616 32.540977 73.918785 31.543319Q76.988504 36.454868 76.988504 42.248961Q76.988504 46.661681 75.06993 50.537201Q75.760616 50.230229 77.065247 49.846514Q76.566417 51.112773 76.029217 52.110431Q77.448961 51.649974 81.017509 51.074401Q82.015167 45.894252 81.900053 41.021074Q81.861681 40.176902 83.051197 39.447843Q84.087227 38.795528 85.2 38.680414Q85.660458 38.642042 86.082544 38.8339Q85.929058 41.404789 85.96743 43.975678Q86.005801 46.508195 86.50463 49.040713zM134.30397 49.270942Q132.15516 48.848856 129.96799 48.69537Q128.54824 47.275625 125.86224 43.400106Q123.63669 46.508195 121.21929 48.96397L119.10886 49.347685Q118.03446 49.539542 117.0368 49.808143Q121.25766 45.664023 124.28901 41.519903Q120.98906 37.299041 115.54031 32.464234Q117.80423 33.231664 120.5286 33.65375Q123.98204 36.76184 125.90061 39.486215Q128.04941 36.416497 130.81216 33.883979Q133.88188 33.538636 135.72371 33.039807Q131.1575 36.723469 127.43547 41.328046Q130.81216 46.009366 134.30397 49.270942zM137.18183 32.272377Q134.26559 33.11655 130.69705 33.461893Q127.78081 36.147896 126.0541 38.642042Q125.17155 37.606013 123.52158 35.610696H123.32972Q123.17624 35.572324 123.06112 35.572324Q122.29369 34.728152 120.64372 33.270036Q117.0368 32.732835 114.15894 31.504948Q119.7228 36.339754 123.79018 41.519903Q120.41349 46.201224 115.9624 50.537201Q116.19263 50.422086 119.7228 49.577914Q118.18794 50.920915 116.53797 52.263917Q119.76118 51.343002 122.94601 51.151144Q125.36341 48.887227 127.28199 46.124481Q128.70173 47.889569 129.92962 49.079085Q130.04473 49.079085 130.12147 49.155827H130.31333Q131.57959 50.2686 132.92259 51.343002Q136.52951 51.880202 139.44574 52.916232Q133.22956 48.426769 129.50753 43.208248Q133.19119 38.143213 137.79577 34.037465Q136.83648 34.382808 135.83882 34.613037L133.80514 35.073495Q134.99465 34.152579 137.18183 32.272377zM169.44071 37.52927Q166.86982 37.375784 165.52682 38.603671Q164.18382 39.831558 164.49079 42.364076Q164.79776 44.896593 166.02565 46.162852Q167.13842 47.544225 169.28723 47.467482Q169.82443 47.429111 170.01629 47.429111Q173.58483 46.815167 173.69995 42.172218Q173.77669 39.793187 173.086 38.987386Q172.0116 37.682755 169.44071 37.52927zM172.77903 49.347685Q171.43603 49.923257 169.8628 49.846514Q166.02565 50.076743 164.72102 47.467482Q164.52916 52.839489 163.18616 57.137095Q161.3827 57.635924 159.73273 58.364982Q162.30362 52.34066 162.03502 45.31868Q161.80479 38.450185 158.88856 32.34912Q160.8455 33.538636 162.57222 33.999094L163.07105 35.45721Q163.18616 35.802553 163.45476 36.915326Q164.49079 34.843266 168.09771 34.651409Q168.98026 34.613037 169.8628 34.613037H170.36163Q170.47674 34.613037 170.6686 34.651409H170.97557Q173.086 34.958381 173.81506 35.188609Q175.31155 35.649067 176.19409 36.608354Q177.03827 37.79787 176.99989 39.217615Q176.99989 42.095475 176.19409 44.781479Q175.15806 48.311655 172.77903 49.347685zM177.07664 49.923257Q178.18941 47.92794 178.49638 43.783821Q178.64987 42.018733 178.64987 40.752474Q178.68824 39.255986 177.92081 37.836241Q177.46035 37.337412 176.96152 36.953697L176.80804 36.685097L176.61618 36.378125L176.57781 36.224639Q174.85109 34.190951 170.47674 34.190951H169.8628Q165.18148 34.190951 163.53151 35.802553Q163.33965 35.265352 163.18616 34.766523L162.91756 33.692122Q160.42342 33.078178 158.19787 31.58169Q161.45945 37.912984 161.76642 45.203565Q162.03502 52.494146 159.15716 59.017297L161.19085 58.173125Q160.92224 58.902183 160.23156 60.475414Q162.95593 59.401012 165.29659 59.055669Q166.40937 54.182491 166.56285 50.422086Q167.9826 51.918574 171.62789 52.148803Q175.61852 52.417403 177.07664 49.961629zM171.35929 39.793187Q172.0116 39.716444 173.12437 40.061787Q173.39298 41.059446 173.3546 42.248961Q173.3546 43.169877 173.16275 43.822192Q172.43369 46.738424 169.90117 47.045396H170.01629Q169.93954 47.045396 169.82443 47.083768H169.28723Q168.09771 47.083768 167.10005 46.584938L166.71634 44.474507Q166.60122 42.172218 167.90585 41.136189Q168.94188 40.061787 171.35929 39.793187z" /></svg>