<svg xmlns:xlink="http://www.w3.org/1999/xlink" xmlns="http://www.w3.org/2000/svg" height="75" width="213" viewBox="0,0,213,75"><path d="M44.000559 38.526928Q44.077302 37.068812 43.252315 36.147896Q42.427328 35.226981 40.969212 35.265352Q38.628552 35.342095 37.784379 37.490898Q37.515779 38.296699 37.477408 38.987386Q37.247179 43.860563 36.326263 48.234912Q34.637918 48.772113 32.757716 49.769771Q35.060005 42.747791 34.791404 35.380467Q34.484432 27.9364 31.913543 21.067905Q33.717003 22.410907 35.750691 23.101594Q37.208807 28.934058 37.400665 34.843266Q38.820409 32.771206 41.544784 32.847949Q46.648191 32.924692 46.763305 38.335071Q46.916791 44.090792 48.298165 48.772113Q46.417962 47.92794 44.652874 47.736083Q44.115673 44.436136 44.000559 38.526928zM44.307531 48.043055Q45.381932 48.196541 46.494705 48.465141Q46.533077 48.618627 47.070277 50.613944Q50.063253 51.573231 52.096941 53.031347Q49.372566 47.198882 48.835365 40.829217Q48.528393 37.107183 47.108649 35.533953Q47.070277 35.418838 46.417962 34.958381Q46.187733 34.459551 45.535418 33.692122L45.57379 33.65375Q44.691246 32.771206 41.544784 32.502606Q40.815726 32.502606 39.395982 32.847949Q39.165753 27.9364 38.820409 25.403882Q38.05298 25.288768 36.556492 24.981796Q36.403006 24.252738 36.134406 22.75625Q33.141431 21.758592 31.261228 20.185361Q34.215832 27.360828 34.484432 35.226981Q34.791404 43.093134 32.220515 50.498829Q33.141431 49.884886 34.292575 49.386056L33.563517 51.688345Q36.709978 50.345343 38.705295 50.153486Q39.280867 44.704736 39.472725 40.714102Q39.587839 38.872271 41.544784 37.759498Q42.043614 37.490898 42.580814 37.52927Q42.7343 37.52927 43.079643 37.567641L43.540101 37.682755Q43.540101 38.06647 43.655216 38.526928Q43.808702 44.589622 44.307531 48.043055zM88.077861 48.656998Q86.734859 46.930282 85.430229 43.822192L83.319798 38.680414Q81.708195 42.709419 81.094252 44.014049Q79.636136 46.968653 78.024534 48.887227Q77.640819 48.887227 76.873389 49.002342Q76.873389 41.519903 71.002553 35.533953Q69.237465 33.692122 67.203777 32.195634Q69.083979 32.771206 70.964182 33.078178Q77.065247 38.06647 78.523363 44.359393Q79.444278 42.517562 80.633794 39.294358Q81.976796 35.495581 82.552368 34.190951H83.972113Q84.854657 35.917667 86.044173 39.217615Q87.348803 42.862905 88.001118 44.28265Q89.842949 37.951356 95.368442 33.346778Q96.596329 33.270036 99.359075 32.694463Q90.610378 38.718785 89.420863 48.772113L88.768547 48.656998Q88.423204 48.618627 88.077861 48.656998zM93.181267 51.343002Q92.835924 49.769771 92.835924 48.234912Q92.835924 44.973336 94.255669 41.711761Q96.250986 37.145555 100.39511 34.037465Q99.167218 34.306065 97.287016 34.651409Q99.282333 33.001435 100.58696 32.08052L98.054445 32.540977Q96.826558 32.771206 95.483556 32.924692Q90.265035 37.183926 88.30809 42.248961Q87.655775 40.061787 86.274401 35.764182Q85.96743 35.802553 85.698829 35.802553H85.161629Q85.046514 35.495581 84.240713 33.730493H82.168653Q81.209366 36.569983 79.098935 42.248961Q77.755933 38.526928 74.647843 35.226981Q74.379243 35.226981 74.072271 35.188609L73.496699 35.073495Q72.652527 34.267694 70.849067 32.656092Q67.664234 32.003777 65.975889 31.504948Q76.796646 39.025757 76.412931 49.424428Q76.604789 49.424428 76.969318 49.386056Q77.333847 49.347685 77.525704 49.347685Q77.525704 49.194199 77.717562 51.30463L79.674507 51.151144Q82.283768 48.311655 84.547685 42.517562Q86.044173 46.393081 87.924375 49.079085Q88.231347 49.040713 88.499947 49.059899Q88.768547 49.079085 89.037148 49.079085L91.109208 51.151144zM124.00122 36.531611Q121.43033 36.531611 120.3943 37.721127Q119.35827 38.910643 119.35827 41.558275Q119.35827 46.700053 124.00122 46.508195Q126.11165 46.700053 127.47384 45.126822Q128.83603 43.553592 128.6058 41.481532Q128.6058 38.910643 127.72326 37.874613Q126.22677 36.531611 124.00122 36.531611zM129.06626 46.393081Q127.87674 48.887227 123.15705 48.887227H121.69893Q119.3199 48.887227 118.20713 47.736083Q117.1711 46.700053 116.9025 44.28265Q116.74901 42.786162 116.67227 40.982703Q116.6339 39.985044 116.48041 38.028099Q116.3653 33.692122 121.58382 33.692122H123.15705Q126.07328 33.692122 128.18371 34.996752Q128.98952 35.495581 129.48835 36.186268Q129.75695 35.380467 130.29415 33.730493Q131.52203 33.538636 133.86269 32.924692Q131.25343 37.183926 131.25343 42.47919Q131.25343 46.239595 132.63481 49.347685Q131.48366 49.040713 129.56509 48.810484Q129.37323 47.966312 129.06626 46.393081zM132.40458 51.649974L134.63012 52.225546Q135.85801 52.532518 136.85567 52.992975Q133.17201 48.618627 133.17201 42.47919Q133.17201 37.912984 135.32081 34.075837Q134.66849 34.306065 133.32549 34.68978Q133.67084 33.922351 134.55338 32.387492Q133.97781 32.579349 129.9488 33.423521L129.37323 35.265352Q127.56977 33.500264 123.11868 33.270036Q122.00591 33.308407 119.74199 33.461893Q116.01996 33.807236 116.13507 37.874613Q116.25019 41.212931 116.82576 45.702394L116.86413 46.162852Q116.97924 47.007025 117.78504 48.119798Q117.93853 48.273283 118.13039 48.388398Q118.39899 48.887227 118.7827 49.462799Q120.20245 50.997658 123.61751 51.189516Q125.26748 51.30463 125.42097 51.30463H126.9942Q130.2174 51.30463 131.44529 49.7314Q131.79063 50.345343 132.40458 51.649974zM125.80468 38.795528Q127.14768 38.795528 127.99186 39.255986Q128.29883 40.061787 128.29883 41.519903Q128.49069 43.438477 127.20524 44.877408Q125.9198 46.316338 124.00122 46.124481Q122.54311 46.124481 121.50708 45.702394Q121.31522 44.858222 121.31522 43.630335Q121.43033 40.061787 124.07797 39.1025Q124.99888 38.795528 125.80468 38.795528zM168.67328 36.416497Q166.10239 36.378125 164.79776 37.52927Q163.33965 38.757157 163.53151 41.289674Q163.80011 44.244278 164.98962 45.31868Q166.48611 46.62331 168.59654 46.469824Q170.74534 46.469824 172.16509 45.203565Q173.50809 44.052421 173.69995 41.481532Q174.08366 36.531611 168.67328 36.416497zM168.5198 49.040713H166.94657Q164.06871 49.040713 162.57222 47.620968Q161.57456 46.584938 161.30596 44.627993Q161.15247 43.51522 160.99899 41.289674Q160.92224 40.292016 160.80713 38.028099Q160.73039 36.147896 161.68967 34.996752Q163.45476 33.500264 168.21283 33.65375Q173.16275 33.807236 175.00458 35.342095Q176.50107 36.569983 176.30921 39.793187Q176.07898 43.361734 176.00224 43.783821Q175.69526 46.086109 174.35226 47.275625Q172.35695 49.040713 168.5198 49.040713zM173.23949 51.458116Q174.73598 51.496488 176.65455 51.343002Q177.15338 51.266259 177.15338 51.112773Q177.15338 51.03603 177.11501 50.882544Q177.07664 50.729058 177.07664 50.613944Q177.07664 50.345343 177.42198 50.038371Q178.30452 48.887227 178.30452 46.968653Q178.30452 46.009366 178.2086 43.572777Q178.11267 41.136189 177.95918 40.023416Q177.57547 37.874613 176.65455 36.723469L176.34758 36.531611Q176.19409 35.879296 175.38829 34.958381Q173.086 33.231664 168.13608 33.231664H166.37099Q163.03268 33.231664 161.30596 34.613037Q160.42342 35.72581 160.46179 37.759498Q160.50016 38.219956 160.63446 39.486215Q160.76876 40.752474 160.73039 41.212931Q160.96062 44.28265 161.03736 44.743107Q161.3827 46.853539 162.30362 48.004683L162.4571 48.234912Q163.30128 50.729058 167.06168 51.151144Q167.94423 51.266259 173.23949 51.458116zM170.51511 38.718785Q171.39766 38.757157 173.086 39.294358Q173.43135 40.023416 173.39298 41.519903Q173.27786 45.011708 170.36163 45.779137Q169.63257 45.970995 168.59654 46.086109Q167.56051 46.162852 165.83379 45.548909Q165.56519 44.81985 165.60357 43.323363Q165.68031 40.982703 167.06168 39.946673Q167.94423 39.025757 170.51511 38.718785z" /></svg>