<svg xmlns:xlink="http://www.w3.org/1999/xlink" xmlns="http://www.w3.org/2000/svg" height="75" width="213" viewBox="0,0,213,75"><path d="M41.640713 37.52927Q39.069824 37.375784 37.726822 38.603671Q36.383821 39.831558 36.690792 42.364076Q36.997764 44.896593 38.225651 46.162852Q39.338424 47.544225 41.487227 47.467482Q42.024428 47.429111 42.216285 47.429111Q45.784833 46.815167 45.899947 42.172218Q45.97669 39.793187 45.286003 38.987386Q44.211602 37.682755 41.640713 37.52927zM44.979032 49.347685Q43.63603 49.923257 42.062799 49.846514Q38.225651 50.076743 36.921021 47.467482Q36.729164 52.839489 35.386162 57.137095Q33.582703 57.635924 31.932729 58.364982Q34.503618 52.34066 34.235018 45.31868Q34.004789 38.450185 31.088557 32.34912Q33.045502 33.538636 34.772218 33.999094L35.271048 35.45721Q35.386162 35.802553 35.654762 36.915326Q36.690792 34.843266 40.297711 34.651409Q41.180255 34.613037 42.062799 34.613037H42.561629Q42.676743 34.613037 42.8686 34.651409H43.175572Q45.286003 34.958381 46.015062 35.188609Q47.511549 35.649067 48.394093 36.608354Q49.238266 37.79787 49.199894 39.217615Q49.199894 42.095475 48.394093 44.781479Q47.358063 48.311655 44.979032 49.347685zM49.276637 49.923257Q50.38941 47.92794 50.696382 43.783821Q50.849868 42.018733 50.849868 40.752474Q50.888239 39.255986 50.12081 37.836241Q49.660352 37.337412 49.161523 36.953697L49.008037 36.685097L48.816179 36.378125L48.777808 36.224639Q47.051091 34.190951 42.676743 34.190951H42.062799Q37.381479 34.190951 35.731505 35.802553Q35.539648 35.265352 35.386162 34.766523L35.117562 33.692122Q32.623416 33.078178 30.39787 31.58169Q33.659446 37.912984 33.966417 45.203565Q34.235018 52.494146 31.357157 59.017297L33.390845 58.173125Q33.122245 58.902183 32.431558 60.475414Q35.155933 59.401012 37.496593 59.055669Q38.609366 54.182491 38.762852 50.422086Q40.182597 51.918574 43.827887 52.148803Q47.818521 52.417403 49.276637 49.961629zM43.559287 39.793187Q44.211602 39.716444 45.324375 40.061787Q45.592975 41.059446 45.554604 42.248961Q45.554604 43.169877 45.362746 43.822192Q44.633688 46.738424 42.101171 47.045396H42.216285Q42.139542 47.045396 42.024428 47.083768H41.487227Q40.297711 47.083768 39.300053 46.584938L38.916338 44.474507Q38.801224 42.172218 40.105854 41.136189Q41.141884 40.061787 43.559287 39.793187zM79.098935 40.944331Q78.945449 43.783821 77.755933 48.465141Q75.952474 49.002342 74.340872 49.808143Q76.988504 42.747791 76.719903 35.265352Q76.412931 27.782914 73.304842 20.991162Q75.300159 22.295793 77.180361 22.871365Q79.329164 29.893345 79.329164 36.608354Q79.329164 38.06647 79.252421 39.562958Q80.403565 38.335071 85.660458 33.346778Q86.773231 33.346778 87.770889 33.270036L89.842949 33.078178Q86.696488 36.147896 82.360511 39.946673Q85.737201 42.709419 92.260352 48.580255Q89.535977 47.697711 86.543002 47.505854Q84.010484 45.395423 79.098935 40.944331zM89.075519 50.191857Q93.833583 51.03603 96.980044 52.992975Q95.790528 51.688345 93.142896 49.270942Q93.373125 49.347685 93.641725 49.462799Q91.531294 47.429111 89.267377 45.510537L84.816285 41.596646Q89.804577 37.337412 92.260352 34.42118Q91.032465 34.497923 88.538319 34.766523Q90.149921 33.308407 90.840607 32.464234Q88.039489 32.963064 85.545343 32.963064Q84.125599 34.267694 81.362852 36.953697Q81.362852 31.121233 80.365194 25.250397Q79.636136 25.058539 78.139648 24.789939Q77.986162 24.060881 77.525704 22.564393Q74.878072 21.758592 72.614155 20.185361Q76.067588 27.053856 76.412931 35.226981Q76.758275 43.208248 73.726928 50.498829Q74.417615 50.191857 75.760616 49.539542Q75.530387 50.383715 74.878072 51.841831Q77.717562 50.729058 79.866365 50.345343Q80.441937 47.812826 80.940766 43.51522Q83.588398 45.817509 89.075519 50.191857zM123.54077 32.656092Q124.38494 32.963064 126.38026 32.963064L126.41863 40.215273Q126.457 44.512879 126.57211 47.429111Q126.22677 47.313997 125.84305 47.313997Q124.38494 47.313997 122.92682 48.656998Q123.73262 40.982703 123.54077 32.656092zM122.42799 24.636453Q123.96285 23.562052 124.69191 22.602765Q125.76631 24.482967 127.18606 26.171312Q126.38026 27.706171 124.99888 29.854974Q124.15471 28.665458 123.57914 27.322456zM122.38962 49.539542Q123.38728 48.426769 124.65354 47.92794Q124.65354 48.618627 124.53842 50Q125.22911 49.769771 125.88143 49.769771Q128.10697 49.769771 129.52672 51.765088Q128.26046 44.359393 128.3372 34.114208Q127.56977 34.306065 126.7256 34.42118V32.540977Q125.68957 32.656092 124.88377 32.579349Q124.0396 32.502606 123.15705 32.003777Q123.27217 34.037465 123.27217 36.109525Q123.27217 43.208248 122.38962 49.539542zM124.99888 30.468918L125.114 30.200317L125.26748 30.046831Q125.68957 30.852632 126.7256 32.34912Q128.0686 29.970088 129.4116 26.401541Q128.52906 25.634111 126.95583 24.022509Q126.80234 24.175995 126.53374 24.636453Q125.57445 23.370194 124.65354 21.912078Q123.23379 23.600423 122.04428 23.945766Q123.15705 27.437571 124.99888 30.468918zM173.27786 48.656998Q171.93486 46.930282 170.63023 43.822192L168.5198 38.680414Q166.9082 42.709419 166.29425 44.014049Q164.83614 46.968653 163.22453 48.887227Q162.84082 48.887227 162.07339 49.002342Q162.07339 41.519903 156.20255 35.533953Q154.43747 33.692122 152.40378 32.195634Q154.28398 32.771206 156.16418 33.078178Q162.26525 38.06647 163.72336 44.359393Q164.64428 42.517562 165.83379 39.294358Q167.1768 35.495581 167.75237 34.190951H169.17211Q170.05466 35.917667 171.24417 39.217615Q172.5488 42.862905 173.20112 44.28265Q175.04295 37.951356 180.56844 33.346778Q181.79633 33.270036 184.55908 32.694463Q175.81038 38.718785 174.62086 48.772113L173.96855 48.656998Q173.6232 48.618627 173.27786 48.656998zM178.38127 51.343002Q178.03592 49.769771 178.03592 48.234912Q178.03592 44.973336 179.45567 41.711761Q181.45099 37.145555 185.59511 34.037465Q184.36722 34.306065 182.48702 34.651409Q184.48233 33.001435 185.78696 32.08052L183.25445 32.540977Q182.02656 32.771206 180.68356 32.924692Q175.46504 37.183926 173.50809 42.248961Q172.85577 40.061787 171.4744 35.764182Q171.16743 35.802553 170.89883 35.802553H170.36163Q170.24651 35.495581 169.44071 33.730493H167.36865Q166.40937 36.569983 164.29893 42.248961Q162.95593 38.526928 159.84784 35.226981Q159.57924 35.226981 159.27227 35.188609L158.6967 35.073495Q157.85253 34.267694 156.04907 32.656092Q152.86423 32.003777 151.17589 31.504948Q161.99665 39.025757 161.61293 49.424428Q161.80479 49.424428 162.16932 49.386056Q162.53385 49.347685 162.7257 49.347685Q162.7257 49.194199 162.91756 51.30463L164.87451 51.151144Q167.48377 48.311655 169.74768 42.517562Q171.24417 46.393081 173.12437 49.079085Q173.43135 49.040713 173.69995 49.059899Q173.96855 49.079085 174.23715 49.079085L176.30921 51.151144z" /></svg>