<svg xmlns:xlink="http://www.w3.org/1999/xlink" xmlns="http://www.w3.org/2000/svg" height="75" width="213" viewBox="0,0,213,75"><path d="M39.395982 37.337412Q35.175119 37.145555 34.599547 40.215273Q34.407689 41.289674 34.599547 42.172218Q34.599547 42.939648 35.060005 44.359393Q36.172777 47.582597 39.511096 47.429111Q41.544784 47.505854 42.887786 45.932623Q44.115673 44.436136 44.115673 42.364076Q44.269159 41.788504 44.115673 40.714102Q44.03893 39.793187 43.616844 39.1025Q42.005242 37.452527 39.395982 37.337412zM44.307531 55.985951Q42.427328 56.523151 34.292575 56.906866Q32.60423 56.983609 30.954256 56.139437Q31.798429 55.18015 33.64026 53.37669Q36.057663 54.41272 38.168094 54.220863Q41.084327 53.952262 41.928499 53.683662Q44.192416 52.992975 44.192416 51.189516Q44.192416 50.959287 44.115673 50.729058L44.03893 49.155827Q44.000559 48.350026 44.000559 47.544225Q42.619186 49.808143 39.204124 49.808143Q35.290233 49.808143 33.64026 47.582597Q32.527487 46.047738 31.721686 41.596646Q31.414714 40.061787 31.414714 38.642042Q31.414714 36.838583 32.33563 35.840925Q34.023975 34.42118 38.705295 34.42118L40.470383 34.613037Q43.693587 34.958381 45.036589 36.915326Q45.228446 36.071153 45.650533 34.42118Q47.492363 34.037465 49.257451 33.308407Q46.571448 39.447843 46.571448 46.738424Q46.571448 49.424428 46.955163 52.07206Q47.14702 52.762746 47.070277 53.453433Q46.87842 54.834806 45.650533 55.602236Q45.151703 55.870836 44.307531 55.985951zM47.300506 58.940554Q48.796994 59.017297 49.564423 58.05801Q49.909767 57.098723 49.794652 56.369665Q49.679538 55.71735 49.48768 54.949921Q48.259793 49.693028 48.605136 44.397764Q48.95048 38.910643 51.099282 34.037465L48.988851 34.996752Q49.21908 34.382808 49.449309 33.807236L49.948138 32.656092Q47.569106 33.615379 45.343561 34.037465Q45.036589 34.920009 44.883103 35.956039Q42.7343 33.999094 38.666923 33.999094H36.901835Q33.64026 33.999094 31.951915 35.418838Q31.030999 36.416497 31.069371 38.335071Q31.146114 40.867588 32.182144 45.165194Q32.642601 47.083768 33.870489 48.503512L34.215832 48.848856Q35.366976 51.189516 37.976237 51.726717Q39.395982 52.033688 40.854098 52.07206Q42.619186 52.110431 43.693587 51.726717Q43.079643 53.299947 40.39364 53.64529Q39.319239 53.798776 38.628552 53.798776H38.244837Q35.405348 53.798776 33.717003 52.839489L31.990286 54.566206Q31.146114 55.410378 30.301941 56.369665Q31.2996 56.906866 32.297258 57.098723L31.414714 57.981267Q34.139089 59.055669 39.818068 59.055669H40.048297Q43.693587 59.055669 47.300506 58.940554zM41.314555 39.678072Q42.619186 39.601329 43.540101 40.023416Q43.731959 40.522245 43.808702 41.212931Q43.847073 41.519903 43.808702 42.440819Q43.731959 44.359393 42.619186 45.664023Q41.42967 47.083768 39.511096 47.045396Q38.05298 46.968653 37.208807 46.546567Q36.825093 45.395423 36.786721 44.359393Q36.671607 39.985044 41.314555 39.678072zM86.600559 38.526928Q86.677302 37.068812 85.852315 36.147896Q85.027328 35.226981 83.569212 35.265352Q81.228552 35.342095 80.384379 37.490898Q80.115779 38.296699 80.077408 38.987386Q79.847179 43.860563 78.926263 48.234912Q77.237918 48.772113 75.357716 49.769771Q77.660005 42.747791 77.391404 35.380467Q77.084432 27.9364 74.513543 21.067905Q76.317003 22.410907 78.350691 23.101594Q79.808807 28.934058 80.000665 34.843266Q81.420409 32.771206 84.144784 32.847949Q89.248191 32.924692 89.363305 38.335071Q89.516791 44.090792 90.898165 48.772113Q89.017962 47.92794 87.252874 47.736083Q86.715673 44.436136 86.600559 38.526928zM86.907531 48.043055Q87.981932 48.196541 89.094705 48.465141Q89.133077 48.618627 89.670277 50.613944Q92.663253 51.573231 94.696941 53.031347Q91.972566 47.198882 91.435365 40.829217Q91.128393 37.107183 89.708649 35.533953Q89.670277 35.418838 89.017962 34.958381Q88.787733 34.459551 88.135418 33.692122L88.17379 33.65375Q87.291246 32.771206 84.144784 32.502606Q83.415726 32.502606 81.995982 32.847949Q81.765753 27.9364 81.420409 25.403882Q80.65298 25.288768 79.156492 24.981796Q79.003006 24.252738 78.734406 22.75625Q75.741431 21.758592 73.861228 20.185361Q76.815832 27.360828 77.084432 35.226981Q77.391404 43.093134 74.820515 50.498829Q75.741431 49.884886 76.892575 49.386056L76.163517 51.688345Q79.309978 50.345343 81.305295 50.153486Q81.880867 44.704736 82.072725 40.714102Q82.187839 38.872271 84.144784 37.759498Q84.643614 37.490898 85.180814 37.52927Q85.3343 37.52927 85.679643 37.567641L86.140101 37.682755Q86.140101 38.06647 86.255216 38.526928Q86.408702 44.589622 86.907531 48.043055zM133.63246 37.951356Q133.78595 37.606013 133.74758 37.183926Q133.63246 36.76184 133.32549 36.569983Q132.59643 35.99441 131.71389 36.147896Q130.63949 36.147896 128.98952 37.260669Q127.56977 38.181585 127.56977 39.371101V43.975678Q127.5314 46.546567 127.68489 48.580255H125.95817Q124.96051 48.541884 124.23145 48.618627Q124.65354 46.086109 124.73028 43.822192Q124.88377 39.140872 124.23145 37.836241Q123.96285 37.260669 123.38728 36.953697Q122.54311 36.224639 120.96988 36.109525Q118.93619 35.879296 118.39899 37.490898Q118.2455 37.989727 118.36062 38.488557Q119.01293 41.251303 118.66759 44.052421Q118.36062 46.89191 116.94087 49.347685Q115.94321 49.539542 113.83278 49.961629Q116.32693 46.661681 116.32693 42.325704Q116.32693 36.416497 112.25955 32.157263Q113.02698 32.464234 113.98627 32.694463L115.71298 33.078178Q116.21181 33.730493 117.09436 35.418838Q117.24784 33.500264 119.70362 33.461893Q119.8571 33.423521 120.85476 33.500264Q125.9198 33.845608 127.07094 36.685097Q128.75929 33.960722 133.82432 33.423521Q134.59175 33.308407 135.4743 33.423521Q137.69984 33.615379 137.54636 35.188609Q137.46961 35.840925 137.20101 36.608354Q135.78127 39.639701 136.0115 43.208248Q136.20335 46.700053 138.12193 49.539542Q136.43358 49.194199 134.59175 48.96397Q133.36386 46.393081 133.17201 43.591963Q132.98015 40.714102 133.63246 37.951356zM134.36152 49.347685Q135.09058 49.424428 136.43358 49.616285Q136.97078 50.345343 138.12193 51.765088Q141.07653 52.34066 143.18696 52.992975Q138.12193 49.040713 137.85333 42.47919Q137.77658 40.368759 138.39053 38.450185Q138.58239 37.52927 138.58239 36.800211Q138.62076 35.917667 138.00681 35.342095L137.96844 35.265352Q138.04518 34.766523 137.96844 34.267694Q137.85333 33.730493 137.39287 33.461893Q136.70218 32.963064 135.81964 32.924692Q132.98015 32.847949 130.29415 33.807236Q128.29883 34.497923 127.10931 35.917667Q125.53608 33.423521 120.66291 33.078178Q119.97222 33.039807 119.55013 33.039807Q117.47807 33.039807 116.86413 34.306065Q116.55716 33.807236 115.86647 32.732835Q113.37232 32.195634 111.37701 31.543319Q116.05833 35.956039 116.05833 42.287333Q116.05833 47.045396 113.18047 50.537201Q113.64092 50.383715 114.13975 50.306972L115.09904 50.115114Q114.40835 51.189516 113.29558 52.417403Q114.94555 52.110431 118.09202 51.496488Q120.77802 47.352368 120.77802 42.402447Q120.77802 41.596646 120.70128 40.752474Q120.62453 39.985044 121.62219 39.179243V39.217615Q122.19776 38.718785 123.38728 38.603671Q123.88611 38.680414 124.19308 38.680414L124.23145 38.910643Q124.50005 41.635018 124.38494 44.014049Q124.26982 46.316338 123.77099 49.002342H124.80702Q126.22677 48.96397 125.88143 48.96397Q125.9198 49.501171 125.88143 49.961629Q125.84305 50.422086 125.84305 50.920915H128.3372Q129.60346 50.920915 130.86972 50.997658Q129.33486 47.275625 129.52672 41.289674Q129.56509 40.176902 130.7546 39.409472Q131.67552 38.603671 132.94178 38.411814H133.24875Q132.82666 40.368759 132.82666 42.364076Q132.82666 46.162852 134.36152 49.347685zM128.98952 37.682755L128.83603 37.874613V37.759498zM166.79308 37.490898Q166.52448 37.452527 166.21751 37.452527Q164.87451 37.452527 163.41639 38.296699Q162.07339 39.409472 162.07339 41.328046Q162.07339 44.781479 163.60825 46.124481Q164.56754 47.313997 166.86982 47.313997Q167.13842 47.352368 167.4454 47.352368Q169.17211 47.352368 170.32326 45.702394Q171.35929 44.167535 171.28254 42.364076Q171.35929 41.903618 171.35929 41.481532Q171.35929 39.678072 169.97791 38.507742Q168.59654 37.337412 166.79308 37.490898zM171.32092 47.736083Q170.32326 49.693028 166.56285 49.808143Q163.10942 49.884886 161.49782 48.273283Q160.0397 46.508195 159.2339 41.673389Q158.92693 39.908301 158.92693 38.642042Q158.92693 36.838583 159.65599 35.764182Q161.03736 34.382808 164.03033 34.382808Q170.4 34.382808 172.31857 36.992069Q172.51043 36.186268 172.93252 34.574666Q174.19878 34.267694 176.65455 33.461893Q174.19878 39.140872 173.96855 45.510537Q173.73832 51.726717 175.88712 57.597553Q174.1604 56.983609 172.35695 56.715009Q171.43603 52.724375 171.32092 47.736083zM172.08835 57.021981Q172.8174 57.175466 174.23715 57.482438Q174.46738 58.211496 175.04295 59.631241Q177.65221 60.360299 179.9545 61.664929Q175.88712 55.026664 175.88712 46.431453Q175.88712 40.023416 178.38127 34.190951Q177.69058 34.497923 176.30921 35.150238Q176.61618 34.344437 177.26849 32.771206Q175.73364 33.346778 172.51043 34.229322Q172.39532 34.804895 172.08835 35.99441Q170.05466 34.075837 163.87685 33.922351Q160.65364 33.845608 159.27227 35.342095Q158.50484 36.49324 158.54321 38.411814Q158.65833 41.44316 159.65599 45.241937Q160.3083 47.65934 161.22922 48.618627L161.61293 49.002342Q162.80245 51.803459 168.28957 52.033688Q169.3256 52.07206 171.16743 51.765088Q171.4744 54.719692 172.08835 57.021981zM168.67328 39.793187Q169.78606 39.831558 170.63023 40.13853Q170.82209 40.675731 170.9372 41.289674Q171.01394 41.826875 170.9372 42.440819Q170.9372 44.359393 169.90117 45.664023Q168.75003 47.122139 166.86982 46.930282Q165.56519 46.930282 164.60591 46.508195Q164.26056 45.702394 164.26056 44.474507Q164.22219 44.129164 164.22219 43.822192Q164.22219 42.057104 165.56519 40.886774Q166.9082 39.716444 168.67328 39.793187z" /></svg>