<svg xmlns:xlink="http://www.w3.org/1999/xlink" xmlns="http://www.w3.org/2000/svg" height="75" width="213" viewBox="0,0,213,75"><path d="M49.103966 49.270942Q46.955163 48.848856 44.767989 48.69537Q43.348244 47.275625 40.66224 43.400106Q38.436695 46.508195 36.019291 48.96397L33.90886 49.347685Q32.834459 49.539542 31.8368 49.808143Q36.057663 45.664023 39.08901 41.519903Q35.789063 37.299041 30.340313 32.464234Q32.60423 33.231664 35.328605 33.65375Q38.782038 36.76184 40.700612 39.486215Q42.849415 36.416497 45.612161 33.883979Q48.681879 33.538636 50.52371 33.039807Q45.957504 36.723469 42.235471 41.328046Q45.612161 46.009366 49.103966 49.270942zM51.981826 32.272377Q49.065594 33.11655 45.497047 33.461893Q42.580814 36.147896 40.854098 38.642042Q39.971554 37.606013 38.32158 35.610696H38.129723Q37.976237 35.572324 37.861122 35.572324Q37.093693 34.728152 35.443719 33.270036Q31.8368 32.732835 28.958939 31.504948Q34.522804 36.339754 38.590181 41.519903Q35.21349 46.201224 30.762399 50.537201Q30.992628 50.422086 34.522804 49.577914Q32.987945 50.920915 31.337971 52.263917Q34.561175 51.343002 37.746008 51.151144Q40.163411 48.887227 42.081985 46.124481Q43.50173 47.889569 44.729617 49.079085Q44.844731 49.079085 44.921474 49.155827H45.113332Q46.379591 50.2686 47.722592 51.343002Q51.329511 51.880202 54.245744 52.916232Q48.029564 48.426769 44.307531 43.208248Q47.991193 38.143213 52.59577 34.037465Q51.636483 34.382808 50.638825 34.613037L48.605136 35.073495Q49.794652 34.152579 51.981826 32.272377zM82.283768 48.69537Q78.101277 37.375784 72.921127 32.34912Q74.379243 32.963064 77.372218 33.615379Q80.940766 37.567641 83.511655 44.28265Q86.197658 36.876954 88.84529 33.807236Q90.802236 33.65375 93.25801 32.963064Q90.073178 35.72581 87.886003 40.330387Q87.54066 41.021074 84.125599 48.69537Q83.511655 48.772113 82.283768 48.69537zM86.965088 51.151144Q90.341778 38.757157 94.946355 34.037465L93.411496 34.497923Q92.644067 34.766523 91.799894 34.881638Q92.260352 34.459551 93.085339 33.577007Q93.910326 32.694463 94.370783 32.272377Q92.145238 32.924692 88.691805 33.423521Q85.96743 36.646726 83.89537 42.287333Q82.245396 38.06647 80.403565 35.572324H79.866365Q79.559393 35.533953 79.329164 35.533953Q79.137306 35.226981 77.41059 33.154921Q74.0339 32.656092 71.769983 31.504948Q77.947791 37.260669 81.976796 49.079085H82.974454Q83.358169 49.769771 84.202342 51.074401H85.583715Q86.312773 51.074401 86.965088 51.151144zM126.0541 25.979455Q125.32504 26.363169 125.17155 27.16897V32.34912Q126.3227 32.34912 128.54824 32.08052Q128.50987 32.502606 128.4715 33.346778V34.613037L126.8599 34.68978Q126.0541 34.766523 125.17155 34.766523Q125.17155 38.987386 125.09481 47.429111Q122.86927 47.505854 121.37278 48.196541Q122.44718 41.980361 122.33206 34.68978Q121.67975 34.651409 120.37512 34.382808Q120.37512 33.38515 120.18326 31.428205Q121.29603 31.927034 122.25532 32.118891Q122.21695 31.466576 121.90998 28.97243Q121.67975 26.90037 121.67975 25.941083Q121.67975 24.252738 123.09949 23.677166Q123.94367 23.331823 128.81684 22.48765Q129.62265 22.334164 130.46682 22.21905Q130.23659 22.986479 130.0831 23.869023L129.77613 25.442254Q129.12382 25.288768 128.62499 25.403882Q127.97267 25.365511 126.0541 25.979455zM131.54122 27.130599Q131.88656 24.905053 132.50051 22.334164Q131.88656 22.679508 130.58193 23.293451L130.96565 21.566735Q129.73776 21.758592 127.24361 22.295793Q126.0541 22.372536 122.83089 23.293451Q121.25766 23.715537 121.25766 25.59574Q121.25766 25.902712 121.33441 26.248055Q121.56463 27.591057 121.67975 28.934058L121.87161 31.620062Q120.49023 31.236347 119.83792 30.775889Q119.95303 31.735176 119.9914 32.771206L120.10652 34.766523Q120.83558 34.958381 121.64138 35.035123V37.145555H122.02509Q121.90998 43.323363 120.91232 48.810484Q121.90998 48.311655 123.09949 48.043055L122.90764 50.115114Q124.1739 49.846514 125.47853 49.808143Q126.70641 49.769771 127.97267 50.038371Q127.1285 45.011708 127.1285 36.992069Q128.24127 36.992069 130.3517 37.068812V35.188609Q130.3517 34.229322 130.39007 33.270036Q129.89125 33.346778 128.81684 33.615379Q128.81684 32.924692 128.93196 31.58169Q128.08779 31.811919 127.28199 31.888662Q127.28199 30.468918 127.3971 29.049173Q127.55059 28.396858 128.08779 28.051514Q129.04707 27.360828 129.87206 27.284085Q130.69705 27.207342 131.54122 27.130599zM169.057 47.889569Q167.1768 47.812826 165.48845 48.388398Q166.02565 44.743107 166.14077 41.596646Q166.25588 38.526928 166.02565 34.843266Q164.60591 34.459551 163.83848 34.075837L163.45476 31.04449Q164.22219 31.696805 165.83379 32.272377Q165.60357 30.123574 165.18148 27.360828Q167.48377 28.051514 169.13374 27.898029L169.01863 32.540977Q170.43837 32.464234 171.78137 31.965405Q171.743 32.886321 171.51277 34.651409Q169.97791 34.996752 168.94188 34.996752V41.481532Q168.98026 45.702394 169.057 47.889569zM172.20346 31.389833Q171.93486 31.504948 171.32092 31.735176L171.70463 28.934058Q170.89883 29.24103 169.47908 29.471259Q169.47908 28.780573 169.63257 27.399199Q169.01863 27.475942 168.44305 27.475942Q166.29425 27.475942 164.64428 26.746884Q165.14311 29.24103 165.41171 31.735176Q164.52916 31.389833 162.9943 30.353803Q163.33965 31.658433 163.56988 34.382808Q164.03033 34.613037 165.21985 35.035123Q165.25822 35.687439 165.29659 37.107183L165.68031 37.145555L165.79542 37.183926Q165.83379 38.411814 165.83379 39.601329Q165.83379 44.589622 165.02799 48.96397Q165.21985 48.848856 167.1768 48.311655Q167.21517 49.002342 167.10005 50.383715Q167.90585 50.306972 168.71165 50.306972Q170.43837 50.306972 172.08835 50.882544Q170.74534 45.126822 170.9372 37.145555L173.3546 36.76184Q173.43135 35.840925 173.50809 34.804895L173.69995 32.771206Q173.12437 33.039807 171.93486 33.500264Q172.24183 32.157263 172.16509 31.811919Q172.12672 31.58169 172.20346 31.389833z" /></svg>