<svg xmlns:xlink="http://www.w3.org/1999/xlink" xmlns="http://www.w3.org/2000/svg" height="75" width="213" viewBox="0,0,213,75"><path d="M39.395982 37.337412Q35.175119 37.145555 34.599547 40.215273Q34.407689 41.289674 34.599547 42.172218Q34.599547 42.939648 35.060005 44.359393Q36.172777 47.582597 39.511096 47.429111Q41.544784 47.505854 42.887786 45.932623Q44.115673 44.436136 44.115673 42.364076Q44.269159 41.788504 44.115673 40.714102Q44.03893 39.793187 43.616844 39.1025Q42.005242 37.452527 39.395982 37.337412zM44.307531 55.985951Q42.427328 56.523151 34.292575 56.906866Q32.60423 56.983609 30.954256 56.139437Q31.798429 55.18015 33.64026 53.37669Q36.057663 54.41272 38.168094 54.220863Q41.084327 53.952262 41.928499 53.683662Q44.192416 52.992975 44.192416 51.189516Q44.192416 50.959287 44.115673 50.729058L44.03893 49.155827Q44.000559 48.350026 44.000559 47.544225Q42.619186 49.808143 39.204124 49.808143Q35.290233 49.808143 33.64026 47.582597Q32.527487 46.047738 31.721686 41.596646Q31.414714 40.061787 31.414714 38.642042Q31.414714 36.838583 32.33563 35.840925Q34.023975 34.42118 38.705295 34.42118L40.470383 34.613037Q43.693587 34.958381 45.036589 36.915326Q45.228446 36.071153 45.650533 34.42118Q47.492363 34.037465 49.257451 33.308407Q46.571448 39.447843 46.571448 46.738424Q46.571448 49.424428 46.955163 52.07206Q47.14702 52.762746 47.070277 53.453433Q46.87842 54.834806 45.650533 55.602236Q45.151703 55.870836 44.307531 55.985951zM47.300506 58.940554Q48.796994 59.017297 49.564423 58.05801Q49.909767 57.098723 49.794652 56.369665Q49.679538 55.71735 49.48768 54.949921Q48.259793 49.693028 48.605136 44.397764Q48.95048 38.910643 51.099282 34.037465L48.988851 34.996752Q49.21908 34.382808 49.449309 33.807236L49.948138 32.656092Q47.569106 33.615379 45.343561 34.037465Q45.036589 34.920009 44.883103 35.956039Q42.7343 33.999094 38.666923 33.999094H36.901835Q33.64026 33.999094 31.951915 35.418838Q31.030999 36.416497 31.069371 38.335071Q31.146114 40.867588 32.182144 45.165194Q32.642601 47.083768 33.870489 48.503512L34.215832 48.848856Q35.366976 51.189516 37.976237 51.726717Q39.395982 52.033688 40.854098 52.07206Q42.619186 52.110431 43.693587 51.726717Q43.079643 53.299947 40.39364 53.64529Q39.319239 53.798776 38.628552 53.798776H38.244837Q35.405348 53.798776 33.717003 52.839489L31.990286 54.566206Q31.146114 55.410378 30.301941 56.369665Q31.2996 56.906866 32.297258 57.098723L31.414714 57.981267Q34.139089 59.055669 39.818068 59.055669H40.048297Q43.693587 59.055669 47.300506 58.940554zM41.314555 39.678072Q42.619186 39.601329 43.540101 40.023416Q43.731959 40.522245 43.808702 41.212931Q43.847073 41.519903 43.808702 42.440819Q43.731959 44.359393 42.619186 45.664023Q41.42967 47.083768 39.511096 47.045396Q38.05298 46.968653 37.208807 46.546567Q36.825093 45.395423 36.786721 44.359393Q36.671607 39.985044 41.314555 39.678072zM80.940766 32.656092Q81.784938 32.963064 83.780255 32.963064L83.818627 40.215273Q83.856998 44.512879 83.972113 47.429111Q83.626769 47.313997 83.243055 47.313997Q81.784938 47.313997 80.326822 48.656998Q81.132623 40.982703 80.940766 32.656092zM79.827993 24.636453Q81.362852 23.562052 82.09191 22.602765Q83.166312 24.482967 84.586056 26.171312Q83.780255 27.706171 82.398882 29.854974Q81.55471 28.665458 80.979137 27.322456zM79.789622 49.539542Q80.78728 48.426769 82.053539 47.92794Q82.053539 48.618627 81.938424 50Q82.629111 49.769771 83.281426 49.769771Q85.506972 49.769771 86.926717 51.765088Q85.660458 44.359393 85.737201 34.114208Q84.969771 34.306065 84.125599 34.42118V32.540977Q83.089569 32.656092 82.283768 32.579349Q81.439595 32.502606 80.557051 32.003777Q80.672166 34.037465 80.672166 36.109525Q80.672166 43.208248 79.789622 49.539542zM82.398882 30.468918L82.513997 30.200317L82.667482 30.046831Q83.089569 30.852632 84.125599 32.34912Q85.4686 29.970088 86.811602 26.401541Q85.929058 25.634111 84.355827 24.022509Q84.202342 24.175995 83.933741 24.636453Q82.974454 23.370194 82.053539 21.912078Q80.633794 23.600423 79.444278 23.945766Q80.557051 27.437571 82.398882 30.468918zM126.07328 36.416497Q123.50239 36.378125 122.19776 37.52927Q120.73965 38.757157 120.93151 41.289674Q121.20011 44.244278 122.38962 45.31868Q123.88611 46.62331 125.99654 46.469824Q128.14534 46.469824 129.56509 45.203565Q130.90809 44.052421 131.09995 41.481532Q131.48366 36.531611 126.07328 36.416497zM125.9198 49.040713H124.34657Q121.46871 49.040713 119.97222 47.620968Q118.97456 46.584938 118.70596 44.627993Q118.55247 43.51522 118.39899 41.289674Q118.32224 40.292016 118.20713 38.028099Q118.13039 36.147896 119.08967 34.996752Q120.85476 33.500264 125.61283 33.65375Q130.56275 33.807236 132.40458 35.342095Q133.90107 36.569983 133.70921 39.793187Q133.47898 43.361734 133.40224 43.783821Q133.09526 46.086109 131.75226 47.275625Q129.75695 49.040713 125.9198 49.040713zM130.63949 51.458116Q132.13598 51.496488 134.05455 51.343002Q134.55338 51.266259 134.55338 51.112773Q134.55338 51.03603 134.51501 50.882544Q134.47664 50.729058 134.47664 50.613944Q134.47664 50.345343 134.82198 50.038371Q135.70452 48.887227 135.70452 46.968653Q135.70452 46.009366 135.6086 43.572777Q135.51267 41.136189 135.35918 40.023416Q134.97547 37.874613 134.05455 36.723469L133.74758 36.531611Q133.59409 35.879296 132.78829 34.958381Q130.486 33.231664 125.53608 33.231664H123.77099Q120.43268 33.231664 118.70596 34.613037Q117.82342 35.72581 117.86179 37.759498Q117.90016 38.219956 118.03446 39.486215Q118.16876 40.752474 118.13039 41.212931Q118.36062 44.28265 118.43736 44.743107Q118.7827 46.853539 119.70362 48.004683L119.8571 48.234912Q120.70128 50.729058 124.46168 51.151144Q125.34423 51.266259 130.63949 51.458116zM127.91511 38.718785Q128.79766 38.757157 130.486 39.294358Q130.83135 40.023416 130.79298 41.519903Q130.67786 45.011708 127.76163 45.779137Q127.03257 45.970995 125.99654 46.086109Q124.96051 46.162852 123.23379 45.548909Q122.96519 44.81985 123.00357 43.323363Q123.08031 40.982703 124.46168 39.946673Q125.34423 39.025757 127.91511 38.718785zM166.14077 32.656092Q166.98494 32.963064 168.98026 32.963064L169.01863 40.215273Q169.057 44.512879 169.17211 47.429111Q168.82677 47.313997 168.44305 47.313997Q166.98494 47.313997 165.52682 48.656998Q166.33262 40.982703 166.14077 32.656092zM165.02799 24.636453Q166.56285 23.562052 167.29191 22.602765Q168.36631 24.482967 169.78606 26.171312Q168.98026 27.706171 167.59888 29.854974Q166.75471 28.665458 166.17914 27.322456zM164.98962 49.539542Q165.98728 48.426769 167.25354 47.92794Q167.25354 48.618627 167.13842 50Q167.82911 49.769771 168.48143 49.769771Q170.70697 49.769771 172.12672 51.765088Q170.86046 44.359393 170.9372 34.114208Q170.16977 34.306065 169.3256 34.42118V32.540977Q168.28957 32.656092 167.48377 32.579349Q166.6396 32.502606 165.75705 32.003777Q165.87217 34.037465 165.87217 36.109525Q165.87217 43.208248 164.98962 49.539542zM167.59888 30.468918L167.714 30.200317L167.86748 30.046831Q168.28957 30.852632 169.3256 32.34912Q170.6686 29.970088 172.0116 26.401541Q171.12906 25.634111 169.55583 24.022509Q169.40234 24.175995 169.13374 24.636453Q168.17445 23.370194 167.25354 21.912078Q165.83379 23.600423 164.64428 23.945766Q165.75705 27.437571 167.59888 30.468918z" /></svg>