<svg xmlns:xlink="http://www.w3.org/1999/xlink" xmlns="http://www.w3.org/2000/svg" height="75" width="213" viewBox="0,0,213,75"><path d="M48.432465 37.951356Q48.585951 37.606013 48.547579 37.183926Q48.432465 36.76184 48.125493 36.569983Q47.396435 35.99441 46.513891 36.147896Q45.439489 36.147896 43.789516 37.260669Q42.369771 38.181585 42.369771 39.371101V43.975678Q42.3314 46.546567 42.484886 48.580255H40.758169Q39.760511 48.541884 39.031453 48.618627Q39.453539 46.086109 39.530282 43.822192Q39.683768 39.140872 39.031453 37.836241Q38.762852 37.260669 38.18728 36.953697Q37.343107 36.224639 35.769877 36.109525Q33.736189 35.879296 33.198988 37.490898Q33.045502 37.989727 33.160616 38.488557Q33.812931 41.251303 33.467588 44.052421Q33.160616 46.89191 31.740872 49.347685Q30.743213 49.539542 28.632782 49.961629Q31.126928 46.661681 31.126928 42.325704Q31.126928 36.416497 27.059551 32.157263Q27.826981 32.464234 28.786268 32.694463L30.512984 33.078178Q31.011814 33.730493 31.894358 35.418838Q32.047843 33.500264 34.503618 33.461893Q34.657104 33.423521 35.654762 33.500264Q40.719798 33.845608 41.870942 36.685097Q43.559287 33.960722 48.624322 33.423521Q49.391752 33.308407 50.274296 33.423521Q52.499841 33.615379 52.346355 35.188609Q52.269613 35.840925 52.001012 36.608354Q50.581267 39.639701 50.811496 43.208248Q51.003354 46.700053 52.921928 49.539542Q51.233583 49.194199 49.391752 48.96397Q48.163864 46.393081 47.972007 43.591963Q47.78015 40.714102 48.432465 37.951356zM49.161523 49.347685Q49.890581 49.424428 51.233583 49.616285Q51.770783 50.345343 52.921928 51.765088Q55.876531 52.34066 57.986963 52.992975Q52.921928 49.040713 52.653327 42.47919Q52.576584 40.368759 53.190528 38.450185Q53.382385 37.52927 53.382385 36.800211Q53.420757 35.917667 52.806813 35.342095L52.768442 35.265352Q52.845185 34.766523 52.768442 34.267694Q52.653327 33.730493 52.19287 33.461893Q51.502183 32.963064 50.619639 32.924692Q47.78015 32.847949 45.094146 33.807236Q43.098829 34.497923 41.909313 35.917667Q40.336083 33.423521 35.462905 33.078178Q34.772218 33.039807 34.350132 33.039807Q32.278072 33.039807 31.664129 34.306065Q31.357157 33.807236 30.66647 32.732835Q28.172324 32.195634 26.177007 31.543319Q30.858328 35.956039 30.858328 42.287333Q30.858328 47.045396 27.980467 50.537201Q28.440925 50.383715 28.939754 50.306972L29.899041 50.115114Q29.208354 51.189516 28.095581 52.417403Q29.745555 52.110431 32.892016 51.496488Q35.578019 47.352368 35.578019 42.402447Q35.578019 41.596646 35.501277 40.752474Q35.424534 39.985044 36.422192 39.179243V39.217615Q36.997764 38.718785 38.18728 38.603671Q38.686109 38.680414 38.993081 38.680414L39.031453 38.910643Q39.300053 41.635018 39.184938 44.014049Q39.069824 46.316338 38.570995 49.002342H39.607025Q41.026769 48.96397 40.681426 48.96397Q40.719798 49.501171 40.681426 49.961629Q40.643055 50.422086 40.643055 50.920915H43.137201Q44.403459 50.920915 45.669718 50.997658Q44.134859 47.275625 44.326717 41.289674Q44.365088 40.176902 45.554604 39.409472Q46.475519 38.603671 47.741778 38.411814H48.04875Q47.626664 40.368759 47.626664 42.364076Q47.626664 46.162852 49.161523 49.347685zM43.789516 37.682755L43.63603 37.874613V37.759498zM82.398882 48.848856H80.672166Q77.257104 48.848856 76.297817 46.700053Q77.487333 45.664023 78.945449 44.55125Q79.521021 46.738424 82.398882 46.584938Q83.204683 46.546567 84.240713 46.316338Q85.161629 45.779137 85.084886 44.81985Q85.008143 43.707078 83.204683 43.016391L79.367535 41.481532Q77.026875 40.13853 76.681532 36.569983Q76.489674 34.42118 78.676849 33.845608Q79.636136 33.615379 82.629111 33.615379Q87.54066 33.615379 88.461576 36.147896Q87.809261 36.685097 87.080202 37.145555L85.660458 38.104842Q85.161629 36.186268 81.900053 35.956039Q81.324481 35.99441 80.288451 36.416497Q79.712879 36.76184 79.712879 37.874613Q80.058222 38.949014 81.900053 39.639701Q82.974454 40.023416 85.660458 41.136189Q87.502289 41.980361 87.694146 44.55125Q87.770889 45.203565 87.694146 46.201224Q87.655775 47.083768 87.080202 47.736083Q85.4686 48.848856 82.398882 48.848856zM87.195317 51.458116Q88.116232 51.496488 89.497606 51.189516Q90.572007 50.498829 90.38015 49.270942Q90.303407 48.69537 89.996435 47.083768Q89.459234 44.129164 87.655775 42.901277Q87.118574 41.481532 85.852315 40.752474Q84.586056 40.330387 82.09191 39.371101Q82.245396 38.910643 82.513997 38.795528Q83.12794 38.335071 83.780255 38.296699Q84.586056 38.258328 85.353486 38.526928L85.391857 38.642042L85.4686 38.603671L85.737201 38.680414H85.698829Q86.811602 39.179243 87.003459 40.445502Q88.269718 39.601329 90.188292 37.912984Q89.919692 37.183926 88.922033 35.99441Q87.770889 33.270036 82.629111 33.154921Q79.444278 33.11655 77.448961 33.692122Q76.029217 34.267694 76.259446 36.378125Q76.37456 37.644384 77.295475 39.754815Q77.832676 40.867588 78.868706 41.596646Q79.559393 43.093134 80.864023 43.783821Q81.82331 44.052421 82.782597 44.436136L84.701171 45.203565Q84.355827 46.316338 82.398882 46.201224Q81.976796 46.277967 80.748909 45.970995L80.710537 45.779137L80.595423 45.894252Q79.712879 45.510537 79.060563 44.014049Q76.911761 45.58728 75.798988 46.738424Q76.067588 47.620968 77.103618 48.426769L76.950132 48.580255Q78.408248 50.729058 82.667482 51.112773Q83.933741 51.227887 87.195317 51.458116zM126.07328 36.416497Q123.50239 36.378125 122.19776 37.52927Q120.73965 38.757157 120.93151 41.289674Q121.20011 44.244278 122.38962 45.31868Q123.88611 46.62331 125.99654 46.469824Q128.14534 46.469824 129.56509 45.203565Q130.90809 44.052421 131.09995 41.481532Q131.48366 36.531611 126.07328 36.416497zM125.9198 49.040713H124.34657Q121.46871 49.040713 119.97222 47.620968Q118.97456 46.584938 118.70596 44.627993Q118.55247 43.51522 118.39899 41.289674Q118.32224 40.292016 118.20713 38.028099Q118.13039 36.147896 119.08967 34.996752Q120.85476 33.500264 125.61283 33.65375Q130.56275 33.807236 132.40458 35.342095Q133.90107 36.569983 133.70921 39.793187Q133.47898 43.361734 133.40224 43.783821Q133.09526 46.086109 131.75226 47.275625Q129.75695 49.040713 125.9198 49.040713zM130.63949 51.458116Q132.13598 51.496488 134.05455 51.343002Q134.55338 51.266259 134.55338 51.112773Q134.55338 51.03603 134.51501 50.882544Q134.47664 50.729058 134.47664 50.613944Q134.47664 50.345343 134.82198 50.038371Q135.70452 48.887227 135.70452 46.968653Q135.70452 46.009366 135.6086 43.572777Q135.51267 41.136189 135.35918 40.023416Q134.97547 37.874613 134.05455 36.723469L133.74758 36.531611Q133.59409 35.879296 132.78829 34.958381Q130.486 33.231664 125.53608 33.231664H123.77099Q120.43268 33.231664 118.70596 34.613037Q117.82342 35.72581 117.86179 37.759498Q117.90016 38.219956 118.03446 39.486215Q118.16876 40.752474 118.13039 41.212931Q118.36062 44.28265 118.43736 44.743107Q118.7827 46.853539 119.70362 48.004683L119.8571 48.234912Q120.70128 50.729058 124.46168 51.151144Q125.34423 51.266259 130.63949 51.458116zM127.91511 38.718785Q128.79766 38.757157 130.486 39.294358Q130.83135 40.023416 130.79298 41.519903Q130.67786 45.011708 127.76163 45.779137Q127.03257 45.970995 125.99654 46.086109Q124.96051 46.162852 123.23379 45.548909Q122.96519 44.81985 123.00357 43.323363Q123.08031 40.982703 124.46168 39.946673Q125.34423 39.025757 127.91511 38.718785zM171.80056 38.526928Q171.8773 37.068812 171.05232 36.147896Q170.22733 35.226981 168.76921 35.265352Q166.42855 35.342095 165.58438 37.490898Q165.31578 38.296699 165.27741 38.987386Q165.04718 43.860563 164.12626 48.234912Q162.43792 48.772113 160.55772 49.769771Q162.86 42.747791 162.5914 35.380467Q162.28443 27.9364 159.71354 21.067905Q161.517 22.410907 163.55069 23.101594Q165.00881 28.934058 165.20066 34.843266Q166.62041 32.771206 169.34478 32.847949Q174.44819 32.924692 174.56331 38.335071Q174.71679 44.090792 176.09816 48.772113Q174.21796 47.92794 172.45287 47.736083Q171.91567 44.436136 171.80056 38.526928zM172.10753 48.043055Q173.18193 48.196541 174.29471 48.465141Q174.33308 48.618627 174.87028 50.613944Q177.86325 51.573231 179.89694 53.031347Q177.17257 47.198882 176.63537 40.829217Q176.32839 37.107183 174.90865 35.533953Q174.87028 35.418838 174.21796 34.958381Q173.98773 34.459551 173.33542 33.692122L173.37379 33.65375Q172.49125 32.771206 169.34478 32.502606Q168.61573 32.502606 167.19598 32.847949Q166.96575 27.9364 166.62041 25.403882Q165.85298 25.288768 164.35649 24.981796Q164.20301 24.252738 163.93441 22.75625Q160.94143 21.758592 159.06123 20.185361Q162.01583 27.360828 162.28443 35.226981Q162.5914 43.093134 160.02052 50.498829Q160.94143 49.884886 162.09257 49.386056L161.36352 51.688345Q164.50998 50.345343 166.50529 50.153486Q167.08087 44.704736 167.27272 40.714102Q167.38784 38.872271 169.34478 37.759498Q169.84361 37.490898 170.38081 37.52927Q170.5343 37.52927 170.87964 37.567641L171.3401 37.682755Q171.3401 38.06647 171.45522 38.526928Q171.6087 44.589622 172.10753 48.043055z" /></svg>