<svg xmlns:xlink="http://www.w3.org/1999/xlink" xmlns="http://www.w3.org/2000/svg" height="75" width="213" viewBox="0,0,213,75"><path d="M39.683768 48.69537Q35.501277 37.375784 30.321127 32.34912Q31.779243 32.963064 34.772218 33.615379Q38.340766 37.567641 40.911655 44.28265Q43.597658 36.876954 46.24529 33.807236Q48.202236 33.65375 50.65801 32.963064Q47.473178 35.72581 45.286003 40.330387Q44.94066 41.021074 41.525599 48.69537Q40.911655 48.772113 39.683768 48.69537zM44.365088 51.151144Q47.741778 38.757157 52.346355 34.037465L50.811496 34.497923Q50.044067 34.766523 49.199894 34.881638Q49.660352 34.459551 50.485339 33.577007Q51.310326 32.694463 51.770783 32.272377Q49.545238 32.924692 46.091805 33.423521Q43.36743 36.646726 41.29537 42.287333Q39.645396 38.06647 37.803565 35.572324H37.266365Q36.959393 35.533953 36.729164 35.533953Q36.537306 35.226981 34.81059 33.154921Q31.4339 32.656092 29.169983 31.504948Q35.347791 37.260669 39.376796 49.079085H40.374454Q40.758169 49.769771 41.602342 51.074401H42.983715Q43.712773 51.074401 44.365088 51.151144zM83.473283 36.416497Q80.902394 36.378125 79.597764 37.52927Q78.139648 38.757157 78.331505 41.289674Q78.600106 44.244278 79.789622 45.31868Q81.286109 46.62331 83.396541 46.469824Q85.545343 46.469824 86.965088 45.203565Q88.30809 44.052421 88.499947 41.481532Q88.883662 36.531611 83.473283 36.416497zM83.319798 49.040713H81.746567Q78.868706 49.040713 77.372218 47.620968Q76.37456 46.584938 76.10596 44.627993Q75.952474 43.51522 75.798988 41.289674Q75.722245 40.292016 75.60713 38.028099Q75.530387 36.147896 76.489674 34.996752Q78.254762 33.500264 83.012826 33.65375Q87.962746 33.807236 89.804577 35.342095Q91.301065 36.569983 91.109208 39.793187Q90.878979 43.361734 90.802236 43.783821Q90.495264 46.086109 89.152262 47.275625Q87.156945 49.040713 83.319798 49.040713zM88.039489 51.458116Q89.535977 51.496488 91.454551 51.343002Q91.95338 51.266259 91.95338 51.112773Q91.95338 51.03603 91.915009 50.882544Q91.876637 50.729058 91.876637 50.613944Q91.876637 50.345343 92.221981 50.038371Q93.104525 48.887227 93.104525 46.968653Q93.104525 46.009366 93.008596 43.572777Q92.912667 41.136189 92.759181 40.023416Q92.375466 37.874613 91.454551 36.723469L91.147579 36.531611Q90.994093 35.879296 90.188292 34.958381Q87.886003 33.231664 82.936083 33.231664H81.170995Q77.832676 33.231664 76.10596 34.613037Q75.223416 35.72581 75.261787 37.759498Q75.300159 38.219956 75.434459 39.486215Q75.568759 40.752474 75.530387 41.212931Q75.760616 44.28265 75.837359 44.743107Q76.182703 46.853539 77.103618 48.004683L77.257104 48.234912Q78.101277 50.729058 81.861681 51.151144Q82.744225 51.266259 88.039489 51.458116zM85.315114 38.718785Q86.197658 38.757157 87.886003 39.294358Q88.231347 40.023416 88.192975 41.519903Q88.077861 45.011708 85.161629 45.779137Q84.43257 45.970995 83.396541 46.086109Q82.360511 46.162852 80.633794 45.548909Q80.365194 44.81985 80.403565 43.323363Q80.480308 40.982703 81.861681 39.946673Q82.744225 39.025757 85.315114 38.718785zM125.70875 49.079085Q122.79252 49.23257 121.52626 48.69537Q119.56932 47.889569 119.64606 45.395423Q119.79955 41.980361 119.79955 42.555933Q119.79955 37.183926 116.92169 32.310749Q118.917 33.270036 120.91232 33.65375Q122.63904 38.296699 122.52392 42.824534Q122.37044 44.321021 123.21461 45.548909Q124.13552 46.89191 125.67038 46.700053L126.0541 46.584938Q127.3971 46.508195 128.22209 45.740766Q129.04707 44.973336 129.04707 44.014049Q129.04707 43.783821 129.0087 43.591963Q128.93196 38.296699 130.0831 33.922351Q131.11913 33.845608 132.11679 33.615379L134.15048 33.11655Q131.57959 38.181585 131.88656 43.783821Q132.07842 46.89191 130.3517 48.043055Q129.04707 48.925599 125.70875 49.079085zM128.04941 51.496488Q131.54122 51.649974 133.38305 50.882544Q134.30397 50.115114 134.30397 48.69537Q134.30397 47.774454 134.03537 46.201224Q133.57491 43.054762 133.95862 40.023416Q134.34234 36.838583 135.76208 34.075837Q135.10977 34.382808 133.76676 34.804895Q133.99699 34.190951 134.30397 33.615379L134.87954 32.464234Q132.92259 33.11655 129.73776 33.615379Q128.50987 38.450185 128.66336 43.591963Q128.7401 45.702394 126.0541 46.201224L125.70875 46.316338H125.55527L124.59598 46.162852Q124.48087 45.241937 124.51924 44.743107Q124.7111 40.176902 124.02041 35.72581L122.98438 35.610696Q122.44718 35.572324 121.90998 35.45721Q121.52626 34.037465 121.25766 33.270036Q118.45655 32.847949 116.19263 31.543319Q118.34143 35.073495 119.07049 38.488557Q119.56932 40.714102 119.41583 44.244278Q119.4542 44.397764 119.37746 45.510537Q119.22397 47.889569 120.60535 48.848856Q120.98906 51.112773 128.04941 51.496488zM176.23246 37.951356Q176.38595 37.606013 176.34758 37.183926Q176.23246 36.76184 175.92549 36.569983Q175.19643 35.99441 174.31389 36.147896Q173.23949 36.147896 171.58952 37.260669Q170.16977 38.181585 170.16977 39.371101V43.975678Q170.1314 46.546567 170.28489 48.580255H168.55817Q167.56051 48.541884 166.83145 48.618627Q167.25354 46.086109 167.33028 43.822192Q167.48377 39.140872 166.83145 37.836241Q166.56285 37.260669 165.98728 36.953697Q165.14311 36.224639 163.56988 36.109525Q161.53619 35.879296 160.99899 37.490898Q160.8455 37.989727 160.96062 38.488557Q161.61293 41.251303 161.26759 44.052421Q160.96062 46.89191 159.54087 49.347685Q158.54321 49.539542 156.43278 49.961629Q158.92693 46.661681 158.92693 42.325704Q158.92693 36.416497 154.85955 32.157263Q155.62698 32.464234 156.58627 32.694463L158.31298 33.078178Q158.81181 33.730493 159.69436 35.418838Q159.84784 33.500264 162.30362 33.461893Q162.4571 33.423521 163.45476 33.500264Q168.5198 33.845608 169.67094 36.685097Q171.35929 33.960722 176.42432 33.423521Q177.19175 33.308407 178.0743 33.423521Q180.29984 33.615379 180.14636 35.188609Q180.06961 35.840925 179.80101 36.608354Q178.38127 39.639701 178.6115 43.208248Q178.80335 46.700053 180.72193 49.539542Q179.03358 49.194199 177.19175 48.96397Q175.96386 46.393081 175.77201 43.591963Q175.58015 40.714102 176.23246 37.951356zM176.96152 49.347685Q177.69058 49.424428 179.03358 49.616285Q179.57078 50.345343 180.72193 51.765088Q183.67653 52.34066 185.78696 52.992975Q180.72193 49.040713 180.45333 42.47919Q180.37658 40.368759 180.99053 38.450185Q181.18239 37.52927 181.18239 36.800211Q181.22076 35.917667 180.60681 35.342095L180.56844 35.265352Q180.64518 34.766523 180.56844 34.267694Q180.45333 33.730493 179.99287 33.461893Q179.30218 32.963064 178.41964 32.924692Q175.58015 32.847949 172.89415 33.807236Q170.89883 34.497923 169.70931 35.917667Q168.13608 33.423521 163.26291 33.078178Q162.57222 33.039807 162.15013 33.039807Q160.07807 33.039807 159.46413 34.306065Q159.15716 33.807236 158.46647 32.732835Q155.97232 32.195634 153.97701 31.543319Q158.65833 35.956039 158.65833 42.287333Q158.65833 47.045396 155.78047 50.537201Q156.24092 50.383715 156.73975 50.306972L157.69904 50.115114Q157.00835 51.189516 155.89558 52.417403Q157.54555 52.110431 160.69202 51.496488Q163.37802 47.352368 163.37802 42.402447Q163.37802 41.596646 163.30128 40.752474Q163.22453 39.985044 164.22219 39.179243V39.217615Q164.79776 38.718785 165.98728 38.603671Q166.48611 38.680414 166.79308 38.680414L166.83145 38.910643Q167.10005 41.635018 166.98494 44.014049Q166.86982 46.316338 166.37099 49.002342H167.40702Q168.82677 48.96397 168.48143 48.96397Q168.5198 49.501171 168.48143 49.961629Q168.44305 50.422086 168.44305 50.920915H170.9372Q172.20346 50.920915 173.46972 50.997658Q171.93486 47.275625 172.12672 41.289674Q172.16509 40.176902 173.3546 39.409472Q174.27552 38.603671 175.54178 38.411814H175.84875Q175.42666 40.368759 175.42666 42.364076Q175.42666 46.162852 176.96152 49.347685zM171.58952 37.682755L171.43603 37.874613V37.759498z" /></svg>